# Created by Metasequoia

mtllib G84_ammo.mtl

v 10.216459 -1.335948 27.763926
v 10.216459 -5.804446 27.763926
v 10.737339 -5.041642 24.917118
v 10.737339 -2.098748 24.917118
v 10.216459 -9.674274 25.529678
v 10.737339 -7.590269 23.445667
v 10.216459 -11.908527 21.659849
v 10.737339 -9.061714 20.897049
v 10.216459 -11.908527 17.191349
v 10.737339 -9.061714 17.954153
v 10.216459 -9.674274 13.321520
v 10.737339 -7.590264 15.405535
v 10.216459 -5.804446 11.087271
v 10.737339 -5.041642 13.934086
v 10.216459 -1.335948 11.087271
v 10.737339 -2.098748 13.934086
v 10.216459 2.533886 13.321520
v 10.737339 0.449877 15.405531
v 10.216459 4.768128 17.191351
v 10.737339 1.921320 17.954153
v 10.216459 4.768128 21.659851
v 10.737339 1.921325 20.897049
v 10.216459 2.533886 25.529678
v 10.737339 0.449877 23.445671
v 67.906319 -10.352507 12.643286
v 70.899559 -10.119798 12.875996
v 70.899559 -5.967515 10.478676
v 67.880516 -6.052691 10.160788
v 70.899559 -1.172868 10.478676
v 67.810066 -1.087692 10.160788
v 70.899559 2.979409 12.875998
v 67.713753 3.212122 12.643286
v 70.899559 5.376728 17.028278
v 67.617531 5.694622 16.943104
v 70.899559 5.376728 21.822918
v 67.546989 5.694622 21.908096
v 70.899559 2.979409 25.975197
v 67.521217 3.212118 26.207909
v 70.899559 -1.172873 28.372513
v 67.546989 -1.087697 28.690399
v 70.899559 -5.967515 28.372513
v 67.617531 -6.052691 28.690399
v 70.899559 -10.119798 25.975197
v 67.713753 -10.352507 26.207909
v 70.899559 -12.517116 21.822922
v 67.810066 -12.835005 21.908096
v 70.899559 -12.517116 17.028276
v 67.880516 -12.835005 16.943100
v 73.603355 -5.732444 11.333828
v 73.603355 -9.503968 13.491829
v 73.603355 -1.403994 11.379585
v 73.603355 2.288804 13.582809
v 73.603355 4.369642 17.308403
v 73.603355 4.325770 21.547247
v 73.603355 2.200556 25.196354
v 73.603355 -1.448548 27.321562
v 73.603355 -5.687391 27.365423
v 73.603355 -9.412979 25.284588
v 73.603355 -11.616219 21.591797
v 73.603355 -11.661967 17.263348
v 76.601311 -3.606896 19.388897
v 11.790970 -6.052695 10.160788
v 11.790970 -10.352507 12.643286
v 11.790970 -1.087697 10.160788
v 11.790970 3.212118 12.643286
v 11.790970 5.694617 16.943104
v 11.790970 5.694617 21.908100
v 11.790970 3.212118 26.207909
v 11.790970 -1.087697 28.690399
v 11.790970 -6.052695 28.690399
v 11.790970 -10.352507 26.207909
v 11.790970 -12.835005 21.908100
v 11.790970 -12.835005 16.943100
v 78.702995 -3.570193 19.425602
v 76.732277 -4.962152 14.230745
v 76.732277 -7.373087 15.622705
v 76.732277 -2.178240 14.230745
v 76.732277 0.232704 15.622705
v 76.732277 1.624662 18.033649
v 76.732277 1.624662 20.817554
v 76.732277 0.232704 23.228493
v 76.732277 -2.178235 24.620449
v 76.732277 -4.962147 24.620453
v 76.732277 -7.373087 23.228493
v 76.732277 -8.765041 20.817554
v 76.732277 -8.765041 18.033644
v 10.415005 -3.570197 19.425602
# 87 vertices

vt 0.98208 0.11687
vt 0.99189 0.10706
vt 0.98725 0.10438
vt 0.97940 0.11223
vt 0.99548 0.09366
vt 0.99012 0.09366
vt 0.99189 0.08026
vt 0.98725 0.08294
vt 0.98208 0.07045
vt 0.97940 0.07509
vt 0.96868 0.06686
vt 0.96868 0.07222
vt 0.95528 0.07045
vt 0.95796 0.07509
vt 0.94546 0.08026
vt 0.95011 0.08294
vt 0.94187 0.09366
vt 0.94723 0.09366
vt 0.94546 0.10706
vt 0.95011 0.10438
vt 0.95528 0.11687
vt 0.95796 0.11223
vt 0.96868 0.12047
vt 0.96868 0.11510
vt 0.82050 0.24990
vt 0.81373 0.24990
vt 0.81373 0.24573
vt 0.82050 0.24573
vt 0.81373 0.24156
vt 0.82050 0.24156
vt 0.81373 0.23739
vt 0.82050 0.23739
vt 0.81373 0.23322
vt 0.82050 0.23322
vt 0.81373 0.22905
vt 0.82050 0.22905
vt 0.81373 0.22488
vt 0.82050 0.22488
vt 0.81373 0.22071
vt 0.82050 0.22071
vt 0.81373 0.21654
vt 0.82050 0.21654
vt 0.81373 0.21237
vt 0.82050 0.21237
vt 0.81373 0.20821
vt 0.82050 0.20821
vt 0.81373 0.20404
vt 0.82050 0.20404
vt 0.81373 0.19987
vt 0.82050 0.19987
vt 0.81102 0.24573
vt 0.81102 0.24990
vt 0.81102 0.24156
vt 0.81102 0.23739
vt 0.81102 0.23322
vt 0.81102 0.22905
vt 0.81102 0.22488
vt 0.81102 0.22071
vt 0.81102 0.21654
vt 0.81102 0.21237
vt 0.81102 0.20821
vt 0.81102 0.20404
vt 0.81102 0.19987
vt 0.97359 0.07490
vt 0.96321 0.07476
vt 0.96810 0.09407
vt 0.98248 0.08029
vt 0.95421 0.07987
vt 0.94904 0.08876
vt 0.94901 0.09896
vt 0.95401 0.10778
vt 0.98740 0.08939
vt 0.98707 0.09967
vt 0.98169 0.10834
vt 0.97278 0.11316
vt 0.96269 0.11295
vt 0.91368 0.20398
vt 0.91633 0.20398
vt 0.91633 0.19981
vt 0.91369 0.19981
vt 0.82050 0.19981
vt 0.82050 0.20398
vt 0.91367 0.20814
vt 0.91633 0.20814
vt 0.82050 0.20814
vt 0.91364 0.21231
vt 0.91633 0.21231
vt 0.82050 0.21231
vt 0.91362 0.21648
vt 0.91633 0.21648
vt 0.82050 0.21648
vt 0.91360 0.22064
vt 0.91633 0.22064
vt 0.82050 0.22064
vt 0.91360 0.22481
vt 0.91633 0.22481
vt 0.82050 0.22481
vt 0.91360 0.22898
vt 0.91633 0.22898
vt 0.82050 0.22898
vt 0.91362 0.23314
vt 0.91633 0.23314
vt 0.82050 0.23314
vt 0.91364 0.23731
vt 0.91633 0.23731
vt 0.82050 0.23731
vt 0.91367 0.24148
vt 0.91633 0.24148
vt 0.82050 0.24148
vt 0.91368 0.24564
vt 0.91633 0.24564
vt 0.82050 0.24564
vt 0.91369 0.24981
vt 0.91633 0.24981
vt 0.82050 0.24981
vt 0.95103 0.45170
vt 0.96542 0.42679
vt 0.95103 0.42294
vt 0.97594 0.43732
vt 0.97980 0.45170
vt 0.97594 0.46608
vt 0.96542 0.47661
vt 0.95103 0.48046
vt 0.93665 0.47661
vt 0.92612 0.46608
vt 0.92227 0.45170
vt 0.92612 0.43732
vt 0.93665 0.42679
vt 0.95103 0.40682
vt 0.97346 0.41292
vt 0.98965 0.42946
vt 0.99529 0.45176
vt 0.98907 0.47372
vt 0.97287 0.48958
vt 0.95103 0.49535
vt 0.92920 0.48958
vt 0.91300 0.47372
vt 0.90678 0.45176
vt 0.91241 0.42946
vt 0.92861 0.41292
vt 0.96837 0.09364
vt 0.96837 0.07274
vt 0.95792 0.07554
vt 0.95026 0.08319
vt 0.94746 0.09364
vt 0.95026 0.10409
vt 0.95792 0.11174
vt 0.96837 0.11454
vt 0.97882 0.11174
vt 0.98647 0.10409
vt 0.98927 0.09364
vt 0.98647 0.08319
vt 0.97882 0.07554
# 153 texture vertices

vn -0.98474 -0.04504 -0.16811
vn -0.98474 0.04504 -0.16811
vn -0.99825 0.01528 -0.05704
vn -0.99825 -0.01528 -0.05704
vn -0.98474 0.12306 -0.12306
vn -0.99825 0.04176 -0.04176
vn -0.98474 0.16811 -0.04504
vn -0.99825 0.05704 -0.01528
vn -0.98474 0.16811 0.04504
vn -0.99825 0.05704 0.01528
vn -0.98474 0.12306 0.12306
vn -0.99825 0.04176 0.04176
vn -0.98474 0.04504 0.16811
vn -0.99825 0.01528 0.05704
vn -0.98474 -0.04504 0.16811
vn -0.99825 -0.01528 0.05704
vn -0.98474 -0.12306 0.12306
vn -0.99825 -0.04176 0.04176
vn -0.98474 -0.16811 0.04504
vn -0.99825 -0.05704 0.01528
vn -0.98474 -0.16811 -0.04504
vn -0.99825 -0.05704 -0.01528
vn -0.98474 -0.12306 -0.12306
vn -0.99825 -0.04176 -0.04176
vn 0.05451 -0.70606 -0.70606
vn 0.21049 -0.69126 -0.69126
vn 0.21253 -0.25118 -0.94432
vn 0.05409 -0.25819 -0.96458
vn 0.21797 0.25555 -0.94190
vn 0.05295 0.25889 -0.96445
vn 0.22518 0.69139 -0.68649
vn 0.05148 0.70652 -0.70581
vn 0.23217 0.94029 -0.24889
vn 0.05007 0.96482 -0.25809
vn 0.23711 0.93794 0.25308
vn 0.04908 0.96470 0.25874
vn 0.23886 0.68664 0.68664
vn 0.04873 0.70627 0.70627
vn 0.23711 0.25307 0.93794
vn 0.04908 0.25874 0.96470
vn 0.23218 -0.24889 0.94029
vn 0.05008 -0.25809 0.96482
vn 0.22520 -0.68649 0.69139
vn 0.05149 -0.70582 0.70652
vn 0.21798 -0.94190 0.25554
vn 0.05297 -0.96446 0.25888
vn 0.21253 -0.94432 -0.25118
vn 0.05409 -0.96458 -0.25819
vn 0.70739 -0.18005 -0.68351
vn 0.62782 -0.55038 -0.55038
vn 0.62991 0.20617 -0.74880
vn 0.70947 0.50245 -0.49417
vn 0.63396 0.74835 -0.19511
vn 0.71146 0.67804 0.18465
vn 0.63596 0.54570 0.54568
vn 0.71152 0.18462 0.67798
vn 0.63396 -0.19512 0.74835
vn 0.70947 -0.49417 0.50245
vn 0.63015 -0.74860 0.20618
vn 0.70757 -0.68332 -0.18004
vn 0.99999 0.00275 0.00275
vn -0.27141 -0.24910 -0.92967
vn -0.27141 -0.68057 -0.68057
vn -0.27141 0.24910 -0.92967
vn -0.27141 0.68057 -0.68056
vn -0.27141 0.92967 -0.24910
vn -0.27141 0.92967 0.24910
vn -0.27141 0.68056 0.68057
vn -0.27141 0.24910 0.92967
vn -0.27141 -0.24910 0.92967
vn -0.27141 -0.68056 0.68057
vn -0.27141 -0.92967 0.24910
vn -0.27141 -0.92967 -0.24910
vn 1.00000 -0.00000 0.00000
vn 0.83749 -0.13991 -0.52823
vn 0.83823 -0.38560 -0.38560
vn 0.83556 0.14480 -0.52998
vn 0.83299 0.39343 -0.38903
vn 0.83047 0.53877 -0.14158
vn 0.82869 0.54024 0.14635
vn 0.82812 0.39638 0.39635
vn 0.82875 0.14630 0.54015
vn 0.83047 -0.14158 0.53877
vn 0.83299 -0.38903 0.39343
vn 0.83575 -0.52968 0.14480
vn 0.83768 -0.52793 -0.13989
vn -1.00000 -0.00000 -0.00000
vn -0.52025 -0.22104 -0.82491
vn -0.52025 -0.60388 -0.60388
vn -0.52025 0.22103 -0.82491
vn -0.52025 0.60388 -0.60388
vn -0.52025 0.82491 -0.22103
vn -0.52025 0.82491 0.22103
vn -0.52025 0.60388 0.60388
vn -0.52025 0.22103 0.82492
vn -0.52025 -0.22104 0.82492
vn -0.52025 -0.60388 0.60388
vn -0.52025 -0.82491 0.22104
vn -0.52025 -0.82491 -0.22104
# 99 normal vertices

g ammo
usemtl mat1
f 4/4/4 3/3/3 2/2/2 1/1/1
f 3/3/3 6/6/6 5/5/5 2/2/2
f 6/6/6 8/8/8 7/7/7 5/5/5
f 8/8/8 10/10/10 9/9/9 7/7/7
f 10/10/10 12/12/12 11/11/11 9/9/9
f 12/12/12 14/14/14 13/13/13 11/11/11
f 14/14/14 16/16/16 15/15/15 13/13/13
f 16/16/16 18/18/18 17/17/17 15/15/15
f 18/18/18 20/20/20 19/19/19 17/17/17
f 20/20/20 22/22/22 21/21/21 19/19/19
f 22/22/22 24/24/24 23/23/23 21/21/21
f 24/24/24 4/4/4 1/1/1 23/23/23
f 28/28/28 27/27/27 26/26/26 25/25/25
f 30/30/30 29/29/29 27/27/27 28/28/28
f 32/32/32 31/31/31 29/29/29 30/30/30
f 34/34/34 33/33/33 31/31/31 32/32/32
f 36/36/36 35/35/35 33/33/33 34/34/34
f 38/38/38 37/37/37 35/35/35 36/36/36
f 40/40/40 39/39/39 37/37/37 38/38/38
f 42/42/42 41/41/41 39/39/39 40/40/40
f 44/44/44 43/43/43 41/41/41 42/42/42
f 46/46/46 45/45/45 43/43/43 44/44/44
f 48/48/48 47/47/47 45/45/45 46/46/46
f 25/50/25 26/49/26 47/47/47 48/48/48
f 50/52/50 26/26/26 27/27/27 49/51/49
f 49/51/49 27/27/27 29/29/29 51/53/51
f 51/53/51 29/29/29 31/31/31 52/54/52
f 52/54/52 31/31/31 33/33/33 53/55/53
f 53/55/53 33/33/33 35/35/35 54/56/54
f 54/56/54 35/35/35 37/37/37 55/57/55
f 55/57/55 37/37/37 39/39/39 56/58/56
f 56/58/56 39/39/39 41/41/41 57/59/57
f 57/59/57 41/41/41 43/43/43 58/60/58
f 58/60/58 43/43/43 45/45/45 59/61/59
f 59/61/59 45/45/45 47/47/47 60/62/60
f 60/62/60 47/47/47 26/49/26 50/63/50
f 49/67/49 61/66/61 60/65/60 50/64/50
f 60/65/60 61/66/61 58/69/58 59/68/59
f 58/69/58 61/66/61 56/71/56 57/70/57
f 52/73/52 61/66/61 49/67/49 51/72/51
f 54/75/54 61/66/61 52/73/52 53/74/53
f 56/71/56 61/66/61 54/75/54 55/76/55
f 63/80/63 11/79/89 13/78/88 62/77/62
f 62/77/62 28/82/28 25/81/25 63/80/63
f 62/77/62 13/78/88 15/84/90 64/83/64
f 64/83/64 30/85/30 28/82/28 62/77/62
f 64/83/64 15/84/90 17/87/91 65/86/65
f 65/86/65 32/88/32 30/85/30 64/83/64
f 65/86/65 17/87/91 19/90/92 66/89/66
f 66/89/66 34/91/34 32/88/32 65/86/65
f 66/89/66 19/90/92 21/93/93 67/92/67
f 67/92/67 36/94/36 34/91/34 66/89/66
f 67/92/67 21/93/93 23/96/94 68/95/68
f 68/95/68 38/97/38 36/94/36 67/92/67
f 68/95/68 23/96/94 1/99/95 69/98/69
f 69/98/69 40/100/40 38/97/38 68/95/68
f 69/98/69 1/99/95 2/102/96 70/101/70
f 70/101/70 42/103/42 40/100/40 69/98/69
f 70/101/70 2/102/96 5/105/97 71/104/71
f 71/104/71 44/106/44 42/103/42 70/101/70
f 71/104/71 5/105/97 7/108/98 72/107/72
f 72/107/72 46/109/46 44/106/44 71/104/71
f 72/107/72 7/108/98 9/111/99 73/110/73
f 73/110/73 48/112/48 46/109/46 72/107/72
f 73/110/73 9/111/99 11/114/89 63/113/63
f 63/113/63 25/115/25 48/112/48 73/110/73
f 76/118/76 75/117/75 74/116/74
f 75/117/75 77/119/77 74/116/74
f 77/119/77 78/120/78 74/116/74
f 78/120/78 79/121/79 74/116/74
f 79/121/79 80/122/80 74/116/74
f 80/122/80 81/123/81 74/116/74
f 81/123/81 82/124/82 74/116/74
f 82/124/82 83/125/83 74/116/74
f 83/125/83 84/126/84 74/116/74
f 84/126/84 85/127/85 74/116/74
f 85/127/85 86/128/86 74/116/74
f 86/128/86 76/118/76 74/116/74
f 49/130/49 75/117/75 76/118/76 50/129/50
f 51/131/51 77/119/77 75/117/75 49/130/49
f 52/132/52 78/120/78 77/119/77 51/131/51
f 53/133/53 79/121/79 78/120/78 52/132/52
f 54/134/54 80/122/80 79/121/79 53/133/53
f 55/135/55 81/123/81 80/122/80 54/134/54
f 56/136/56 82/124/82 81/123/81 55/135/55
f 57/137/57 83/125/83 82/124/82 56/136/56
f 58/138/58 84/126/84 83/125/83 57/137/57
f 59/139/59 85/127/85 84/126/84 58/138/58
f 60/140/60 86/128/86 85/127/85 59/139/59
f 50/129/50 76/118/76 86/128/86 60/140/60
f 14/143/14 12/142/12 87/141/87
f 16/144/16 14/143/14 87/141/87
f 18/145/18 16/144/16 87/141/87
f 20/146/20 18/145/18 87/141/87
f 22/147/22 20/146/20 87/141/87
f 24/148/24 22/147/22 87/141/87
f 4/149/4 24/148/24 87/141/87
f 3/150/3 4/149/4 87/141/87
f 6/151/6 3/150/3 87/141/87
f 8/152/8 6/151/6 87/141/87
f 10/153/10 8/152/8 87/141/87
f 12/142/12 10/153/10 87/141/87
# 102 elements

