# Created by Metasequoia

mtllib m72_ammo.mtl

v -98.467072 -0.000029 45.425224
v -115.036224 -0.000029 41.034489
v -115.036224 2.195341 41.622734
v -115.036224 -4.390743 45.425224
v -114.891724 -3.802494 43.229858
v -115.036224 2.195341 49.227692
v -115.036224 -0.000030 49.815941
v -115.036224 -2.195400 49.227692
v -115.036224 4.390710 45.425198
v -115.036224 3.802461 47.620567
v -115.036224 3.802461 43.229858
v -115.036224 -2.195399 41.622734
v -109.939056 -7.560462 45.425224
v -109.939056 -6.547556 49.205471
v -38.562969 -6.547526 49.205498
v -38.562969 -7.560458 45.425282
v -109.939041 -3.780246 51.972782
v -38.562969 -3.780215 51.972836
v -109.939041 -0.000002 52.985687
v -38.562969 0.000028 52.985737
v -109.939041 3.780214 51.972782
v -38.562969 3.780244 51.972836
v -109.939041 6.547552 49.205471
v -38.562969 6.547582 49.205498
v -109.939041 7.560458 45.425224
v -38.562969 7.560487 45.425282
v -109.939041 6.547552 41.645008
v -38.562969 6.547582 41.645035
v -109.939041 3.780215 38.877670
v -38.562969 3.780245 38.877728
v -109.939041 -0.000002 37.864769
v -38.562969 0.000028 37.864792
v -109.939041 -3.780245 38.877670
v -38.562969 -3.780215 38.877728
v -109.939056 -6.547556 41.644981
v -38.562969 -6.547526 41.645035
v -115.039825 9.989971 45.425224
v -115.039825 8.651583 40.430199
v -109.939056 8.651583 40.430252
v -109.939056 9.989999 45.425255
v -115.039825 4.994971 36.773617
v -109.939056 4.994998 36.773670
v -115.039825 -0.000029 35.435200
v -109.939056 -0.000002 35.435253
v -115.039856 -4.995002 36.773617
v -109.939056 -4.995002 36.773643
v -115.039856 -8.651611 40.430199
v -109.939056 -8.651586 40.430225
v -115.039856 -9.990029 45.425224
v -109.939056 -9.990003 45.425255
v -115.039856 -8.651638 50.420227
v -109.939056 -8.651611 50.420254
v -115.039856 -4.995030 54.076809
v -109.939056 -4.995002 54.076836
v -115.039856 -0.000030 55.426537
v -109.939102 -0.000003 55.437904
v -115.039856 4.995024 54.076759
v -109.939056 4.994998 54.076809
v -115.039825 8.651583 50.420174
v -109.939056 8.651583 50.420227
v -115.036224 -3.802521 47.620567
v -38.562969 0.000028 45.425282
v -88.036667 -0.000002 57.300880
v -86.546219 2.273290 60.780827
v -86.546219 2.273291 55.415279
v -113.989090 2.273289 55.415253
v -113.520691 2.655123 55.029396
v -111.222321 2.655123 55.029396
v -113.520691 2.655123 61.162663
v -111.222321 -2.655156 55.029396
v -113.520691 -2.655156 55.029396
v -108.962448 -2.655155 56.146194
v -86.546219 -2.273293 55.415253
v -86.546219 -2.273294 60.780827
v -113.989090 -2.273322 55.415253
v -108.545532 -2.273322 60.780827
v -113.989090 -2.273322 60.780827
v -113.989090 2.273289 60.780827
v -108.545532 2.273289 60.780827
v -111.832535 4.794631 60.780827
v -111.832535 -4.794636 60.780827
v -86.546219 -4.794635 60.780827
v -86.546219 4.794631 60.780827
v -111.832535 -4.794636 67.416298
v -86.546219 -4.794635 67.416321
v -111.832535 4.794631 67.416298
v -86.546219 4.794631 67.416321
v -86.546219 4.267429 61.224087
v -86.546219 4.267429 66.973083
v -86.546219 -4.267433 66.973083
v -86.546219 -4.267433 61.224087
v -111.832535 4.267428 61.224060
v -111.832535 -4.267434 61.224060
v -111.832535 -4.267434 66.973053
v -111.832535 4.267428 66.973053
v -116.322510 -0.000003 58.772301
v -117.462662 -0.800877 59.568935
v -113.989090 -0.800877 59.674126
v -113.989090 -0.000003 58.877491
v -113.989090 0.800871 59.674126
v -117.462662 0.800871 59.568935
v -116.924286 0.800871 57.455265
v -116.924286 -0.800877 57.455265
v -113.989090 -0.800877 56.083748
v -116.079590 -0.000003 57.968430
v -113.989090 -0.000003 57.115204
v -113.989090 0.800871 56.083748
v -110.312500 -9.033175 50.802460
v -113.989090 -9.033446 50.802063
v -113.989059 -5.266002 54.543880
v -110.312500 -5.266002 54.543911
v -113.989059 2.273289 55.358822
v -113.989059 5.266050 54.543827
v -110.312500 5.265996 54.543911
v -110.312500 2.273290 55.358849
v -113.989044 9.033443 50.802006
v -110.312439 9.033092 50.802387
v -110.312500 -8.651611 50.420254
v -113.989090 -8.651611 50.420227
v -110.312439 8.651583 50.420227
v -113.989044 8.651608 50.420174
v -113.989059 4.995051 54.076759
v -113.989059 -4.995030 54.076809
v -110.852448 -5.265975 54.543911
v -110.852493 -5.805462 55.479515
v -110.852448 -9.413984 51.185219
v -110.852448 -9.033446 50.802090
v -110.312469 -9.413984 51.185219
v -108.962448 0.000024 56.517906
v -108.962448 -5.536137 55.011467
v -108.962448 -5.805488 55.479515
v -108.962448 -0.000003 57.057903
v -108.962448 5.805484 55.479485
v -108.962448 5.536132 55.011467
v -110.312424 9.413954 51.185192
v -110.852448 5.265996 54.543911
v -110.852417 9.033416 50.802063
v -110.852417 9.413954 51.185192
v -110.852448 5.805484 55.479485
v -110.852448 -0.000003 55.977905
v -110.852448 0.000024 57.057903
v -110.312439 -0.000003 55.437904
v -110.312439 -4.995002 54.076836
v -110.312439 4.994998 54.076809
v -108.962448 -2.655156 61.162663
v -113.520691 -2.655156 61.162663
v -108.962448 2.655123 61.162663
v -108.962448 2.655124 56.146194
v -113.520691 2.273289 60.780827
v -113.520691 -2.273295 60.780827
v -113.520691 -2.273295 55.029396
v -108.962448 -2.273322 60.780827
v -108.962448 -2.273322 56.146194
v -108.962463 2.273289 60.780827
v -108.962448 2.273290 56.146194
v -113.520691 2.273289 55.029396
v -113.989059 -2.273322 55.358822
v -110.312500 -2.273322 55.358849
v -113.989059 2.066010 55.415253
v -113.989059 0.083022 55.415253
v -113.989059 -0.083109 55.415253
v -113.989059 -2.066178 55.415253
v -88.361099 -1.558793 56.332142
v -14.383818 -1.558816 56.332176
v -14.383818 0.000056 56.894531
v -88.361099 0.000079 56.894501
v -88.361099 -1.558793 57.822926
v -14.383818 -1.558817 57.822952
v -88.361099 0.000079 57.260571
v -14.383818 0.000056 57.260597
v -88.361099 1.558843 56.332142
v -14.383818 1.558874 56.332176
v -14.383818 1.558873 57.822952
v -88.361099 1.558843 57.822926
# 174 vertices

vt 0.30687 0.70418
vt 0.30661 0.77037
vt 0.33970 0.76150
vt 0.37278 0.70419
vt 0.36392 0.73728
vt 0.12676 0.02406
vt 0.09696 0.02406
vt 0.09696 0.56764
vt 0.12676 0.56764
vt 0.06715 0.02406
vt 0.06715 0.56764
vt 0.03735 0.02406
vt 0.03735 0.56764
vt 0.15657 0.02406
vt 0.15657 0.56764
vt 0.18637 0.02406
vt 0.18637 0.56764
vt 0.21618 0.02406
vt 0.21618 0.56764
vt 0.65484 0.86573
vt 0.65484 0.90838
vt 0.62144 0.90838
vt 0.62144 0.86573
vt 0.65484 0.95103
vt 0.62144 0.95103
vt 0.65484 0.99367
vt 0.62144 0.99367
vt 0.62144 0.95102
vt 0.65484 0.82132
vt 0.62144 0.82132
vt 0.65484 0.77405
vt 0.62144 0.77405
vt 0.65484 0.72564
vt 0.62144 0.72564
vt 0.59116 0.78644
vt 0.57377 0.79643
vt 0.58205 0.82692
vt 0.60229 0.82697
vt 0.51980 0.76509
vt 0.51985 0.74504
vt 0.47859 0.75599
vt 0.48857 0.77338
vt 0.56105 0.75619
vt 0.55098 0.77353
vt 0.44833 0.78610
vt 0.46573 0.79622
vt 0.43718 0.82730
vt 0.45724 0.82735
vt 0.41199 0.80823
vt 0.41686 0.82634
vt 0.37660 0.84956
vt 0.36551 0.80825
vt 0.43019 0.83969
vt 0.40694 0.87992
vt 0.44841 0.84458
vt 0.44839 0.89105
vt 0.46663 0.83970
vt 0.48985 0.87996
vt 0.47998 0.82637
vt 0.52022 0.84963
vt 0.48487 0.80819
vt 0.53134 0.80817
vt 0.36551 0.80810
vt 0.48487 0.80815
vt 0.16725 0.41274
vt 0.14266 0.40615
vt 0.14266 0.45533
vt 0.11807 0.41274
vt 0.10006 0.43074
vt 0.09347 0.45533
vt 0.10006 0.47992
vt 0.11807 0.49793
vt 0.14266 0.50452
vt 0.16725 0.49793
vt 0.18525 0.47992
vt 0.19184 0.45533
vt 0.18525 0.43074
vt 0.34150 0.89867
vt 0.32080 0.92517
vt 0.32080 0.88431
vt 0.30944 0.86182
vt 0.07034 0.88431
vt 0.66004 0.60484
vt 0.66004 0.61676
vt 0.62824 0.60484
vt 0.65425 0.62848
vt 0.32079 0.88431
vt 0.32079 0.92517
vt 0.35516 0.92940
vt 0.06944 0.84970
vt 0.31960 0.83876
vt 0.12168 0.92517
vt 0.07034 0.92517
vt 0.12168 0.88431
vt 0.92611 0.84219
vt 0.89270 0.84219
vt 0.89270 0.74655
vt 0.92611 0.74655
vt 0.79892 0.77820
vt 0.79892 0.98720
vt 0.84945 0.98720
vt 0.84945 0.77820
vt 0.72589 0.77820
vt 0.72589 0.98720
vt 0.72990 0.77482
vt 0.72990 0.73104
vt 0.72589 0.72766
vt 0.79490 0.77482
vt 0.08487 0.77798
vt 0.29386 0.77798
vt 0.29386 0.71299
vt 0.08487 0.71299
vt 0.08487 0.82177
vt 0.29386 0.82177
vt 0.88124 0.87660
vt 0.87268 0.87668
vt 0.87268 0.89827
vt 0.88128 0.89827
vt 0.86048 0.86483
vt 0.86048 0.87668
vt 0.87268 0.86483
vt 0.86048 0.89827
vt 0.87268 0.82456
vt 0.88135 0.86466
vt 0.88128 0.83179
vt 0.86048 0.82456
vt 0.03572 0.92517
vt 0.03572 0.88431
vt 0.66509 0.68776
vt 0.66509 0.70683
vt 0.63756 0.70683
vt 0.63756 0.68776
vt 0.62148 0.70683
vt 0.62148 0.68776
vt 0.66790 0.68776
vt 0.66790 0.70683
vt 0.63756 0.70953
vt 0.66509 0.70963
vt 0.86874 0.64471
vt 0.87408 0.64447
vt 0.87408 0.67355
vt 0.87129 0.67380
vt 0.87688 0.67635
vt 0.87408 0.67635
vt 0.87688 0.67355
vt 0.88658 0.61327
vt 0.88640 0.64488
vt 0.88388 0.64447
vt 0.88388 0.61327
vt 0.88388 0.58208
vt 0.88640 0.58167
vt 0.87688 0.55299
vt 0.87954 0.55211
vt 0.86874 0.58183
vt 0.87129 0.55274
vt 0.87408 0.55299
vt 0.87408 0.58208
vt 0.86867 0.61327
vt 0.87408 0.61327
vt 0.89543 0.61327
vt 0.89437 0.64677
vt 0.89437 0.57977
vt 0.88152 0.55128
vt 0.87954 0.67443
vt 0.87408 0.55019
vt 0.87688 0.55019
vt 0.62824 0.62848
vt 0.60071 0.60484
vt 0.60071 0.62848
vt 0.60268 0.63046
vt 0.62626 0.63046
vt 0.62824 0.66028
vt 0.62626 0.66028
vt 0.62626 0.65449
vt 0.62824 0.65449
vt 0.60071 0.65449
vt 0.60268 0.65449
vt 0.60268 0.66028
vt 0.60071 0.66028
vt 0.62037 0.70683
vt 0.60973 0.70953
vt 0.89516 0.54043
vt 0.89516 0.00890
vt 0.90778 0.00890
vt 0.90778 0.54043
vt 0.88381 0.54043
vt 0.88381 0.00890
vt 0.87119 0.54043
vt 0.87119 0.00890
vt 0.88152 0.67527
vt 0.17220 0.94978
# 191 texture vertices

vn -0.27136 -0.58557 0.76385
vn -0.27093 0.12130 0.95493
vn -0.27104 0.95333 -0.13306
vn -0.27318 0.76580 0.58218
vn -0.29260 -0.47812 -0.82812
vn -0.25615 0.00000 -0.96664
vn -0.29260 0.47812 -0.82812
vn -0.29260 -0.95624 0.00000
vn -0.25615 -0.83713 -0.48332
vn -0.25615 -0.83713 0.48332
vn -0.25615 0.47644 0.84107
vn 0.00000 -1.00000 0.00000
vn -0.00000 -0.86603 0.50000
vn -0.00000 -0.50000 0.86603
vn -0.00000 0.00000 1.00000
vn -0.00000 0.50000 0.86603
vn -0.00000 0.86603 0.50000
vn -0.00000 1.00000 0.00000
vn -0.00000 0.86603 -0.50000
vn 0.00000 0.50000 -0.86603
vn 0.00000 0.00000 -1.00000
vn 0.00000 -0.50000 -0.86603
vn 0.00000 -0.86603 -0.50000
vn -0.00000 1.00000 0.00000
vn 0.00000 0.86603 -0.50000
vn 0.00001 0.50000 -0.86603
vn 0.00001 0.00000 -1.00000
vn 0.00001 -0.50000 -0.86603
vn 0.00001 -0.86602 -0.50000
vn 0.00001 -1.00000 -0.00000
vn 0.00000 -0.86603 0.50000
vn -0.00056 -0.50137 0.86523
vn -0.00112 0.00000 1.00000
vn -0.00056 0.50138 0.86523
vn -0.00001 0.86603 0.50000
vn -1.00000 0.00056 -0.00032
vn 1.00000 0.00000 0.00000
vn 0.98292 -0.14262 -0.11627
vn 0.83628 -0.54830 -0.00000
vn 0.00000 -0.63842 -0.76969
vn 0.00000 1.00000 0.00000
vn -0.00000 1.00000 0.00000
vn 0.00000 -1.00000 0.00000
vn 0.00000 -1.00000 0.00000
vn 0.93338 0.29152 -0.20933
vn 0.03854 0.33955 -0.93980
vn 0.00000 0.00000 1.00000
vn 0.00000 0.00000 -1.00000
vn 0.00000 -1.00000 0.00000
vn -0.00000 0.00000 1.00000
vn -1.00000 0.00000 0.00000
vn 0.02648 -0.71246 -0.70122
vn 0.02648 0.71246 -0.70122
vn -0.77026 0.00000 -0.63773
vn 0.26929 -0.74196 0.61399
vn 0.46774 -0.78243 0.41113
vn -0.42333 0.00000 -0.90598
vn -0.00002 -0.70468 0.70952
vn -0.00001 -0.50028 0.86586
vn -0.00001 0.26275 0.96486
vn -0.00001 0.50029 0.86586
vn -0.00001 0.70469 0.70951
vn 0.00007 -0.70740 -0.70681
vn 0.00008 0.70741 -0.70681
vn -1.00000 0.00000 -0.00000
vn -1.00000 0.00000 0.00000
vn -1.00000 0.00001 -0.00002
vn -1.00000 0.00001 -0.00002
vn 0.00042 -0.70921 -0.70500
vn 0.90368 -0.00000 -0.42821
vn 0.93840 0.07804 -0.33663
vn 0.99252 -0.09717 -0.07396
vn 0.99252 0.09717 -0.07396
vn 0.93840 -0.07805 -0.33662
vn 0.97018 0.19289 -0.14680
vn -1.00000 0.00000 -0.00000
vn -1.00000 0.00000 -0.00000
vn -1.00000 0.00000 -0.00001
vn 0.26582 -0.00000 -0.96402
vn 0.43468 0.41773 -0.79784
vn 0.43469 -0.41774 -0.79783
vn -0.00000 1.00000 0.00000
vn 1.00000 0.00000 -0.00001
vn 1.00000 -0.00001 -0.00001
vn 1.00000 -0.00002 0.00000
vn -0.00001 -0.26274 0.96487
vn 0.00000 0.33934 -0.94066
vn 0.00000 -0.00001 -1.00000
vn -0.00000 -1.00000 -0.00000
vn -0.00000 -0.00001 1.00000
vn 0.00000 -0.33936 -0.94066
vn -0.00000 1.00000 0.00000
vn 1.00000 0.00000 0.00001
vn 1.00000 0.00000 0.00002
vn 1.00000 0.00001 -0.00000
vn 1.00000 0.00001 -0.00000
vn 1.00000 0.00001 0.00000
vn 1.00000 0.00000 -0.00001
vn 1.00000 0.00000 -0.00001
vn 1.00000 -0.00000 -0.00000
vn 1.00000 -0.00000 -0.00000
vn 1.00000 -0.00000 0.00000
vn 1.00000 -0.00000 0.00001
vn -1.00000 -0.00064 0.00000
vn -1.00000 -0.00056 0.00032
vn -1.00000 -0.00032 0.00056
vn -1.00000 0.00000 0.00064
vn -0.99980 -0.00317 0.01949
vn -0.99991 0.01172 0.00677
vn -0.99980 0.01530 -0.01250
vn -1.00000 -0.00056 -0.00032
vn -1.00000 -0.00032 -0.00056
vn -1.00000 0.00000 -0.00065
vn -1.00000 0.00032 -0.00056
vn -0.25615 0.83713 -0.48331
vn 0.00000 1.00000 0.00000
vn -0.00000 0.00000 1.00000
vn -0.00000 1.00000 0.00000
vn 0.00000 0.00000 -1.00000
vn -0.96906 0.00000 -0.24683
vn -0.03027 0.00000 0.99954
vn 0.26929 0.74196 0.61399
vn 0.46774 0.78243 0.41113
vn 0.62774 -0.75862 0.17448
vn 0.62774 0.75862 0.17448
vn 0.00000 -1.00000 -0.00000
vn -0.00000 1.00000 0.00000
vn 0.00024 -0.70831 -0.70591
vn 0.00025 0.70831 -0.70591
vn -1.00000 0.00000 -0.00000
vn -1.00000 0.00000 0.00000
vn 0.96707 -0.04222 -0.25098
vn 0.00000 0.53855 0.84259
vn 0.00000 0.76559 0.64332
vn -0.00000 0.00000 1.00000
vn -0.00000 -0.53855 0.84260
vn 0.90000 -0.27454 -0.33856
vn -0.00001 -0.76559 0.64333
vn 0.96707 0.04221 -0.25100
vn 0.97017 -0.19289 -0.14681
vn 0.00042 0.70920 -0.70500
vn 0.00000 -1.00000 -0.00000
vn -0.00000 0.33934 0.94066
vn -0.00000 -0.33936 0.94066
vn 0.90000 0.27452 -0.33858
vn 0.00000 -0.70711 -0.70711
vn 0.00001 -0.50183 -0.86496
vn 0.00311 -0.13263 -0.99116
vn 0.00311 0.13262 -0.99116
vn 0.00000 0.50183 -0.86497
vn 0.00000 0.70711 -0.70711
# 151 normal vertices

g obj6
usemtl Material
f 3/3/1 2/2/2 1/1/1
f 5/5/4 4/4/3 1/1/4
f 8/3/7 7/2/6 6/3/5 1/1/5
f 6/3/5 10/5/9 9/4/8 1/1/5
f 9/4/8 11/5/10 3/3/1 1/1/1
f 2/2/2 12/3/11 5/5/4 1/1/4
f 16/9/12 15/8/13 14/7/13 13/6/12
f 15/8/13 18/11/14 17/10/14 14/7/13
f 17/10/14 18/11/14 20/13/15 19/12/15
f 20/13/15 22/11/16 21/10/16 19/12/15
f 22/11/16 24/8/17 23/7/17 21/10/16
f 24/8/17 26/9/18 25/6/18 23/7/17
f 26/9/18 28/15/19 27/14/19 25/6/18
f 28/15/19 30/17/20 29/16/20 27/14/19
f 30/17/20 32/19/21 31/18/21 29/16/20
f 32/19/21 34/17/22 33/16/22 31/18/21
f 34/17/22 36/15/23 35/14/23 33/16/22
f 36/15/23 16/9/12 13/6/12 35/14/23
f 40/23/24 39/22/25 38/21/25 37/20/24
f 39/22/25 42/25/26 41/24/26 38/21/25
f 42/25/26 44/27/27 43/26/27 41/24/26
f 44/27/27 46/28/28 45/24/28 43/26/27
f 45/24/28 46/28/28 48/22/29 47/21/29
f 47/21/29 48/22/29 50/23/30 49/20/30
f 49/20/30 50/23/30 52/30/31 51/29/31
f 54/32/32 53/31/32 51/29/31 52/30/31
f 53/31/32 54/32/32 56/34/33 55/33/33
f 56/34/33 58/32/34 57/31/34 55/33/33
f 58/32/34 60/30/35 59/29/35 57/31/34
f 60/30/35 40/23/24 37/20/24 59/29/35
f 56/38/94 19/37/94 21/36/93 58/35/93
f 27/42/96 39/41/96 40/40/95 25/39/95
f 21/36/93 23/44/97 60/43/97 58/35/93
f 60/43/97 23/44/97 25/39/95 40/40/95
f 29/46/98 42/45/98 39/41/96 27/42/96
f 31/48/99 44/47/99 42/45/98 29/46/98
f 46/45/100 44/47/99 31/48/99 33/46/100
f 48/41/101 46/45/100 33/46/100 35/42/101
f 50/40/37 48/41/101 35/42/101 13/39/37
f 52/43/102 50/40/37 13/39/37 14/44/102
f 54/35/103 52/43/102 14/44/102 17/36/103
f 56/38/94 54/35/103 17/36/103 19/37/94
f 37/52/104 38/51/105 11/50/105 9/49/104
f 11/50/105 38/51/105 41/54/106 3/53/106
f 3/53/106 41/54/106 43/56/107 2/55/107
f 43/56/107 45/58/108 12/57/108 2/55/107
f 45/58/108 47/60/109 5/59/109 12/57/108
f 5/59/109 47/60/109 49/62/110 4/61/110
f 10/50/111 59/51/111 37/63/104 9/49/104
f 6/53/112 57/54/112 59/51/111 10/50/111
f 55/56/113 57/54/112 6/53/112 7/55/113
f 8/57/114 53/58/114 55/56/113 7/55/113
f 61/59/36 51/60/36 53/58/114 8/57/114
f 4/64/110 49/62/110 51/60/36 61/59/36
f 4/4/3 61/5/115 8/3/7 1/1/115
f 62/67/37 32/66/37 30/65/37
f 62/67/37 34/68/37 32/66/37
f 62/67/37 36/69/37 34/68/37
f 62/67/37 16/70/37 36/69/37
f 62/67/37 15/71/37 16/70/37
f 62/67/37 18/72/37 15/71/37
f 62/67/37 20/73/37 18/72/37
f 62/67/37 22/74/37 20/73/37
f 62/67/37 24/75/37 22/74/37
f 62/67/37 26/76/37 24/75/37
f 62/67/37 28/77/37 26/76/37
f 62/67/37 30/65/37 28/77/37
f 65/80/39 64/79/38 63/78/38
f 66/82/40 65/80/40 63/81/40
f 69/85/42 68/84/42 67/83/41
f 72/86/44 71/83/44 70/84/43
f 64/89/38 74/88/45 73/87/45 63/78/38
f 73/91/46 75/90/46 66/82/46 63/81/46
f 79/94/47 78/82/47 77/93/47 76/92/47
f 83/98/48 82/97/48 81/96/48 80/95/48
f 81/102/49 82/101/49 85/100/49 84/99/49
f 85/100/50 87/104/50 86/103/50 84/99/50
f 87/99/116 83/102/116 80/101/116 86/100/116
f 83/103/37 87/107/37 89/106/37 88/105/37
f 87/99/37 85/103/37 90/105/37 89/108/37
f 85/107/37 82/103/37 91/105/37 90/106/37
f 82/103/37 83/99/37 88/108/37 91/105/37
f 80/103/51 81/99/51 93/108/51 92/105/51
f 81/107/51 84/103/51 94/105/51 93/106/51
f 84/99/51 86/103/51 95/105/51 94/108/51
f 86/103/51 80/107/51 92/106/51 95/105/51
f 93/112/117 91/111/117 88/110/117 92/109/117
f 89/114/49 95/113/49 92/109/49 88/110/49
f 90/110/118 91/114/118 93/113/118 94/109/118
f 89/111/119 90/110/119 94/109/119 95/112/119
f 99/118/52 98/117/52 97/116/52 96/115/52
f 99/118/53 96/115/53 101/116/53 100/117/53
f 103/121/54 97/116/120 101/120/120 102/119/54
f 97/116/121 98/117/121 100/122/121 101/120/121
f 106/125/55 105/124/56 103/121/56 104/123/55
f 107/126/57 104/123/57 103/121/54 102/119/54
f 102/121/123 105/124/123 106/125/122 107/123/122
f 105/124/56 96/115/124 97/116/124 103/121/56
f 105/124/123 102/121/123 101/116/125 96/115/125
f 66/82/51 75/128/51 77/127/51 78/93/51
f 73/87/126 74/88/126 77/93/126 75/82/126
f 78/93/127 64/79/127 65/80/127 66/82/127
f 111/132/59 110/131/59 109/130/58 108/129/58
f 115/134/60 114/132/61 113/131/61 112/133/60
f 114/132/61 117/129/62 116/130/62 113/131/61
f 108/129/128 109/130/63 119/136/63 118/135/63
f 121/136/64 116/130/64 117/129/129 120/135/64
f 113/131/65 116/130/130 121/138/130 122/137/65
f 119/138/131 109/130/131 110/131/66 123/137/66
f 127/142/68 126/141/68 125/140/67 124/139/67
f 128/145/69 126/141/69 127/144/69 108/143/128
f 132/149/37 131/148/72 130/147/71 129/146/70
f 134/151/74 133/150/73 132/149/37 129/146/70
f 117/153/132 135/152/75 133/150/73 134/151/74
f 139/157/76 138/156/77 137/155/77 136/154/76
f 141/159/78 139/157/76 136/154/76 140/158/78
f 124/139/67 125/140/67 141/159/78 140/158/78
f 129/146/70 130/147/71 143/161/80 142/160/79
f 144/162/81 134/151/74 129/146/70 142/160/79
f 133/150/133 135/152/134 138/156/134 139/157/133
f 132/149/135 133/150/133 139/157/133 141/159/135
f 131/148/136 132/149/135 141/159/135 125/140/136
f 120/163/137 117/153/132 134/151/74 144/162/81
f 126/141/138 128/145/138 131/148/136 125/140/136
f 131/148/72 128/145/140 108/164/139 130/147/71
f 135/152/141 117/166/129 137/165/141 138/156/141
f 147/169/47 69/168/47 146/85/47 145/167/47
f 68/84/42 69/85/42 147/167/82 148/86/82
f 150/171/51 146/167/51 69/169/51 149/170/51
f 151/173/51 71/172/51 146/167/51 150/171/51
f 145/167/83 72/175/37 153/174/37 152/171/83
f 147/169/84 145/167/83 152/171/83 154/170/84
f 155/177/85 148/176/85 147/169/84 154/170/84
f 69/169/51 67/179/51 156/178/51 149/170/51
f 71/83/44 72/86/44 145/167/142 146/85/142
f 158/134/86 157/133/86 110/131/59 111/132/59
f 160/181/51 159/180/51 113/131/65 122/137/65
f 110/131/66 162/180/51 161/181/51 123/137/66
f 166/185/88 165/184/88 164/183/87 163/182/87
f 164/183/89 168/187/89 167/186/89 163/182/89
f 170/189/90 169/188/90 167/186/143 168/187/143
f 172/183/91 165/184/88 166/185/88 171/182/91
f 172/183/92 171/182/92 174/186/92 173/187/92
f 174/186/144 169/188/90 170/189/90 173/187/144
f 118/190/145 143/161/80 130/147/71 108/164/139
f 120/191/146 144/191/81 122/191/147 121/191/146
f 122/191/147 144/191/81 142/191/79 160/191/148
f 123/191/150 161/191/149 142/191/79 143/191/80
f 119/191/151 123/191/150 143/191/80 118/191/151
f 161/191/149 160/191/148 142/191/79
# 150 elements

