# Blender 4.5.2 LTS
# www.blender.org
mtllib SVCH-原皮-枪口.mtl
o SVCH.005
v 290.483856 -3.674451 50.094589
v 290.483856 -1.527333 47.947475
v 290.483856 1.509143 47.947479
v 290.483856 3.656261 50.094593
v 290.483856 3.656261 53.131073
v 290.483856 1.509143 55.278187
v 290.483856 -1.527327 55.278187
v 290.483856 -3.674446 53.131069
v 290.483856 -2.597625 50.540627
v 290.483856 -1.081296 49.024300
v 290.483856 1.063117 49.024300
v 290.483856 2.579451 50.540623
v 290.483856 2.579456 52.685040
v 290.483856 1.063112 54.201363
v 290.483856 -1.081296 54.201363
v 290.483856 -2.597625 52.685036
v 278.490509 -3.011526 50.369179
v 278.490509 -1.252747 48.610397
v 278.490509 1.234555 48.610401
v 278.490509 2.993334 50.369183
v 278.490509 2.993334 52.856480
v 278.490509 1.234544 54.615261
v 278.490509 -1.252741 54.615265
v 278.490509 -3.011521 52.856480
v 278.490509 -2.129463 50.734547
v 278.490509 -0.887378 49.492466
v 278.490509 0.869191 49.492466
v 278.490509 2.111281 50.734547
v 278.490509 2.111281 52.491116
v 278.490509 0.869191 53.733200
v 278.490509 -0.887378 53.733200
v 278.490509 -2.129463 52.491116
v 271.995911 -3.228675 50.279240
v 271.995911 -1.342691 48.393257
v 271.995911 1.324503 48.393261
v 271.995911 3.210487 50.279240
v 271.995911 3.210487 52.946423
v 271.995911 1.324503 54.832405
v 271.995911 -1.342685 54.832405
v 271.995911 -3.228670 52.946423
v 278.490509 -3.945015 49.982517
v 278.490509 -1.639415 47.676903
v 278.490509 1.621217 47.676907
v 278.490509 3.926839 49.982517
v 278.490509 3.926839 53.243145
v 278.490509 1.621217 55.548756
v 278.490509 -1.639399 55.548756
v 278.490509 -3.945010 53.243145
v 271.995911 -3.945016 49.982517
v 271.995911 -1.639415 47.676903
v 271.995911 1.621217 47.676907
v 271.995911 3.926839 49.982521
v 271.995911 3.926839 53.243145
v 271.995911 1.621217 55.548759
v 271.995911 -1.639399 55.548759
v 271.995911 -3.945010 53.243145
v 288.213287 -3.548949 50.146572
v 288.213287 -1.475347 48.072975
v 288.213287 1.457168 48.072975
v 288.213287 3.530759 50.146576
v 288.213287 3.530759 53.079086
v 288.213287 1.457168 55.152687
v 288.213287 -1.475347 55.152687
v 288.213287 -3.548949 53.079086
v 288.213287 -2.508995 50.577335
v 288.213287 -1.044573 49.112926
v 288.213287 1.026403 49.112926
v 288.213287 2.490815 50.577335
v 288.213287 2.490820 52.648327
v 288.213287 1.026398 54.112736
v 288.213287 -1.044573 54.112736
v 288.213287 -2.508995 52.648327
v 279.537903 -3.069428 50.345200
v 279.537811 -1.276735 48.552502
v 279.537811 1.258528 48.552505
v 279.537903 3.051246 50.345203
v 279.537811 3.051246 52.880463
v 279.537811 1.258528 54.673157
v 279.537811 -1.276735 54.673161
v 279.537811 -3.069423 52.880459
v 279.537811 -2.170347 50.717609
v 279.537811 -0.904300 49.451576
v 279.537811 0.886135 49.451576
v 279.537811 2.152171 50.717609
v 279.537811 2.152171 52.508053
v 279.537811 0.886130 53.774086
v 279.537811 -0.904300 53.774086
v 279.537811 -2.170347 52.508053
vn 1.0000 -0.0000 -0.0000
vn -1.0000 -0.0000 -0.0000
vn -0.0000 0.7071 -0.7071
vn -0.0000 1.0000 -0.0000
vn -0.0000 0.7071 0.7071
vn -0.0000 -0.0000 1.0000
vn -0.0000 -0.7071 0.7071
vn 0.0390 0.9992 -0.0000
vn 0.0383 0.9993 -0.0010
vn 0.0378 0.9993 0.0004
vn 1.0000 0.0011 0.0005
vn 1.0000 -0.0005 0.0011
vn 1.0000 0.0014 0.0002
vn 1.0000 0.0005 -0.0013
vn 1.0000 0.0005 -0.0012
vn 1.0000 -0.0013 -0.0002
vn 1.0000 -0.0005 0.0013
vn 1.0000 -0.0011 -0.0005
vn -1.0000 0.0003 0.0013
vn -1.0000 0.0009 -0.0010
vn -1.0000 -0.0011 -0.0005
vn -1.0000 0.0010 0.0009
vn -1.0000 0.0005 -0.0011
vn -1.0000 0.0005 -0.0012
vn -1.0000 -0.0013 0.0003
vn -1.0000 -0.0003 -0.0013
vn -1.0000 -0.0009 0.0010
vn -1.0000 0.0011 0.0005
vn -1.0000 -0.0005 0.0011
vn -1.0000 0.0013 -0.0003
vn -1.0000 -0.0010 -0.0009
vn -0.0000 -0.7071 -0.7071
vn -0.0000 -0.0000 -1.0000
vn -0.0000 -1.0000 -0.0000
vn -0.0552 -0.7060 -0.7060
vn -0.0548 -0.7051 -0.7069
vn -0.0541 -0.7066 -0.7055
vn 0.0390 0.7066 0.7066
vn 0.0400 0.7060 0.7070
vn 0.0402 0.7065 0.7065
vn -0.0552 -0.0000 -0.9985
vn -0.0544 0.0011 -0.9985
vn -0.0539 -0.0004 -0.9985
vn 0.0390 -0.0000 0.9992
vn 0.0390 -0.0012 0.9992
vn 0.0397 0.0010 0.9992
vn -0.0552 0.7060 -0.7060
vn -0.0548 0.7069 -0.7051
vn -0.0541 0.7055 -0.7066
vn 0.0390 -0.7066 0.7066
vn 0.0400 -0.7070 0.7060
vn 0.0403 -0.7065 0.7065
vn -0.0552 0.9985 -0.0000
vn -0.0544 0.9985 0.0011
vn -0.0539 0.9985 -0.0004
vn 0.0390 -0.9992 -0.0000
vn 0.0390 -0.9992 -0.0012
vn 0.0397 -0.9992 0.0010
vn -0.0552 0.7060 0.7060
vn -0.0548 0.7051 0.7069
vn -0.0541 0.7066 0.7055
vn 0.0390 -0.7066 -0.7066
vn 0.0400 -0.7060 -0.7070
vn 0.0402 -0.7065 -0.7065
vn -0.0552 -0.0000 0.9985
vn -0.0544 -0.0011 0.9985
vn -0.0539 0.0004 0.9985
vn 0.0390 -0.0000 -0.9992
vn 0.0390 0.0012 -0.9992
vn 0.0397 -0.0010 -0.9992
vn -0.0552 -0.7060 0.7060
vn -0.0548 -0.7069 0.7051
vn -0.0541 -0.7055 0.7066
vn 0.0390 0.7066 -0.7066
vn 0.0400 0.7070 -0.7060
vn 0.0402 0.7065 -0.7065
vn -0.0552 -0.9985 -0.0000
vn -0.0544 -0.9985 -0.0011
vn -0.0539 -0.9985 0.0004
vn 0.0390 0.9992 0.0012
vn 0.0397 0.9992 -0.0010
vn -0.0547 -0.7052 -0.7069
vn -0.0566 -0.7060 -0.7059
vn -0.0560 -0.7068 -0.7052
vn -0.0565 -0.7057 -0.7063
vn -0.0553 -0.7050 -0.7070
vn -0.0564 -0.7057 -0.7063
vn 0.0386 0.7074 0.7057
vn 0.0380 0.7061 0.7071
vn 0.0383 0.7059 0.7073
vn 0.0397 0.7058 0.7073
vn 0.0402 0.7068 0.7063
vn 0.0390 0.7074 0.7057
vn -0.0551 -0.0013 -0.9985
vn -0.0539 -0.0005 -0.9985
vn 0.0383 0.0010 0.9993
vn 0.0379 -0.0004 0.9993
vn -0.0547 0.7070 -0.7051
vn -0.0565 0.7060 -0.7060
vn -0.0565 0.7063 -0.7057
vn -0.0552 0.7070 -0.7051
vn -0.0565 0.7063 -0.7056
vn -0.0560 0.7052 -0.7068
vn 0.0386 -0.7058 0.7074
vn 0.0381 -0.7071 0.7061
vn 0.0383 -0.7073 0.7059
vn 0.0397 -0.7072 0.7059
vn 0.0401 -0.7063 0.7068
vn 0.0390 -0.7057 0.7075
vn -0.0551 0.9985 -0.0013
vn -0.0539 0.9985 -0.0005
vn 0.0383 -0.9993 0.0009
vn 0.0378 -0.9993 -0.0004
vn -0.0547 0.7051 0.7070
vn -0.0565 0.7060 0.7060
vn -0.0560 0.7068 0.7052
vn -0.0565 0.7057 0.7063
vn -0.0553 0.7051 0.7070
vn -0.0565 0.7056 0.7063
vn 0.0386 -0.7074 -0.7057
vn 0.0380 -0.7061 -0.7071
vn 0.0383 -0.7059 -0.7073
vn 0.0397 -0.7059 -0.7072
vn 0.0402 -0.7068 -0.7063
vn 0.0390 -0.7074 -0.7057
vn -0.0551 0.0013 0.9985
vn -0.0539 0.0005 0.9985
vn 0.0383 -0.0010 -0.9993
vn 0.0379 0.0004 -0.9993
vn -0.0547 -0.7069 0.7052
vn -0.0565 -0.7060 0.7060
vn -0.0565 -0.7063 0.7057
vn -0.0553 -0.7070 0.7051
vn -0.0564 -0.7063 0.7057
vn -0.0560 -0.7052 0.7068
vn 0.0386 0.7058 -0.7074
vn 0.0380 0.7071 -0.7061
vn 0.0383 0.7073 -0.7059
vn 0.0397 0.7073 -0.7058
vn 0.0401 0.7063 -0.7068
vn 0.0390 0.7057 -0.7074
vn -0.0551 -0.9985 0.0014
vn -0.0540 -0.9985 0.0005
vn 1.0000 0.0001 -0.0014
vn 1.0000 -0.0013 -0.0004
vn 1.0000 0.0004 -0.0011
vn 1.0000 0.0010 0.0005
vn 1.0000 -0.0001 0.0014
vn 1.0000 0.0014 0.0005
vn 1.0000 -0.0004 0.0012
vn 0.0010 -0.3834 -0.9236
vn -0.0010 -0.3833 -0.9236
vn -0.0011 -0.3819 -0.9242
vn -0.0005 -0.3838 -0.9234
vn -0.0012 -0.3826 0.9239
vn 0.0004 -0.3838 0.9234
vn 0.0014 -0.3828 0.9238
vn -0.0004 -0.3815 0.9244
vn 0.0010 0.9236 -0.3834
vn -0.0010 0.9236 -0.3833
vn -0.0011 0.9242 -0.3819
vn -0.0005 0.9234 -0.3838
vn -0.0012 -0.9239 -0.3826
vn 0.0004 -0.9234 -0.3837
vn 0.0013 -0.9238 -0.3828
vn -0.0004 -0.9244 -0.3815
vn -0.0010 0.3833 0.9236
vn -0.0011 0.3819 0.9242
vn -0.0005 0.3839 0.9234
vn 0.0009 0.3833 0.9236
vn 0.0013 0.3828 -0.9238
vn -0.0004 0.3815 -0.9244
vn -0.0012 0.3826 -0.9239
vn 0.0004 0.3838 -0.9234
vn -0.0011 -0.9242 0.3819
vn -0.0005 -0.9234 0.3839
vn 0.0010 -0.9236 0.3834
vn -0.0010 -0.9236 0.3833
vn -0.0012 0.9239 0.3827
vn 0.0004 0.9234 0.3838
vn 0.0013 0.9238 0.3828
vn -0.0004 0.9244 0.3815
vt 0.579537 0.615580
vt 0.579537 0.615580
vt 0.588450 0.582638
vt 0.507065 0.585351
vt 0.585738 0.646584
vt 0.507065 0.585351
vt 0.585738 0.646584
vt 0.588450 0.582638
s 0
usemtl mat1
f 10/1/1 9/1/1 1/1/1 2/1/1
f 10/1/1 2/1/1 3/2/1 11/1/1
f 11/1/1 3/2/1 4/1/1 12/1/1
f 12/1/1 4/1/1 5/1/1 13/1/1
f 13/1/1 5/1/1 6/1/1 14/1/1
f 15/1/1 14/1/1 6/1/1 7/1/1
f 15/1/1 7/1/1 8/1/1 16/1/1
f 16/1/1 8/1/1 1/1/1 9/1/1
f 41/1/1 42/1/1 18/1/1 17/1/1
f 34/1/2 50/1/2 49/1/2 33/1/2
f 42/1/1 43/1/1 19/1/1 18/1/1
f 51/1/2 50/1/2 34/1/2 35/1/2
f 43/1/1 44/1/1 20/1/1 19/1/1
f 36/1/2 52/1/2 51/1/2 35/1/2
f 43/1/3 51/1/3 52/1/3 44/1/3
f 44/1/1 45/1/1 21/1/1 20/1/1
f 53/1/2 52/1/2 36/1/2 37/1/2
f 44/1/4 52/1/4 53/1/4 45/1/4
f 45/1/1 46/1/1 22/1/1 21/1/1
f 54/1/2 53/1/2 37/1/2 38/1/2
f 45/1/5 53/1/5 54/1/5 46/1/5
f 22/1/1 46/1/1 47/1/1 23/1/1
f 55/1/2 54/1/2 38/1/2 39/1/2
f 46/1/6 54/1/6 55/1/6 47/1/6
f 47/1/1 48/1/1 24/1/1 23/1/1
f 56/1/2 55/1/2 39/1/2 40/1/2
f 47/1/7 55/1/7 56/1/7 48/1/7
f 48/1/1 41/1/1 17/1/1 24/1/1
f 49/1/2 56/1/2 40/1/2 33/1/2
f 32/3/8 88/3/9 81/3/10 25/3/8
f 25/3/1 26/3/1 31/3/1 32/3/1
f 31/3/1 26/3/1 27/3/1 30/3/1
f 30/3/1 27/3/1 28/3/1 29/3/1
f 87/3/11 86/3/12 78/3/13 79/3/14
f 82/3/15 74/3/16 75/3/17 83/3/18
f 57/1/19 64/1/20 72/1/21 65/1/21
f 58/1/22 66/1/23 67/1/24 59/1/25
f 61/1/26 60/1/27 68/2/28 69/1/28
f 70/1/29 71/1/29 63/1/30 62/1/31
f 41/1/32 49/1/32 50/1/32 42/1/32
f 42/4/33 50/4/33 51/4/33 43/4/33
f 48/1/34 56/1/34 49/2/34 41/2/34
f 1/5/35 57/5/36 58/5/37 2/5/35
f 10/3/38 66/3/39 65/3/40 9/3/38
f 2/4/41 58/4/42 59/6/43 3/4/41
f 11/3/44 67/3/45 66/3/46 10/3/44
f 3/5/47 59/7/48 60/5/49 4/7/47
f 12/3/50 68/3/51 67/3/52 11/3/50
f 4/2/53 60/1/54 61/1/55 5/1/53
f 13/3/56 69/3/57 68/3/58 12/3/56
f 5/1/59 61/1/60 62/1/61 6/1/59
f 14/3/62 70/3/63 69/3/64 13/3/62
f 6/1/65 62/1/66 63/1/67 7/1/65
f 15/3/68 71/3/69 70/8/70 14/8/68
f 7/1/71 63/1/72 64/1/73 8/1/71
f 16/3/74 72/3/75 71/3/76 15/3/74
f 8/1/77 64/1/78 57/1/79 1/2/77
f 9/3/8 65/3/80 72/3/81 16/3/8
f 18/5/35 74/5/82 73/5/83 17/5/35
f 58/5/84 57/5/85 73/5/86 74/5/87
f 25/3/38 81/3/88 82/3/89 26/3/38
f 66/3/90 82/3/91 81/3/92 65/3/93
f 19/6/41 75/4/94 74/4/95 18/4/41
f 26/3/44 82/3/96 83/3/97 27/3/44
f 20/5/47 76/5/98 75/5/99 19/7/47
f 59/7/100 75/5/101 76/5/102 60/5/103
f 28/3/50 27/3/50 83/3/104 84/3/105
f 68/3/106 84/3/107 83/3/108 67/3/109
f 21/1/53 77/1/110 76/1/111 20/1/53
f 28/3/56 84/3/112 85/3/113 29/3/56
f 22/1/59 78/1/114 77/1/115 21/1/59
f 62/1/116 61/1/117 77/1/118 78/1/119
f 29/3/62 85/3/120 86/3/121 30/3/62
f 70/3/122 86/3/123 85/3/124 69/3/125
f 23/1/65 79/1/126 78/1/127 22/1/65
f 30/3/68 86/8/128 87/3/129 31/3/68
f 24/1/71 80/1/130 79/1/131 23/1/71
f 63/1/132 79/1/133 80/1/134 64/1/135
f 31/3/74 87/3/136 88/3/137 32/3/74
f 72/3/138 88/3/139 87/3/140 71/3/141
f 17/1/77 73/1/142 80/1/143 24/1/77
f 76/1/144 77/1/145 85/1/146 84/1/147
f 88/3/18 80/3/148 73/3/149 81/3/150
f 88/3/151 72/3/152 64/3/153 80/3/154
f 65/3/155 81/3/156 73/3/157 57/3/158
f 82/3/159 66/3/160 58/3/161 74/8/162
f 67/3/163 83/3/164 75/3/165 59/3/166
f 68/3/167 60/3/168 76/3/169 84/3/170
f 77/3/171 61/3/172 69/3/173 85/3/174
f 62/3/175 78/3/176 86/3/177 70/3/178
f 71/3/179 87/3/180 79/3/181 63/3/182
