# Created by Metasequoia

mtllib STR-SG_Ammo.mtl

v 42.816040 0.785913 55.187485
v 42.816040 1.892824 55.362804
v 21.012421 1.892824 55.362804
v 21.012421 0.785913 55.187485
v 42.816040 2.891375 55.871593
v 21.012421 2.891375 55.871593
v 42.816040 3.683836 56.664055
v 21.012421 3.683836 56.664051
v 42.816040 4.192621 57.662613
v 21.012421 4.192621 57.662605
v 42.816040 4.367936 58.769516
v 21.012421 4.367936 58.769516
v 42.816040 4.192621 59.876427
v 21.012421 4.192621 59.876419
v 42.816040 3.683832 60.874973
v 21.012421 3.683832 60.874973
v 42.816040 2.891375 61.667427
v 21.012421 2.891375 61.667427
v 42.816040 1.892820 62.176220
v 21.012421 1.892820 62.176212
v 42.816040 0.785913 62.351536
v 21.012421 0.785913 62.351528
v 42.816040 -0.320992 62.176220
v 21.012421 -0.320992 62.176212
v 42.816040 -1.319545 61.667427
v 21.012421 -1.319545 61.667427
v 42.816040 -2.111996 60.874973
v 21.012421 -2.111996 60.874973
v 42.816040 -2.620799 59.876427
v 21.012421 -2.620799 59.876419
v 42.816040 -2.796103 58.769516
v 21.012421 -2.796103 58.769516
v 42.816040 -2.620799 57.662613
v 21.012421 -2.620799 57.662605
v 42.816040 -2.111996 56.664055
v 21.012421 -2.111996 56.664051
v 42.816040 -1.319545 55.871593
v 21.012421 -1.319545 55.871593
v 42.816040 -0.320992 55.362804
v 21.012421 -0.320992 55.362804
v 42.816040 0.785913 55.607777
v 42.816040 1.762943 55.762524
v 42.816040 2.644343 56.211609
v 42.816040 3.343817 56.911095
v 42.816040 3.792913 57.792480
v 42.816040 3.947657 58.769516
v 42.816040 3.792910 59.746548
v 42.816040 3.343817 60.627937
v 42.816040 2.644341 61.327419
v 42.816040 1.762951 61.776505
v 42.816040 0.785913 61.931248
v 42.816040 -0.191114 61.776505
v 42.816040 -1.072503 61.327419
v 42.816040 -1.771991 60.627937
v 42.816040 -2.221073 59.746548
v 42.816040 -2.375823 58.769516
v 42.816040 -2.221073 57.792480
v 42.816040 -1.771984 56.911095
v 42.816040 -1.072503 56.211609
v 42.816040 -0.191114 55.762524
v 42.597099 -1.072503 56.211609
v 42.597099 -0.191114 55.762524
v 42.597099 -1.771984 56.911095
v 42.597099 -2.221073 57.792480
v 42.597099 -2.375823 58.769516
v 42.597099 -2.221073 59.746548
v 42.597099 -1.771991 60.627937
v 42.597099 -1.072503 61.327419
v 42.597099 -0.191114 61.776505
v 42.597099 0.785913 61.931248
v 42.597099 1.762951 61.776505
v 42.597099 2.644341 61.327419
v 42.597099 3.343817 60.627937
v 42.597099 3.792910 59.746548
v 42.597099 3.947657 58.769516
v 42.597099 3.792913 57.792480
v 42.597099 3.343817 56.911095
v 42.597099 2.644343 56.211609
v 42.597099 1.762943 55.762524
v 42.597099 0.785913 55.607777
v 21.012421 1.942779 55.209057
v 21.012421 0.785913 55.025826
v 20.653687 1.942785 55.209011
v 20.653687 0.785913 55.025780
v 20.647507 0.785913 58.769516
v 21.012421 2.986401 55.740803
v 20.653687 2.986424 55.740765
v 21.012421 3.814623 56.569031
v 20.653687 3.814654 56.569008
v 21.012421 4.346367 57.612648
v 20.653687 4.346416 57.612633
v 21.012421 4.529605 58.769516
v 20.653687 4.529644 58.769516
v 21.012421 4.346367 59.926376
v 20.653687 4.346416 59.926388
v 21.012421 3.814623 60.969994
v 20.653687 3.814654 60.970013
v 21.012421 2.986397 61.798210
v 20.653687 2.986424 61.798252
v 21.012421 1.942779 62.329971
v 20.653687 1.942785 62.330013
v 21.012421 0.785913 62.513195
v 20.653687 0.785913 62.513233
v 21.012421 -0.370949 62.329971
v 20.653687 -0.370963 62.330013
v 21.012421 -1.414567 61.798210
v 20.653687 -1.414602 61.798252
v 21.012421 -2.242790 60.969994
v 20.653687 -2.242831 60.970013
v 21.012421 -2.774546 59.926376
v 20.653687 -2.774584 59.926388
v 21.012421 -2.957772 58.769516
v 20.653687 -2.957817 58.769516
v 21.012421 -2.774546 57.612648
v 20.653687 -2.774584 57.612633
v 21.012421 -2.242790 56.569031
v 20.653687 -2.242831 56.569008
v 21.012421 -1.414567 55.740803
v 20.653687 -1.414598 55.740765
v 21.012421 -0.370949 55.209057
v 20.653687 -0.370963 55.209011
# 121 vertices

vt 0.78894 0.00488
vt 0.78192 0.00488
vt 0.78192 0.17370
vt 0.78894 0.17370
vt 0.77682 0.00488
vt 0.77682 0.17370
vt 0.67163 0.23725
vt 0.67163 0.23044
vt 0.50781 0.23044
vt 0.50781 0.23725
vt 0.67163 0.22243
vt 0.50781 0.22243
vt 0.67163 0.21401
vt 0.50781 0.21401
vt 0.67163 0.20600
vt 0.50781 0.20600
vt 0.67163 0.19919
vt 0.50781 0.19919
vt 0.86896 0.00488
vt 0.86215 0.00488
vt 0.86215 0.16870
vt 0.86896 0.16870
vt 0.85414 0.00488
vt 0.85414 0.16870
vt 0.84572 0.00488
vt 0.84572 0.16870
vt 0.83772 0.00488
vt 0.83772 0.16870
vt 0.83090 0.00488
vt 0.83090 0.16870
vt 0.90957 0.00488
vt 0.90167 0.00488
vt 0.90167 0.16659
vt 0.90957 0.16659
vt 0.89336 0.00488
vt 0.89336 0.16659
vt 0.88545 0.00488
vt 0.88545 0.16659
vt 0.87873 0.00488
vt 0.87873 0.16659
vt 0.82114 0.00488
vt 0.81412 0.00488
vt 0.81412 0.17370
vt 0.82114 0.17370
vt 0.80586 0.00488
vt 0.80586 0.17370
vt 0.79719 0.00488
vt 0.79719 0.17370
vt 0.69337 0.19778
vt 0.69909 0.19363
vt 0.69773 0.19095
vt 0.69125 0.19566
vt 0.70581 0.19144
vt 0.70534 0.18848
vt 0.71288 0.19144
vt 0.71335 0.18848
vt 0.71960 0.19363
vt 0.72096 0.19095
vt 0.72531 0.19778
vt 0.72744 0.19566
vt 0.72947 0.20350
vt 0.73214 0.20214
vt 0.73165 0.21022
vt 0.73462 0.20975
vt 0.73165 0.21729
vt 0.73462 0.21776
vt 0.72947 0.22401
vt 0.73214 0.22537
vt 0.72531 0.22973
vt 0.72744 0.23185
vt 0.71960 0.23388
vt 0.72096 0.23655
vt 0.71288 0.23606
vt 0.71334 0.23903
vt 0.70581 0.23606
vt 0.70534 0.23903
vt 0.69909 0.23388
vt 0.69772 0.23655
vt 0.69337 0.22973
vt 0.69125 0.23185
vt 0.68922 0.22401
vt 0.68654 0.22537
vt 0.68703 0.21729
vt 0.68407 0.21776
vt 0.68703 0.21022
vt 0.68407 0.20975
vt 0.68922 0.20350
vt 0.68654 0.20214
vt 0.97984 0.19855
vt 0.97984 0.19148
vt 0.97820 0.19148
vt 0.97820 0.19855
vt 0.97984 0.20456
vt 0.97820 0.20456
vt 0.97989 0.12827
vt 0.97989 0.12208
vt 0.97820 0.12208
vt 0.97820 0.12827
vt 0.97989 0.13556
vt 0.97820 0.13556
vt 0.97989 0.14322
vt 0.97820 0.14322
vt 0.97989 0.15050
vt 0.97820 0.15050
vt 0.97989 0.15670
vt 0.97820 0.15670
vt 0.97989 0.16120
vt 0.97820 0.16120
vt 0.92271 0.17764
vt 0.92271 0.17162
vt 0.92107 0.17162
vt 0.92107 0.17764
vt 0.92271 0.18471
vt 0.92107 0.18471
vt 0.92271 0.19214
vt 0.92107 0.19214
vt 0.92271 0.19920
vt 0.92107 0.19920
vt 0.92271 0.20522
vt 0.92107 0.20522
vt 0.94610 0.15090
vt 0.94610 0.15684
vt 0.94772 0.15684
vt 0.94772 0.15090
vt 0.94610 0.14393
vt 0.94772 0.14393
vt 0.94610 0.13659
vt 0.94772 0.13659
vt 0.94610 0.12961
vt 0.94772 0.12961
vt 0.97984 0.17698
vt 0.97984 0.17097
vt 0.97820 0.17097
vt 0.97820 0.17698
vt 0.97984 0.18405
vt 0.97820 0.18405
vt 0.92152 0.08728
vt 0.91934 0.09400
vt 0.91934 0.10107
vt 0.92152 0.10779
vt 0.92568 0.11351
vt 0.93139 0.11766
vt 0.93812 0.11985
vt 0.94518 0.11985
vt 0.95190 0.11766
vt 0.95762 0.11351
vt 0.96177 0.10779
vt 0.96396 0.10107
vt 0.96396 0.09400
vt 0.96177 0.08728
vt 0.95762 0.08157
vt 0.95190 0.07741
vt 0.94518 0.07523
vt 0.93812 0.07523
vt 0.93139 0.07741
vt 0.92568 0.08157
vt 0.74748 0.22554
vt 0.75239 0.23231
vt 0.75321 0.23149
vt 0.74851 0.22501
vt 0.98632 0.01021
vt 0.98632 0.01755
vt 0.98909 0.01755
vt 0.98909 0.01021
vt 0.84227 0.20546
vt 0.86118 0.18655
vt 0.85441 0.18163
vt 0.74489 0.21758
vt 0.74603 0.21740
vt 0.98632 0.00488
vt 0.98909 0.00488
vt 0.84645 0.17905
vt 0.74489 0.20921
vt 0.74603 0.20939
vt 0.96843 0.12920
vt 0.96843 0.12208
vt 0.96574 0.12208
vt 0.96574 0.12920
vt 0.83808 0.17905
vt 0.74748 0.20126
vt 0.74851 0.20178
vt 0.96843 0.13757
vt 0.96574 0.13757
vt 0.83012 0.18163
vt 0.75239 0.19449
vt 0.75321 0.19530
vt 0.96843 0.14637
vt 0.96574 0.14637
vt 0.82336 0.18655
vt 0.75916 0.18957
vt 0.75969 0.19060
vt 0.96843 0.15474
vt 0.96574 0.15474
vt 0.81844 0.19332
vt 0.76712 0.18698
vt 0.76730 0.18812
vt 0.96843 0.16186
vt 0.96574 0.16186
vt 0.81585 0.20128
vt 0.77549 0.18698
vt 0.77531 0.18812
vt 0.98074 0.07965
vt 0.98074 0.07253
vt 0.97804 0.07253
vt 0.97804 0.07965
vt 0.81585 0.20964
vt 0.78345 0.18957
vt 0.78292 0.19060
vt 0.98074 0.08802
vt 0.97804 0.08802
vt 0.81844 0.21760
vt 0.79022 0.19449
vt 0.78940 0.19530
vt 0.98074 0.09682
vt 0.97804 0.09682
vt 0.82336 0.22437
vt 0.79513 0.20126
vt 0.79410 0.20178
vt 0.98074 0.10519
vt 0.97804 0.10519
vt 0.83012 0.22929
vt 0.79772 0.20921
vt 0.79658 0.20939
vt 0.98074 0.11231
vt 0.97804 0.11231
vt 0.83808 0.23188
vt 0.79772 0.21758
vt 0.79658 0.21740
vt 0.91934 0.15280
vt 0.91934 0.16106
vt 0.92200 0.16106
vt 0.92200 0.15280
vt 0.84645 0.23188
vt 0.79513 0.22554
vt 0.79410 0.22501
vt 0.91934 0.14411
vt 0.92200 0.14411
vt 0.85441 0.22929
vt 0.79022 0.23231
vt 0.78940 0.23149
vt 0.91934 0.13585
vt 0.92200 0.13585
vt 0.86118 0.22437
vt 0.78345 0.23722
vt 0.78292 0.23620
vt 0.91934 0.12882
vt 0.92200 0.12882
vt 0.86610 0.21760
vt 0.77549 0.23981
vt 0.77531 0.23867
vt 0.98632 0.04387
vt 0.98632 0.05120
vt 0.98909 0.05120
vt 0.98909 0.04387
vt 0.86868 0.20964
vt 0.76712 0.23981
vt 0.76730 0.23867
vt 0.98632 0.03524
vt 0.98909 0.03524
vt 0.86868 0.20128
vt 0.75916 0.23722
vt 0.75969 0.23620
vt 0.98632 0.02618
vt 0.98909 0.02618
vt 0.86610 0.19332
# 265 texture vertices

vn 0.00000 -0.00000 -1.00000
vn 0.00000 0.30902 -0.95106
vn 0.00000 0.58779 -0.80902
vn 0.00000 0.80902 -0.58778
vn 0.00000 0.95106 -0.30901
vn 0.00000 1.00000 0.00000
vn -0.00000 0.95106 0.30902
vn -0.00000 0.80902 0.58779
vn -0.00000 0.58778 0.80902
vn -0.00000 0.30902 0.95106
vn -0.00000 -0.00000 1.00000
vn -0.00000 -0.30902 0.95106
vn -0.00000 -0.58779 0.80902
vn -0.00000 -0.80901 0.58779
vn -0.00000 -0.95106 0.30902
vn 0.00000 -1.00000 0.00000
vn 0.00000 -0.95106 -0.30902
vn 0.00000 -0.80902 -0.58779
vn 0.00000 -0.58779 -0.80902
vn 0.00000 -0.30902 -0.95106
vn 1.00000 0.00000 0.00000
vn 0.00000 0.58778 0.80902
vn 0.00000 0.30902 0.95106
vn 0.00000 0.80902 0.58778
vn 0.00000 0.95106 0.30902
vn 0.00000 1.00000 -0.00000
vn 0.00000 0.95106 -0.30901
vn 0.00000 0.80902 -0.58778
vn 0.00000 0.58778 -0.80902
vn 0.00000 0.30901 -0.95106
vn 0.00000 0.00000 -1.00000
vn 0.00000 -0.30901 -0.95106
vn 0.00000 -0.58779 -0.80902
vn 0.00000 -0.80902 -0.58778
vn 0.00000 -0.95106 -0.30902
vn 0.00000 -1.00000 -0.00000
vn 0.00000 -0.95106 0.30902
vn 0.00000 -0.80902 0.58778
vn 0.00000 -0.58778 0.80902
vn 0.00000 -0.30901 0.95106
vn 0.00000 0.00000 1.00000
vn 0.00013 0.30902 -0.95106
vn 0.00013 0.00000 -1.00000
vn -1.00000 -0.00000 0.00000
vn 0.00012 0.58779 -0.80902
vn 0.00012 0.80902 -0.58778
vn 0.00013 0.95106 -0.30902
vn 0.00013 1.00000 0.00000
vn 0.00012 0.95106 0.30902
vn 0.00012 0.80902 0.58779
vn 0.00012 0.58779 0.80902
vn 0.00012 0.30902 0.95106
vn 0.00011 0.00000 1.00000
vn 0.00013 -0.30902 0.95106
vn 0.00014 -0.58779 0.80902
vn 0.00013 -0.80902 0.58779
vn 0.00012 -0.95106 0.30902
vn 0.00012 -1.00000 0.00000
vn 0.00012 -0.95106 -0.30902
vn 0.00013 -0.80902 -0.58778
vn 0.00013 -0.58779 -0.80902
vn 0.00013 -0.30902 -0.95106
vn 1.00000 -0.00000 0.00000
vn -1.00000 0.00000 -0.00165
vn -1.00000 0.00051 -0.00157
vn -1.00000 0.00097 -0.00134
vn -1.00000 0.00134 -0.00097
vn -1.00000 0.00157 -0.00051
vn -1.00000 0.00165 0.00000
vn -1.00000 0.00157 0.00051
vn -1.00000 0.00134 0.00097
vn -1.00000 0.00097 0.00134
vn -1.00000 0.00051 0.00157
vn -1.00000 0.00000 0.00165
vn -1.00000 -0.00051 0.00157
vn -1.00000 -0.00097 0.00134
vn -1.00000 -0.00134 0.00097
vn -1.00000 -0.00157 0.00051
vn -1.00000 -0.00165 0.00000
vn -1.00000 -0.00157 -0.00051
vn -1.00000 -0.00134 -0.00097
vn -1.00000 -0.00097 -0.00134
vn -1.00000 -0.00051 -0.00157
# 83 normal vertices

g obj2
usemtl mat5
f 4/4/1 3/3/2 2/2/2 1/1/1
f 3/3/2 6/6/3 5/5/3 2/2/2
f 6/10/3 8/9/4 7/8/4 5/7/3
f 8/9/4 10/12/5 9/11/5 7/8/4
f 10/12/5 12/14/6 11/13/6 9/11/5
f 12/14/6 14/16/7 13/15/7 11/13/6
f 14/16/7 16/18/8 15/17/8 13/15/7
f 16/22/8 18/21/9 17/20/9 15/19/8
f 18/21/9 20/24/10 19/23/10 17/20/9
f 20/24/10 22/26/11 21/25/11 19/23/10
f 22/26/11 24/28/12 23/27/12 21/25/11
f 24/28/12 26/30/13 25/29/13 23/27/12
f 26/34/13 28/33/14 27/32/14 25/31/13
f 28/33/14 30/36/15 29/35/15 27/32/14
f 30/36/15 32/38/16 31/37/16 29/35/15
f 32/38/16 34/40/17 33/39/17 31/37/16
f 34/44/17 36/43/18 35/42/18 33/41/17
f 36/43/18 38/46/19 37/45/19 35/42/18
f 38/46/19 40/48/20 39/47/20 37/45/19
f 40/48/20 4/4/1 1/1/1 39/47/20
f 1/52/21 2/51/21 42/50/21 41/49/21
f 2/51/21 5/54/21 43/53/21 42/50/21
f 5/54/21 7/56/21 44/55/21 43/53/21
f 7/56/21 9/58/21 45/57/21 44/55/21
f 9/58/21 11/60/21 46/59/21 45/57/21
f 11/60/21 13/62/21 47/61/21 46/59/21
f 13/62/21 15/64/21 48/63/21 47/61/21
f 15/64/21 17/66/21 49/65/21 48/63/21
f 17/66/21 19/68/21 50/67/21 49/65/21
f 19/68/21 21/70/21 51/69/21 50/67/21
f 21/70/21 23/72/21 52/71/21 51/69/21
f 23/72/21 25/74/21 53/73/21 52/71/21
f 25/74/21 27/76/21 54/75/21 53/73/21
f 27/76/21 29/78/21 55/77/21 54/75/21
f 29/78/21 31/80/21 56/79/21 55/77/21
f 31/80/21 33/82/21 57/81/21 56/79/21
f 33/82/21 35/84/21 58/83/21 57/81/21
f 35/84/21 37/86/21 59/85/21 58/83/21
f 37/86/21 39/88/21 60/87/21 59/85/21
f 39/88/21 1/52/21 41/49/21 60/87/21
f 59/92/22 60/91/23 62/90/23 61/89/22
f 58/94/24 59/92/22 61/89/22 63/93/24
f 57/98/25 58/97/24 63/96/24 64/95/25
f 56/100/26 57/98/25 64/95/25 65/99/26
f 55/102/27 56/100/26 65/99/26 66/101/27
f 54/104/28 55/102/27 66/101/27 67/103/28
f 53/106/29 54/104/28 67/103/28 68/105/29
f 52/108/30 53/106/29 68/105/29 69/107/30
f 51/112/31 52/111/30 69/110/30 70/109/31
f 50/114/32 51/112/31 70/109/31 71/113/32
f 49/116/33 50/114/32 71/113/32 72/115/33
f 48/118/34 49/116/33 72/115/33 73/117/34
f 47/120/35 48/118/34 73/117/34 74/119/35
f 46/124/36 47/123/35 74/122/35 75/121/36
f 45/126/37 46/124/36 75/121/36 76/125/37
f 44/128/38 45/126/37 76/125/37 77/127/38
f 43/130/39 44/128/38 77/127/38 78/129/39
f 42/134/40 43/133/39 78/132/39 79/131/40
f 41/136/41 42/134/40 79/131/40 80/135/41
f 60/91/23 41/136/41 80/135/41 62/90/23
f 80/156/63 79/155/63 78/154/63 77/153/63 76/152/63 75/151/63 74/150/63 73/149/63 72/148/63 71/147/63 70/146/63 69/145/63 68/144/63 67/143/63 66/142/63 65/141/63 64/140/63 63/139/63 61/138/63 62/137/63
f 3/160/21 4/159/21 82/158/21 81/157/21
f 81/164/42 82/163/43 84/162/43 83/161/42
f 83/167/65 84/166/64 85/165/44
f 6/169/21 3/160/21 81/157/21 86/168/21
f 86/171/45 81/164/42 83/161/42 87/170/45
f 87/172/66 83/167/65 85/165/44
f 8/174/21 6/169/21 86/168/21 88/173/21
f 88/178/46 86/177/45 87/176/45 89/175/46
f 89/179/67 87/172/66 85/165/44
f 10/181/21 8/174/21 88/173/21 90/180/21
f 90/183/47 88/178/46 89/175/46 91/182/47
f 91/184/68 89/179/67 85/165/44
f 12/186/21 10/181/21 90/180/21 92/185/21
f 92/188/48 90/183/47 91/182/47 93/187/48
f 93/189/69 91/184/68 85/165/44
f 14/191/21 12/186/21 92/185/21 94/190/21
f 94/193/49 92/188/48 93/187/48 95/192/49
f 95/194/70 93/189/69 85/165/44
f 16/196/21 14/191/21 94/190/21 96/195/21
f 96/198/50 94/193/49 95/192/49 97/197/50
f 97/199/71 95/194/70 85/165/44
f 18/201/21 16/196/21 96/195/21 98/200/21
f 98/205/51 96/204/50 97/203/50 99/202/51
f 99/206/72 97/199/71 85/165/44
f 20/208/21 18/201/21 98/200/21 100/207/21
f 100/210/52 98/205/51 99/202/51 101/209/52
f 101/211/73 99/206/72 85/165/44
f 22/213/21 20/208/21 100/207/21 102/212/21
f 102/215/53 100/210/52 101/209/52 103/214/53
f 103/216/74 101/211/73 85/165/44
f 24/218/21 22/213/21 102/212/21 104/217/21
f 104/220/54 102/215/53 103/214/53 105/219/54
f 105/221/75 103/216/74 85/165/44
f 26/223/21 24/218/21 104/217/21 106/222/21
f 106/225/55 104/220/54 105/219/54 107/224/55
f 107/226/76 105/221/75 85/165/44
f 28/228/21 26/223/21 106/222/21 108/227/21
f 108/232/56 106/231/55 107/230/55 109/229/56
f 109/233/77 107/226/76 85/165/44
f 30/235/21 28/228/21 108/227/21 110/234/21
f 110/237/57 108/232/56 109/229/56 111/236/57
f 111/238/78 109/233/77 85/165/44
f 32/240/21 30/235/21 110/234/21 112/239/21
f 112/242/58 110/237/57 111/236/57 113/241/58
f 113/243/79 111/238/78 85/165/44
f 34/245/21 32/240/21 112/239/21 114/244/21
f 114/247/59 112/242/58 113/241/58 115/246/59
f 115/248/80 113/243/79 85/165/44
f 36/250/21 34/245/21 114/244/21 116/249/21
f 116/254/60 114/253/59 115/252/59 117/251/60
f 117/255/81 115/248/80 85/165/44
f 38/257/21 36/250/21 116/249/21 118/256/21
f 118/259/61 116/254/60 117/251/60 119/258/61
f 119/260/82 117/255/81 85/165/44
f 40/262/21 38/257/21 118/256/21 120/261/21
f 120/264/62 118/259/61 119/258/61 121/263/62
f 121/265/83 119/260/82 85/165/44
f 4/159/21 40/262/21 120/261/21 82/158/21
f 82/163/43 120/264/62 121/263/62 84/162/43
f 84/166/64 121/265/83 85/165/44
# 121 elements

