# Created by Metasequoia

v 32.549805 2.038714 33.874054
v 48.051193 2.038714 33.840836
v 32.549805 2.766724 32.179024
v 33.613235 2.916178 30.218269
v 32.549805 2.922441 30.218269
v 75.063828 3.836384 -0.256850
v 75.778481 -4.324570 -0.988103
v 75.063828 -3.853034 -0.256850
v 75.977768 3.827945 -1.885449
v 75.977768 -3.844596 -1.885449
v 75.778481 4.307935 -0.988103
v 73.319260 3.836382 30.218269
v 54.242966 3.836382 30.218269
v 50.122185 3.400239 32.179024
v 33.206215 3.836382 30.218269
v 33.147942 2.291100 34.139759
v 33.147942 3.400239 32.179024
v 47.687729 2.291100 34.139759
v 32.549805 -2.783376 32.179024
v 48.051193 -2.055368 33.840836
v 32.549805 -2.055368 33.874054
v 33.613235 -2.932830 30.218269
v 32.549805 -2.939093 30.218269
v 54.242966 -3.853035 30.218269
v 73.319260 -3.853035 30.218269
v 33.206215 -3.853035 30.218269
v 50.122185 -3.416893 32.179024
v 33.147942 -2.307752 34.139759
v 47.687729 -2.307752 34.139759
v 33.147942 -3.416893 32.179024
v 33.613235 1.444663 30.218269
v 33.796165 1.441401 27.277157
v 32.707726 1.439502 27.210739
v 32.549805 1.444663 30.218269
v 34.095100 2.916178 21.793510
v 34.095100 -2.932829 21.793510
v 33.796165 -1.458055 27.277157
v 72.804153 2.687760 23.903976
v 72.804153 -2.704414 23.903976
v 50.122185 2.523605 32.179024
v 54.242966 2.687760 30.218269
v 33.613235 -1.461333 30.218269
v 32.549805 -1.461333 30.218269
v 32.707726 -1.456157 27.210739
v 72.388695 2.687760 27.426630
v 72.388695 -2.704414 27.426630
v 73.319260 2.687760 30.218269
v 73.485321 2.687760 27.426630
v 73.485321 -2.704414 27.426630
v 73.319260 -2.704414 30.218269
v 35.457718 3.836384 -10.991661
v 35.457718 -3.853034 -10.991661
v 34.809753 2.922443 -11.124516
v 34.809753 -2.939092 -11.124516
v 33.081528 2.027290 20.480991
v 33.081528 -2.043945 20.480991
v 35.599014 4.106456 -9.994678
v 35.366249 3.836384 -9.196995
v 32.533195 1.883809 20.912769
v 32.533195 -1.900462 20.912769
v 32.234001 -1.900462 26.379818
v 32.732491 -2.043945 26.861706
v 32.732491 2.027290 26.861706
v 32.234001 1.883809 26.379818
v 50.122185 -2.540258 32.179024
v 54.242966 -2.704414 30.218269
v 35.366249 -3.853034 -9.196995
v 35.599014 -4.123106 -9.994678
# 68 vertices

vt -0.25220 0.64136
vt -0.25049 0.67749
vt -0.24902 0.64111
vt -0.24548 0.64331
vt -0.24561 0.64087
vt -0.08014 0.37060
vt -0.05170 0.37500
vt -0.05252 0.37060
vt -0.07910 0.37842
vt -0.05362 0.37842
vt -0.08099 0.37451
vt -0.19104 0.64014
vt -0.13696 0.64429
vt -0.19251 0.52368
vt -0.12537 0.65283
vt -0.07727 0.64771
vt -0.07770 0.66357
vt -0.07739 0.65503
vt -0.11865 0.66162
vt -0.11981 0.66284
vt -0.07605 0.66479
vt -0.22791 0.62378
vt -0.22791 0.63061
vt -0.22607 0.63061
vt -0.22607 0.62353
vt -0.22791 0.62134
vt -0.23059 0.62134
vt -0.23059 0.62378
vt -0.23059 0.64331
vt -0.22021 0.64331
vt -0.22278 0.63061
vt -0.23010 0.73340
vt -0.22058 0.73340
vt -0.24719 0.68189
vt -0.24329 0.69116
vt -0.22021 0.62378
vt -0.22278 0.62378
vt -0.22473 0.62353
vt -0.22473 0.63061
vt -0.23645 0.73291
vt -0.23010 0.74170
vt -0.22058 0.74170
vt -0.24121 0.73560
vt -0.23633 0.73535
vt -0.22021 0.62134
vt -0.22278 0.62134
vt -0.23010 0.74414
vt -0.22058 0.74414
vt -0.05521 0.25977
vt -0.07672 0.25928
vt -0.05042 0.24854
vt -0.05505 0.24854
vt -0.07678 0.48682
vt -0.05450 0.48682
vt -0.07452 0.48877
vt -0.05563 0.48877
vt -0.07092 0.61035
vt -0.05524 0.61035
vt -0.07770 0.49121
vt -0.07739 0.49463
vt -0.07410 0.64771
vt -0.19421 0.51489
vt -0.19470 0.51953
vt -0.06946 0.61255
vt -0.05661 0.61255
vt -0.05603 0.63281
vt -0.05447 0.63477
vt -0.07086 0.63477
vt -0.06940 0.63281
vt -0.05679 0.63623
vt -0.05643 0.64771
vt -0.05063 0.64771
vt -0.06848 0.63623
vt -0.06854 0.64771
vt -0.06854 0.64063
vt -0.05676 0.64063
vt -0.19128 0.64453
vt -0.13733 0.64868
vt -0.12646 0.65601
vt -0.07483 0.65625
vt -0.08148 0.24805
vt -0.07678 0.24854
# 82 texture vertices

vn -0.00085 -0.91884 -0.39464
vn -0.00733 -0.95676 -0.29079
vn -0.00688 -0.97523 -0.22110
vn -0.00839 -0.99520 -0.09747
vn -0.00587 -0.99684 -0.07917
vn 0.94082 0.00147 0.33891
vn 0.80406 0.00146 0.59454
vn 0.95777 -0.00096 0.28754
vn 0.97622 0.00000 0.21680
vn 0.93624 0.00146 0.35135
vn 0.00000 1.00000 0.00000
vn -0.00000 0.99735 0.07276
vn 0.00357 0.95969 0.28103
vn -0.35224 0.92632 0.13364
vn -0.30969 0.83970 0.44610
vn -0.36770 0.86308 0.34626
vn 0.00358 0.90778 0.41944
vn -0.00688 0.97523 -0.22110
vn -0.00733 0.95676 -0.29078
vn -0.00085 0.91884 -0.39464
vn -0.00839 0.99520 -0.09747
vn -0.00587 0.99684 -0.07917
vn 0.00000 -0.99735 0.07276
vn -0.00000 -1.00000 -0.00000
vn -0.35224 -0.92632 0.13364
vn 0.00357 -0.95969 0.28103
vn -0.30969 -0.83970 0.44610
vn 0.00358 -0.90778 0.41944
vn -0.36770 -0.86308 0.34626
vn 0.00084 -1.00000 0.00146
vn 0.99837 0.00249 0.05701
vn 0.99837 -0.00249 0.05701
vn -0.05444 0.00000 0.99852
vn -0.00965 -0.99425 -0.10664
vn -0.00269 -0.99992 -0.01225
vn 0.99821 -0.00498 0.05959
vn 0.00082 1.00000 0.00146
vn -0.00127 -0.99999 -0.00374
vn -0.99312 0.00000 -0.11713
vn 0.00000 -1.00000 0.00000
vn 0.00000 0.00000 1.00000
vn 0.99830 -0.00272 0.05827
vn 0.21007 0.00000 -0.97769
vn 0.20086 0.00000 -0.97962
vn -0.94616 0.00030 -0.32370
vn -0.94616 -0.00030 -0.32370
vn -0.50519 0.84143 0.19179
vn -0.48335 0.87138 0.08409
vn -0.88736 0.00000 -0.46108
vn -0.26371 -0.96449 -0.01443
vn -0.26371 0.96450 -0.01443
vn -0.00965 0.99425 -0.10664
vn -0.00269 0.99992 -0.01225
vn -0.48335 -0.87138 0.08408
vn -0.50519 -0.84143 0.19179
vn -0.03000 0.99103 0.13023
vn 0.00000 -0.76408 0.64512
vn 0.23647 -0.56208 0.79256
vn 0.00074 -0.74568 0.66630
vn 0.00147 -0.72670 0.68696
vn -0.03000 -0.99103 0.13023
vn 0.00000 0.76408 0.64512
vn 0.00074 0.74568 0.66630
vn 0.23647 0.56208 0.79256
vn 0.00147 0.72670 0.68695
vn -0.00403 -0.99982 -0.01837
vn -0.00254 -0.99997 -0.00747
vn 0.99834 -0.00136 0.05760
vn 0.99834 0.00136 0.05760
vn 0.21926 0.00000 -0.97567
vn -0.95055 0.30632 -0.05124
vn -0.95055 -0.30632 -0.05124
vn -0.81259 0.58135 -0.04159
vn -0.94595 0.32373 -0.01945
vn 0.07923 0.92856 -0.36264
vn -0.00494 0.99992 0.01136
vn -0.93094 0.00000 0.36518
vn -0.99803 -0.00211 -0.06265
vn -0.99850 -0.00423 -0.05452
vn -0.94595 -0.32373 -0.01945
vn -0.98949 -0.00136 0.14458
vn -0.98949 0.00136 0.14458
vn -0.99803 0.00211 -0.06265
vn -0.99850 0.00423 -0.05452
vn -0.06091 0.00000 0.99814
vn 0.22024 0.00000 0.97545
vn 0.53257 -0.00289 0.84638
vn -0.68892 0.69031 0.22106
vn 0.62813 -0.00574 0.77809
vn -0.58872 0.72588 0.35567
vn -0.00403 0.99982 -0.01837
vn -0.00254 0.99997 -0.00747
vn -0.00127 0.99999 -0.00374
vn 0.00000 1.00000 0.00000
vn -0.81259 -0.58135 -0.04159
vn 0.07923 -0.92856 -0.36263
vn -0.00494 -0.99992 0.01136
vn -0.68892 -0.69031 0.22106
vn 0.53257 0.00289 0.84638
vn 0.22024 0.00000 0.97545
vn -0.58872 -0.72588 0.35567
vn 0.62813 0.00574 0.77809
vn 0.99821 0.00498 0.05959
vn 0.99830 0.00272 0.05827
# 104 normal vertices

f 3/3/3 2/2/2 1/1/1
f 5/5/5 4/4/4 3/3/3
f 8/8/8 7/7/7 6/6/6
f 11/11/10 10/10/10 9/9/9
f 6/14/56 13/13/12 12/12/11
f 13/13/12 15/16/14 14/15/13
f 18/19/17 17/18/16 16/17/15
f 16/17/59 2/20/58 18/19/57
f 1/21/60 2/20/58 16/17/59
f 21/1/20 20/2/19 19/3/18
f 23/5/22 19/3/18 22/4/21
f 25/12/24 24/13/23 8/14/61
f 24/13/23 27/15/26 26/16/25
f 30/18/29 29/19/28 28/17/27
f 20/20/64 28/17/63 29/19/62
f 21/21/65 28/17/63 20/20/64
f 34/25/30 33/24/30 32/23/30 31/22/30
f 31/22/41 4/28/41 5/27/41 34/26/41
f 32/23/31 37/31/32 36/30/32 35/29/31
f 35/29/33 36/30/33 39/33/33 38/32/33
f 35/29/66 41/35/35 40/34/34 4/4/4
f 36/30/32 37/31/32 42/37/36 22/36/36
f 37/31/37 44/39/37 43/38/37 42/37/37
f 45/40/38 41/35/35 35/29/66 38/32/67
f 38/32/39 39/33/39 46/42/39 45/41/39
f 41/35/35 45/40/38 48/44/40 47/43/40
f 42/37/41 43/46/41 23/45/41 22/36/41
f 45/41/41 46/42/41 49/48/41 48/47/41
f 2/2/2 3/3/3 4/4/4 40/34/34
f 6/6/6 48/50/69 49/49/68 8/8/8
f 6/6/6 7/7/7 10/10/10 11/11/10
f 8/8/8 49/49/68 50/52/42 25/51/42
f 9/9/70 10/10/70 52/54/43 51/53/43
f 51/53/43 52/54/43 54/56/44 53/55/44
f 54/56/72 56/58/46 55/57/45 53/55/71
f 53/55/71 58/60/48 57/59/47 51/53/73
f 53/55/71 5/61/74 15/16/14 58/60/48
f 51/53/75 57/59/75 11/63/76 9/62/75
f 56/58/46 60/65/49 59/64/49 55/57/45
f 62/67/50 61/66/50 60/65/50 56/58/50
f 55/57/51 59/64/51 64/69/51 63/68/51
f 60/65/49 61/66/77 64/69/77 59/64/49
f 62/67/81 23/72/80 43/71/79 44/70/78
f 63/68/82 64/69/77 61/66/77 62/67/81
f 58/60/48 6/14/56 11/63/76 57/59/47
f 33/73/83 63/68/82 62/67/81 44/70/78
f 63/68/82 33/73/83 34/74/84 5/61/74
f 33/73/85 44/70/85 37/76/85 32/75/85
f 6/14/56 58/60/48 15/16/14 13/13/12
f 12/12/41 13/13/86 41/78/86 47/77/41
f 13/13/86 14/15/87 40/79/87 41/78/86
f 15/16/14 5/61/74 3/80/88 17/18/16
f 15/16/14 17/18/16 18/19/17 14/15/13
f 40/79/87 14/15/87 18/19/89 2/20/58
f 17/18/16 3/80/88 1/21/90 16/17/15
f 20/2/19 65/34/52 22/4/21 19/3/18
f 65/34/52 66/35/53 36/29/91 22/4/21
f 36/29/91 66/35/53 46/40/93 39/32/92
f 66/35/53 50/43/94 49/44/94 46/40/93
f 54/55/72 52/53/95 68/59/55 67/60/54
f 54/55/72 67/60/54 26/16/25 23/61/80
f 52/53/96 10/62/96 7/63/97 68/59/96
f 67/60/54 68/59/55 7/63/97 8/14/61
f 8/14/61 24/13/23 26/16/25 67/60/54
f 26/16/25 30/18/29 19/80/98 23/61/80
f 26/16/25 27/15/26 29/19/28 30/18/29
f 24/13/100 66/78/100 65/79/99 27/15/99
f 66/78/100 24/13/100 25/12/41 50/77/41
f 30/18/29 28/17/27 21/21/101 19/80/98
f 29/19/102 27/15/99 65/79/99 20/20/64
f 31/22/103 32/23/31 35/29/31 4/28/103
f 47/82/104 48/50/69 6/6/6 12/81/104
f 54/56/72 23/72/80 62/67/81 56/58/46
f 53/55/71 55/57/45 63/68/82 5/61/74
# 74 elements

