# Created by Metasequoia

v 2.193183 -0.137411 0.599082
v 2.193183 -0.137411 -0.119846
v 2.193183 0.137411 0.599082
v 2.193183 0.137411 -0.119846
v 0.882702 0.137411 0.599083
v 0.882702 0.137411 -0.260692
v 0.882702 -0.137411 0.599082
v 0.882702 -0.137411 -0.260692
# 8 vertices

vt 0.04880 0.93331
vt 0.06974 0.93331
vt 0.06974 0.87854
vt 0.04880 0.87854
vt 0.16957 0.93331
vt 0.16957 0.86781
vt 0.19050 0.93331
vt 0.19050 0.86781
vt 0.16957 0.95424
vt 0.06974 0.95424
vt 0.06974 0.84687
vt 0.06974 0.86781
vt 0.16957 0.84687
# 13 texture vertices

vn 1.00000 0.00000 0.00000
vn 0.00000 1.00000 0.00000
vn -1.00000 0.00000 0.00000
vn -0.00000 -1.00000 -0.00000
vn 0.00000 -0.00000 1.00000
vn 0.10686 0.00000 -0.99427
# 6 normal vertices

g obj1
f 2/4/1 4/3/1 3/2/1 1/1/1
f 4/3/2 6/6/2 5/5/2 3/2/2
f 6/6/3 8/8/3 7/7/3 5/5/3
f 8/6/4 2/3/4 1/2/4 7/5/4
f 1/10/5 3/2/5 5/5/5 7/9/5
f 8/13/6 6/6/6 4/12/6 2/11/6
# 6 elements

