# Created by Metasequoia

v 56.885124 6.657300 56.659973
v 11.272537 6.657300 56.659973
v 56.885124 6.657301 48.155273
v 11.272537 6.657301 48.155273
v 56.885124 30.123384 56.659973
v 11.272537 30.123384 56.659973
v 56.885124 30.123384 48.155273
v 11.272537 30.123384 48.155273
v 47.149040 6.657300 56.659973
v 47.149040 6.657301 48.155273
v 47.149040 30.123384 56.659973
v 47.149040 30.123384 48.155273
v 42.903534 6.657300 56.659973
v 42.903534 6.657301 48.155273
v 42.903534 30.123384 56.659973
v 42.903534 30.123384 48.155273
v 47.149040 6.657300 56.159653
v 47.149040 6.657301 48.655579
v 47.149040 30.123384 56.159653
v 47.149040 30.123384 48.655579
v 42.903534 6.657300 56.159653
v 42.903534 6.657301 48.655579
v 42.903534 30.123384 56.159653
v 42.903534 30.123384 48.655579
# 24 vertices

vt 0.66858 0.75761
vt 0.69453 0.75761
vt 0.66858 0.75628
vt 0.69453 0.73495
vt 0.66858 0.73495
vt 0.66858 0.73628
vt 0.48154 0.75325
vt 0.56584 0.75325
vt 0.48154 0.75192
vt 0.56584 0.73059
vt 0.48154 0.73059
vt 0.48154 0.73192
vt 0.47023 0.73192
vt 0.47023 0.73059
vt 0.44428 0.73059
vt 0.79975 0.44148
vt 0.82240 0.44147
vt 0.82240 0.37891
vt 0.79975 0.37891
vt 0.79755 0.37178
vt 0.82020 0.37179
vt 0.82020 0.30923
vt 0.79755 0.30923
vt 0.81758 0.13820
vt 0.84353 0.13820
vt 0.84353 0.07567
vt 0.81758 0.07567
vt 0.83179 0.44859
vt 0.80584 0.44860
vt 0.80584 0.51114
vt 0.83179 0.51114
vt 0.64001 0.76473
vt 0.55571 0.76473
vt 0.55571 0.82727
vt 0.64001 0.82727
vt 0.32338 0.77076
vt 0.23909 0.77076
vt 0.23909 0.83331
vt 0.32338 0.83331
vt 0.40296 0.82476
vt 0.46551 0.82476
vt 0.46552 0.82343
vt 0.40296 0.82343
vt 0.74691 0.64067
vt 0.74691 0.57810
vt 0.74558 0.57810
vt 0.74558 0.64067
vt 0.82374 0.58080
vt 0.83505 0.58080
vt 0.83505 0.51826
vt 0.82374 0.51826
vt 0.46144 0.83188
vt 0.39888 0.83188
vt 0.39888 0.83321
vt 0.46144 0.83321
vt 0.00600 0.83096
vt 0.06856 0.83096
vt 0.06856 0.82963
vt 0.00600 0.82963
vt 0.82091 0.00600
vt 0.80960 0.00600
vt 0.80960 0.06855
vt 0.82091 0.06854
vt 0.65726 0.75628
vt 0.65726 0.73628
vt 0.65726 0.75761
vt 0.57296 0.73495
vt 0.57296 0.75761
vt 0.65726 0.73495
vt 0.47022 0.75325
vt 0.47022 0.75192
vt 0.44428 0.75325
# 72 texture vertices

vn 0.00000 -1.00000 -0.00000
vn 0.00000 -1.00000 -0.00000
vn 1.00000 0.00000 0.00000
vn 0.00000 1.00000 0.00000
vn -1.00000 0.00000 0.00000
vn -0.00000 -1.00000 -0.00000
vn 0.00000 0.00000 -1.00000
vn 0.00000 0.00000 1.00000
vn 0.00000 -1.00000 -0.00000
vn 0.00000 -1.00000 -0.00000
vn 0.00000 -1.00000 -0.00000
vn -0.00000 -1.00000 -0.00000
vn 0.00000 -1.00000 -0.00000
# 13 normal vertices

g obj1
f 20/3/4 7/2/4 12/1/4
f 19/6/4 11/5/4 5/4/4
f 22/9/11 4/8/2 14/7/6
f 21/12/10 13/11/6 2/10/2
f 17/13/9 21/12/10 22/9/11
f 1/15/1 9/14/6 17/13/9
f 7/19/3 5/18/3 1/17/3 3/16/3
f 6/23/5 8/22/5 4/21/5 2/20/5
f 5/27/8 11/26/8 9/25/8 1/24/8
f 3/31/7 10/30/7 12/29/7 7/28/7
f 2/35/8 13/34/8 15/33/8 6/32/8
f 8/39/7 16/38/7 14/37/7 4/36/7
f 19/43/5 17/42/5 9/41/5 11/40/5
f 21/47/3 23/46/3 15/45/3 13/44/3
f 19/51/8 23/50/8 21/49/8 17/48/8
f 18/55/5 20/54/5 12/53/5 10/52/5
f 24/59/3 22/58/3 14/57/3 16/56/3
f 18/63/7 22/62/7 24/61/7 20/60/7
f 23/65/4 19/6/4 20/3/4 24/64/4
f 7/2/4 20/3/4 19/6/4 5/4/4
f 8/68/4 6/67/4 24/64/4 16/66/4
f 24/64/4 6/67/4 15/69/4 23/65/4
f 3/72/12 1/15/1 18/71/13 10/70/12
f 4/8/2 22/9/11 21/12/10 2/10/2
f 18/71/13 1/15/1 17/13/9 22/9/11
# 25 elements

