# Created by Metasequoia

mtllib 1.mtl

v 216.558365 -6.362786 44.767384
v 216.558365 6.357551 44.767384
v 222.146927 6.357551 44.767445
v 222.146927 -6.362786 44.767445
v 222.146927 6.357551 33.207294
v 216.558365 6.357551 33.207294
v 216.558365 -6.362786 33.207294
v 222.146927 -6.362786 33.207294
v 231.282913 3.514624 44.271137
v 231.282913 -3.519861 44.271137
v 231.282913 -3.519861 33.703571
v 231.282913 3.514624 33.703571
v 231.282913 -5.534982 41.965504
v 231.282913 5.529746 41.965504
v 231.282913 5.529746 36.009052
v 231.282913 -5.534982 36.009052
v 205.285965 -6.362786 44.767384
v 205.285965 6.357551 44.767384
v 205.285965 6.357551 33.207294
v 205.285965 -6.362786 33.207294
v 205.288467 -2.522135 43.817432
v 205.288467 2.516867 43.817432
v 205.288467 2.516867 34.157185
v 205.288467 -2.522135 34.157185
v 222.146927 -8.377875 42.245289
v 216.558365 -8.377875 42.245289
v 216.558365 -8.377875 35.729298
v 222.146927 -8.377875 35.729298
v 205.285965 -8.377906 42.245289
v 205.285965 -8.377906 35.729298
v 205.288467 -4.206063 41.709797
v 205.288467 -4.206063 36.264820
v 214.278580 -8.377875 36.547688
v 215.142624 -8.377875 37.295399
v 207.565750 -8.377906 36.547688
v 206.701797 -8.377906 37.295399
v 215.142624 -8.377875 40.679188
v 214.278580 -8.377875 41.426899
v 206.701797 -8.377906 40.679188
v 207.565750 -8.377906 41.426899
v 206.701797 -6.186196 37.295399
v 207.565750 -6.186196 36.547688
v 206.701797 -6.186196 40.679188
v 207.565750 -6.186196 41.426899
v 214.278580 -6.186196 41.426899
v 215.142624 -6.186196 40.679188
v 215.142624 -6.186196 37.295399
v 214.278580 -6.186196 36.547688
v 216.558365 8.372643 42.245289
v 222.146927 8.372643 42.245289
v 222.146927 8.372643 35.729298
v 216.558365 8.372643 35.729298
v 205.285965 8.372643 42.245289
v 205.285965 8.372643 35.729298
v 205.288467 4.200797 41.709797
v 205.288467 4.200797 36.264820
v 215.142624 8.372643 37.295399
v 214.278580 8.372643 36.547688
v 207.565750 8.372643 36.547688
v 206.701797 8.372643 37.295399
v 214.278580 8.372643 41.426899
v 215.142624 8.372643 40.679188
v 206.701797 8.372643 40.679188
v 207.565750 8.372643 41.426899
v 207.565750 6.180930 36.547688
v 206.701797 6.180930 37.295399
v 206.701797 6.180930 40.679188
v 207.565750 6.180930 41.426899
v 214.278580 6.180930 41.426899
v 215.142624 6.180930 40.679188
v 215.142624 6.180930 37.295399
v 214.278580 6.180930 36.547688
v 203.849014 2.516867 43.817432
v 203.849014 4.200797 41.709797
v 203.849014 -2.522135 43.817432
v 203.849014 -4.206063 41.709797
v 203.849014 -4.206063 36.264820
v 203.849014 -2.522135 34.157185
v 203.849014 2.516867 34.157185
v 203.849014 4.200797 36.264820
# 80 vertices

vt 0.11239 0.77952
vt 0.11239 0.81583
vt 0.12834 0.81583
vt 0.12834 0.77952
vt 0.02755 0.80896
vt 0.04350 0.80896
vt 0.04350 0.77265
vt 0.02755 0.77265
vt 0.15443 0.80772
vt 0.15443 0.78764
vt 0.00146 0.78077
vt 0.00146 0.80085
vt 0.69141 0.94428
vt 0.69799 0.93853
vt 0.69799 0.91846
vt 0.69141 0.91271
vt 0.67441 0.91271
vt 0.66783 0.91846
vt 0.66783 0.93853
vt 0.67441 0.94428
vt 0.08022 0.77952
vt 0.08022 0.81583
vt 0.07568 0.80896
vt 0.07568 0.77265
vt 0.88934 0.90807
vt 0.87496 0.90807
vt 0.86400 0.91078
vt 0.90030 0.91078
vt 0.87496 0.88050
vt 0.88934 0.88050
vt 0.90030 0.87779
vt 0.86400 0.87779
vt 0.57531 0.73163
vt 0.57546 0.73938
vt 0.59263 0.73938
vt 0.59248 0.73163
vt 0.59248 0.76716
vt 0.59263 0.75941
vt 0.57546 0.75941
vt 0.57531 0.76716
vt 0.54717 0.75855
vt 0.54702 0.76563
vt 0.54702 0.73315
vt 0.54717 0.74024
vt 0.62727 0.73938
vt 0.62712 0.73163
vt 0.62712 0.76716
vt 0.62727 0.75941
vt 0.89414 0.90205
vt 0.90605 0.90358
vt 0.89414 0.88652
vt 0.90605 0.88499
vt 0.59964 0.75689
vt 0.59698 0.75459
vt 0.62027 0.75689
vt 0.62292 0.75459
vt 0.59698 0.74419
vt 0.59964 0.74189
vt 0.62292 0.74419
vt 0.62027 0.74189
vt 0.25714 0.95558
vt 0.25714 0.95302
vt 0.25068 0.95302
vt 0.25068 0.95558
vt 0.74320 0.52465
vt 0.74320 0.51499
vt 0.73695 0.51499
vt 0.73695 0.52465
vt 0.76567 0.75155
vt 0.76567 0.75411
vt 0.77213 0.75411
vt 0.77213 0.75155
vt 0.76567 0.73177
vt 0.77213 0.73177
vt 0.76567 0.72924
vt 0.77213 0.72924
vt 0.73570 0.65727
vt 0.73570 0.66692
vt 0.74195 0.66692
vt 0.74195 0.65727
vt 0.25714 0.93324
vt 0.25714 0.93071
vt 0.25068 0.93071
vt 0.25068 0.93324
vt 0.90270 0.07780
vt 0.90484 0.08026
vt 0.91449 0.08026
vt 0.91663 0.07780
vt 0.91663 0.05864
vt 0.91449 0.05618
vt 0.90484 0.05618
vt 0.90270 0.05864
vt 0.50778 0.76582
vt 0.50793 0.75806
vt 0.49076 0.75806
vt 0.49060 0.76582
vt 0.49060 0.73028
vt 0.49076 0.73804
vt 0.50793 0.73804
vt 0.50778 0.73028
vt 0.46231 0.73181
vt 0.46247 0.73889
vt 0.46247 0.75720
vt 0.46231 0.76429
vt 0.54241 0.76582
vt 0.54257 0.75806
vt 0.54257 0.73804
vt 0.54241 0.73028
vt 0.85825 0.90358
vt 0.87015 0.90205
vt 0.85825 0.88499
vt 0.87015 0.88652
vt 0.51228 0.74285
vt 0.51493 0.74055
vt 0.53556 0.74055
vt 0.53822 0.74285
vt 0.51493 0.75555
vt 0.51228 0.75325
vt 0.53822 0.75325
vt 0.53556 0.75555
vt 0.64450 0.53710
vt 0.64450 0.53453
vt 0.63804 0.53453
vt 0.63804 0.53710
vt 0.75275 0.66692
vt 0.75275 0.65727
vt 0.74650 0.65727
vt 0.74650 0.66692
vt 0.06560 0.95951
vt 0.06560 0.96208
vt 0.07206 0.96208
vt 0.07206 0.95951
vt 0.06560 0.93973
vt 0.07206 0.93973
vt 0.06560 0.93721
vt 0.07206 0.93721
vt 0.87679 0.88695
vt 0.87679 0.89661
vt 0.88305 0.89661
vt 0.88305 0.88695
vt 0.64450 0.51476
vt 0.64450 0.51223
vt 0.63804 0.51223
vt 0.63804 0.51476
vt 0.95632 0.16890
vt 0.95419 0.16643
vt 0.94453 0.16643
vt 0.94240 0.16890
vt 0.94240 0.18805
vt 0.94453 0.19052
vt 0.95419 0.19052
vt 0.95632 0.18805
vt 0.93521 0.84406
vt 0.93534 0.83768
vt 0.93099 0.83768
vt 0.93086 0.84406
vt 0.49505 0.96389
vt 0.49505 0.94951
vt 0.49095 0.94951
vt 0.49095 0.96389
vt 0.93534 0.85497
vt 0.93521 0.84860
vt 0.93086 0.84860
vt 0.93099 0.85497
vt 0.93534 0.87143
vt 0.93099 0.87143
vt 0.93521 0.87781
vt 0.93086 0.87781
vt 0.59209 0.72426
vt 0.59209 0.70988
vt 0.58798 0.70988
vt 0.58798 0.72426
vt 0.93534 0.82122
vt 0.93521 0.81485
vt 0.93086 0.81485
vt 0.93099 0.82122
vt 0.46241 0.94867
vt 0.46722 0.95468
vt 0.48160 0.95468
vt 0.48640 0.94867
vt 0.48640 0.93313
vt 0.48160 0.92711
vt 0.46722 0.92711
vt 0.46241 0.93313
# 184 texture vertices

vn -0.00000 -0.43347 0.90117
vn -0.00000 0.43347 0.90117
vn 0.08662 0.42349 0.90175
vn 0.08662 -0.42349 0.90175
vn 0.08662 0.42348 -0.90175
vn 0.00000 0.43346 -0.90117
vn 0.00000 -0.43346 -0.90117
vn 0.08662 -0.42348 -0.90175
vn 0.17237 0.41033 0.89550
vn 0.17237 -0.41033 0.89550
vn 0.17236 -0.41031 -0.89551
vn 0.17236 0.41031 -0.89551
vn 1.00000 0.00000 0.00000
vn 0.00000 -0.43347 0.90117
vn 0.00000 0.43347 0.90117
vn 0.00000 0.43346 -0.90117
vn 0.00000 -0.43346 -0.90117
vn -1.00000 0.00027 -0.00153
vn -1.00000 -0.00027 -0.00153
vn -1.00000 -0.00027 0.00153
vn -1.00000 0.00027 0.00153
vn 0.14843 -0.93115 0.33306
vn 0.00000 -0.97573 0.21898
vn 0.00000 -0.97573 -0.21899
vn 0.14843 -0.93114 -0.33308
vn 0.00000 -0.98665 0.16287
vn 0.00000 -0.98665 -0.16288
vn -1.00000 0.00057 -0.00022
vn -1.00000 0.00057 0.00022
vn 0.00000 -1.00000 -0.00000
vn 0.00000 -1.00000 0.00000
vn 0.90951 0.00000 0.41569
vn 0.34918 0.00000 0.93705
vn 0.90951 0.00000 -0.41569
vn 0.34918 0.00000 -0.93705
vn -0.34916 0.00000 -0.93706
vn -0.90950 0.00000 -0.41571
vn -0.90950 0.00000 0.41571
vn -0.34916 0.00000 0.93706
vn -0.00000 0.97573 0.21898
vn 0.14843 0.93115 0.33306
vn 0.14843 0.93114 -0.33308
vn 0.00000 0.97573 -0.21899
vn 0.00000 0.98665 0.16287
vn 0.00000 0.98665 -0.16288
vn -1.00000 -0.00057 -0.00022
vn -1.00000 -0.00057 0.00022
vn 0.00000 1.00000 0.00000
vn 0.34918 0.00000 0.93705
vn 0.90951 0.00000 0.41569
vn 0.90951 0.00000 -0.41569
vn 0.34918 0.00000 -0.93705
vn -0.34916 0.00000 -0.93706
vn -0.90950 0.00000 -0.41571
vn -0.90950 0.00000 0.41571
vn -0.34916 0.00000 0.93706
vn 0.00000 0.43347 0.90117
vn 0.00000 0.94373 0.33071
vn 0.00000 -0.43347 0.90117
vn 0.00000 -0.94373 0.33071
vn 0.00000 -0.94373 -0.33071
vn 0.00000 -0.43347 -0.90117
vn 0.00000 0.43347 -0.90117
vn 0.00000 0.94373 -0.33071
vn 0.29345 -0.89793 -0.32804
vn 0.29345 -0.89793 0.32803
vn 0.29345 0.89793 -0.32804
vn 0.29345 0.89793 0.32803
vn 0.00000 1.00000 0.00000
vn -1.00000 0.00000 0.00000
# 70 normal vertices

g obj3
usemtl mat2
f 4/4/4 3/3/3 2/2/2 1/1/1
f 8/8/8 7/7/7 6/6/6 5/5/5
f 3/3/3 4/4/4 10/10/10 9/9/9
f 8/8/8 5/5/5 12/12/12 11/11/11
f 16/20/13 11/19/13 12/18/13 15/17/13 14/16/13 9/15/13 10/14/13 13/13/13
f 1/1/1 2/2/2 18/22/15 17/21/14
f 6/6/6 7/7/7 20/24/17 19/23/16
f 17/28/18 18/27/19 22/26/19 21/25/18
f 19/32/20 20/31/21 24/30/21 23/29/20
f 1/36/1 26/35/23 25/34/22 4/33/4
f 8/40/8 28/39/25 27/38/24 7/37/7
f 28/39/25 8/40/8 11/42/11 16/41/65
f 13/44/66 10/43/10 4/33/4 25/34/22
f 27/38/24 28/39/25 25/34/22 26/35/23
f 25/34/22 28/39/25 16/41/65 13/44/66
f 26/35/23 1/36/1 17/46/14 29/45/26
f 7/37/7 27/38/24 30/48/27 20/47/17
f 29/50/28 17/28/18 21/25/18 31/49/28
f 30/52/29 29/50/28 31/49/28 32/51/29
f 20/31/21 30/52/29 32/51/29 24/30/21
f 34/54/31 33/53/30 27/38/24
f 30/48/27 27/38/24 33/53/30 35/55/30
f 30/48/27 35/55/30 36/56/31
f 26/35/23 38/58/30 37/57/31
f 37/57/31 34/54/31 27/38/24 26/35/23
f 29/45/26 30/48/27 36/56/31 39/59/31
f 29/45/26 39/59/31 40/60/30
f 40/60/30 38/58/30 26/35/23 29/45/26
f 36/64/32 35/63/33 42/62/33 41/61/32
f 39/68/34 36/67/32 41/66/32 43/65/34
f 40/72/35 39/71/34 43/70/34 44/69/35
f 38/74/36 40/72/35 44/69/35 45/73/36
f 37/76/37 38/74/36 45/73/36 46/75/37
f 34/80/38 37/79/37 46/78/37 47/77/38
f 33/84/39 34/83/38 47/82/38 48/81/39
f 35/63/33 33/84/39 48/81/39 42/62/33
f 48/92/31 47/91/31 46/90/31 45/89/31 44/88/31 43/87/31 41/86/31 42/85/31
f 3/96/3 50/95/41 49/94/40 2/93/2
f 6/100/6 52/99/43 51/98/42 5/97/5
f 15/102/67 12/101/12 5/97/5 51/98/42
f 50/95/41 3/96/3 9/104/9 14/103/68
f 49/94/40 50/95/41 51/98/42 52/99/43
f 14/103/68 15/102/67 51/98/42 50/95/41
f 53/106/44 18/105/15 2/93/2 49/94/40
f 19/108/16 54/107/45 52/99/43 6/100/6
f 55/110/46 22/26/19 18/27/19 53/109/46
f 56/112/47 55/110/46 53/109/46 54/111/47
f 23/29/20 56/112/47 54/111/47 19/32/20
f 52/99/43 58/114/48 57/113/48
f 59/115/48 58/114/48 52/99/43 54/107/45
f 60/116/48 59/115/48 54/107/45
f 62/118/48 61/117/48 49/94/40
f 49/94/40 52/99/43 57/113/48 62/118/48
f 63/119/48 60/116/48 54/107/45 53/106/44
f 64/120/48 63/119/48 53/106/44
f 53/106/44 49/94/40 61/117/48 64/120/48
f 66/124/50 65/123/49 59/122/49 60/121/50
f 67/128/51 66/127/50 60/126/50 63/125/51
f 68/132/52 67/131/51 63/130/51 64/129/52
f 69/134/53 68/132/52 64/129/52 61/133/53
f 70/136/54 69/134/53 61/133/53 62/135/54
f 71/140/55 70/139/54 62/138/54 57/137/55
f 72/144/56 71/143/55 57/142/55 58/141/56
f 65/123/49 72/144/56 58/141/56 59/122/49
f 65/152/69 66/151/69 67/150/69 68/149/69 69/148/69 70/147/69 71/146/69 72/145/69
f 22/156/57 55/155/58 74/154/58 73/153/57
f 21/160/59 22/159/57 73/158/57 75/157/59
f 31/164/60 21/163/59 75/162/59 76/161/60
f 32/166/61 31/164/60 76/161/60 77/165/61
f 24/168/62 32/166/61 77/165/61 78/167/62
f 23/172/63 24/171/62 78/170/62 79/169/63
f 56/176/64 23/175/63 79/174/63 80/173/64
f 55/155/58 56/176/64 80/173/64 74/154/58
f 80/184/70 79/183/70 78/182/70 77/181/70 76/180/70 75/179/70 73/178/70 74/177/70
# 74 elements

