# Created by Metasequoia

mtllib 2.mtl

v 19.992481 19.035206 20.756245
v 19.992481 11.062646 20.756245
v 28.739979 11.062646 12.008778
v 28.739979 19.035206 12.008778
v 34.390430 19.035206 35.154163
v 43.137920 19.035206 26.406727
v 34.390430 11.062661 35.154163
v 43.137920 11.062661 26.406727
v 9.419228 19.035206 31.329517
v 9.419228 11.062646 31.329517
v 23.817154 19.035206 45.727467
v 23.817154 11.062646 45.727467
v 44.216850 10.009606 27.485676
v 44.216850 20.088247 27.485676
v 57.313065 20.088247 14.389393
v 57.313065 10.009606 14.389393
v 27.661045 20.088247 10.929920
v 27.661045 10.009606 10.929920
v 40.757256 10.009606 -2.166302
v 40.757256 20.088247 -2.166302
v 31.759602 22.236135 6.831287
v 48.315399 22.236135 23.387135
v 40.757256 22.236135 -2.166302
v 57.313065 22.236135 14.389393
v 44.216850 -10.014841 27.485676
v 57.313065 -10.014841 14.389393
v 57.313065 -20.093489 14.389393
v 44.216850 -20.093489 27.485676
v 27.661045 -20.093489 10.929920
v 40.757256 -20.093489 -2.166302
v 40.757256 -10.014841 -2.166302
v 27.661045 -10.014856 10.929920
v 28.739979 -19.040480 12.008778
v 28.739979 -11.067896 12.008778
v 43.137920 -19.040480 26.406727
v 43.137920 -11.067896 26.406727
v 31.759602 -22.241392 6.831287
v 48.315399 -22.241392 23.387135
v 40.757256 -22.241392 -2.166302
v 57.313065 -22.241377 14.389393
v 25.197765 -18.016691 15.550983
v 39.595703 -18.016691 29.948933
v 35.949303 -14.305170 33.595295
v 38.141270 -17.405088 31.403400
v 23.743332 -17.405088 17.005482
v 21.551357 -14.305170 19.197437
v 21.551357 -9.432549 19.197437
v 35.949303 -9.432549 33.595295
v 39.595703 -10.044123 29.948933
v 25.197765 -10.044123 15.550983
v 25.197765 -7.464852 15.550983
v 26.984653 -10.560618 13.764088
v 41.382591 -10.560618 28.162067
v 39.595703 -7.464852 29.948933
v 35.949303 -4.755181 33.595295
v 39.595703 -4.755181 29.948933
v 25.197765 -5.746530 15.550983
v 25.898762 -4.755181 16.252003
v 22.252365 -4.755181 19.898365
v 21.551357 -5.746530 19.197437
v 44.928844 12.619271 31.216267
v 23.268879 9.074868 9.556324
v 35.395561 22.951113 -2.825420
v 57.055496 22.951113 18.834522
v 23.268879 -9.080101 9.556324
v 35.395561 -22.956358 -2.825420
v 44.928844 -12.624506 31.216267
v 57.055500 -22.956358 18.834522
v 68.106781 -20.647581 1.476551
v 68.106781 20.642338 1.476551
v 52.753616 20.642338 -13.876751
v 52.753616 -20.647581 -13.876751
v 25.356770 7.507682 11.644154
v 25.356770 -7.512918 11.644154
v 42.840958 11.052041 29.128407
v 42.840958 -11.057276 29.128407
v 23.785633 7.507682 13.215321
v 23.785633 -7.512918 13.215321
v 41.269817 11.052041 30.699604
v 41.269817 -11.057276 30.699604
v 66.664642 22.507696 9.225330
v 66.664642 -22.512938 9.225269
v 45.004692 22.507696 -12.434612
v 45.004692 -22.512968 -12.434612
v 46.399529 11.595178 29.745655
v 46.399529 -11.600443 29.745655
v 56.668861 20.361607 19.221119
v 56.668865 -20.366850 19.221119
v 65.193970 -20.363493 10.696033
v 65.193970 20.358219 10.696033
v 45.681267 11.595178 29.027332
v 45.681267 -11.600443 29.027332
v 55.950607 20.361607 18.502857
v 55.950611 -20.366850 18.502857
v 64.475693 -20.363493 9.977802
v 64.475693 20.358219 9.977802
v 47.357201 10.921899 29.027332
v 47.357201 -10.927164 29.027332
v 56.906021 19.081059 19.223438
v 56.906021 -19.086302 19.223377
v 64.475700 -19.470701 11.653706
v 64.475700 19.465429 11.653706
v 56.433670 22.613134 16.917133
v 64.916351 22.627020 8.434559
v 37.312904 22.613134 -2.203594
v 45.795578 22.627050 -10.686291
v 52.636101 20.980259 -11.959393
v 66.189430 20.980259 1.594013
v 37.312904 -22.618406 -2.203594
v 45.795578 -22.632322 -10.686291
v 56.433670 -22.618406 16.917133
v 64.916359 -22.632292 8.434559
v 66.189430 -20.985533 1.594013
v 52.636105 -20.985533 -11.959393
v 56.310974 22.008535 17.039936
v 64.793655 22.022406 8.557178
v 37.190182 22.008535 -2.080944
v 45.672859 22.022406 -10.563580
v 52.513390 20.375629 -11.836681
v 66.066727 20.375629 1.716755
v 37.190182 -22.013807 -2.080944
v 45.672859 -22.027678 -10.563580
v 56.310974 -22.013807 17.039936
v 64.793655 -22.027647 8.557178
v 66.066727 -20.380903 1.716755
v 52.513390 -20.380903 -11.836681
v 56.416412 22.439566 16.044849
v 64.343262 22.679068 8.118031
v 38.185230 22.439566 -2.186321
v 46.112068 22.679098 -10.113140
v 52.448029 21.153812 -11.292370
v 65.522453 21.153812 1.782124
v 38.185230 -22.444838 -2.186321
v 46.112068 -22.684340 -10.113140
v 56.416412 -22.444838 16.044849
v 64.343262 -22.684340 8.118031
v 65.522453 -21.159056 1.782124
v 52.448032 -21.159056 -11.292370
# 138 vertices

vt 0.76604 0.04414
vt 0.74329 0.04414
vt 0.74329 0.07944
vt 0.76604 0.07944
vt 0.31491 0.75777
vt 0.31491 0.81589
vt 0.35021 0.81589
vt 0.35021 0.75777
vt 0.78396 0.12665
vt 0.76121 0.12665
vt 0.76121 0.16196
vt 0.78396 0.16196
vt 0.39727 0.75886
vt 0.39727 0.81718
vt 0.43244 0.81718
vt 0.43244 0.75886
vt 0.76604 0.00146
vt 0.74329 0.00146
vt 0.27224 0.75777
vt 0.27224 0.81589
vt 0.78396 0.08398
vt 0.76121 0.08398
vt 0.35475 0.75886
vt 0.35475 0.81718
vt 0.00146 0.84674
vt 0.00146 0.86949
vt 0.05957 0.86949
vt 0.05957 0.84674
vt 0.50098 0.90845
vt 0.50098 0.87968
vt 0.44813 0.87968
vt 0.44813 0.90845
vt 0.72847 0.90204
vt 0.72847 0.87327
vt 0.67562 0.87327
vt 0.67562 0.90204
vt 0.73074 0.83301
vt 0.79780 0.83301
vt 0.79780 0.78035
vt 0.73074 0.78035
vt 0.82802 0.20139
vt 0.82802 0.17263
vt 0.76121 0.17263
vt 0.76121 0.20139
vt 0.23608 0.76323
vt 0.25883 0.76323
vt 0.26183 0.75888
vt 0.23307 0.75888
vt 0.23608 0.82134
vt 0.23307 0.82569
vt 0.25883 0.82134
vt 0.26183 0.82569
vt 0.80231 0.65727
vt 0.80231 0.72470
vt 0.81913 0.72470
vt 0.81913 0.65727
vt 0.67562 0.90817
vt 0.71193 0.90817
vt 0.82802 0.16650
vt 0.76121 0.16650
vt 0.48444 0.87355
vt 0.44813 0.87355
vt 0.76567 0.65727
vt 0.76567 0.72470
vt 0.44358 0.87610
vt 0.39073 0.87610
vt 0.39073 0.90486
vt 0.44358 0.90486
vt 0.62235 0.88532
vt 0.56949 0.88532
vt 0.56949 0.91408
vt 0.62235 0.91408
vt 0.78147 0.06829
vt 0.83432 0.06829
vt 0.83432 0.00146
vt 0.78147 0.00146
vt 0.79212 0.44315
vt 0.79212 0.50997
vt 0.82088 0.50997
vt 0.82088 0.44315
vt 0.79151 0.13529
vt 0.78850 0.13965
vt 0.81726 0.13965
vt 0.81426 0.13529
vt 0.79151 0.07719
vt 0.78850 0.07283
vt 0.81426 0.07719
vt 0.81726 0.07283
vt 0.78605 0.37133
vt 0.76877 0.37133
vt 0.76877 0.43861
vt 0.78605 0.43861
vt 0.56949 0.87919
vt 0.60581 0.87919
vt 0.82701 0.44315
vt 0.82701 0.50997
vt 0.42704 0.91099
vt 0.39073 0.91099
vt 0.82235 0.43861
vt 0.82235 0.37133
vt 0.84790 0.73489
vt 0.84790 0.79300
vt 0.87065 0.79300
vt 0.87065 0.73489
vt 0.32710 0.83832
vt 0.26638 0.83832
vt 0.26638 0.85352
vt 0.32710 0.85352
vt 0.26638 0.82173
vt 0.26638 0.83201
vt 0.32710 0.83201
vt 0.32710 0.82173
vt 0.81687 0.85990
vt 0.87498 0.85990
vt 0.87498 0.84599
vt 0.81687 0.84599
vt 0.86482 0.32577
vt 0.86339 0.33820
vt 0.87204 0.34909
vt 0.88248 0.33858
vt 0.86834 0.32076
vt 0.84222 0.88661
vt 0.83122 0.87788
vt 0.81866 0.87933
vt 0.81360 0.88288
vt 0.83160 0.89716
vt 0.00146 0.83270
vt 0.00146 0.84220
vt 0.06393 0.84220
vt 0.06393 0.83270
vt 0.88706 0.34434
vt 0.88721 0.33294
vt 0.83742 0.90178
vt 0.82591 0.90194
vt 0.81294 0.51451
vt 0.81294 0.57335
vt 0.82008 0.57335
vt 0.82008 0.51451
vt 0.89186 0.32740
vt 0.87772 0.30958
vt 0.80231 0.89235
vt 0.82031 0.90664
vt 0.88033 0.35955
vt 0.89186 0.35040
vt 0.84130 0.90486
vt 0.84354 0.90664
vt 0.85278 0.89499
vt 0.85054 0.89322
vt 0.11940 0.86050
vt 0.06411 0.86050
vt 0.06411 0.87522
vt 0.11940 0.87522
vt 0.81687 0.87042
vt 0.81970 0.87325
vt 0.87498 0.87325
vt 0.06393 0.82439
vt 0.00451 0.82439
vt 0.00146 0.82743
vt 0.60101 0.61963
vt 0.69991 0.61820
vt 0.69984 0.56812
vt 0.60107 0.56817
vt 0.63084 0.35279
vt 0.63084 0.29992
vt 0.58037 0.25951
vt 0.58037 0.39320
vt 0.58799 0.49694
vt 0.68690 0.49837
vt 0.68683 0.44691
vt 0.58806 0.44686
vt 0.57291 0.00146
vt 0.57291 0.11930
vt 0.63488 0.11930
vt 0.63488 0.00146
vt 0.68308 0.67909
vt 0.67815 0.72167
vt 0.68601 0.72708
vt 0.69196 0.67562
vt 0.61415 0.66093
vt 0.60629 0.65552
vt 0.60689 0.72361
vt 0.59801 0.72708
vt 0.90664 0.04433
vt 0.90664 0.00146
vt 0.90030 0.00146
vt 0.90030 0.04433
vt 0.60040 0.12387
vt 0.60040 0.19513
vt 0.60674 0.19523
vt 0.60674 0.12397
vt 0.00146 0.81984
vt 0.06456 0.81984
vt 0.06456 0.81350
vt 0.00146 0.81350
vt 0.77059 0.00160
vt 0.77059 0.07285
vt 0.77693 0.07275
vt 0.77693 0.00150
vt 0.73805 0.30368
vt 0.73197 0.34612
vt 0.80038 0.36614
vt 0.80933 0.30368
vt 0.47555 0.00282
vt 0.45600 0.00842
vt 0.45600 0.13237
vt 0.47555 0.13797
vt 0.54080 0.39191
vt 0.54080 0.26080
vt 0.52190 0.26623
vt 0.52190 0.38648
vt 0.56213 0.03558
vt 0.56213 0.10521
vt 0.56837 0.10829
vt 0.56837 0.03250
vt 0.51798 0.00926
vt 0.51634 0.00149
vt 0.51798 0.13153
vt 0.51634 0.13930
vt 0.48179 0.13152
vt 0.48179 0.00927
vt 0.12383 0.37685
vt 0.12383 0.44305
vt 0.12672 0.44305
vt 0.12672 0.37685
vt 0.04743 0.75211
vt 0.00151 0.75247
vt 0.00149 0.75545
vt 0.04740 0.75509
vt 0.71642 0.30615
vt 0.71606 0.35206
vt 0.71904 0.35204
vt 0.71940 0.30612
vt 0.71642 0.38716
vt 0.71940 0.38713
vt 0.08253 0.75247
vt 0.08250 0.75545
vt 0.09080 0.50220
vt 0.09080 0.38599
vt 0.08791 0.38599
vt 0.08791 0.50220
vt 0.00538 0.73136
vt 0.07953 0.73136
vt 0.08181 0.72734
vt 0.00310 0.72734
vt 0.54764 0.57455
vt 0.50783 0.55082
vt 0.50439 0.55278
vt 0.54717 0.57828
vt 0.50783 0.48725
vt 0.54764 0.46352
vt 0.54717 0.45979
vt 0.50439 0.48529
vt 0.37111 0.04102
vt 0.37113 0.00546
vt 0.36718 0.00187
vt 0.36718 0.04210
vt 0.38032 0.49971
vt 0.38034 0.53526
vt 0.38427 0.53634
vt 0.38427 0.49613
vt 0.57879 0.46240
vt 0.57879 0.57567
vt 0.58224 0.57827
vt 0.58224 0.45980
vt 0.60687 0.56510
vt 0.60679 0.52671
vt 0.60101 0.52450
vt 0.69406 0.56506
vt 0.69399 0.52666
vt 0.69978 0.52445
vt 0.68132 0.50766
vt 0.68543 0.50292
vt 0.61952 0.50770
vt 0.61542 0.50296
vt 0.59384 0.44380
vt 0.59392 0.40540
vt 0.58813 0.40318
vt 0.68104 0.44384
vt 0.68111 0.40544
vt 0.68690 0.40323
vt 0.66839 0.38643
vt 0.67249 0.38169
vt 0.60658 0.38640
vt 0.60247 0.38166
vt 0.48580 0.56771
vt 0.48908 0.60292
vt 0.49090 0.60326
vt 0.48762 0.56805
vt 0.11928 0.45556
vt 0.11928 0.37685
vt 0.11752 0.37685
vt 0.11752 0.45556
vt 0.49867 0.27440
vt 0.49538 0.30963
vt 0.49721 0.30928
vt 0.50049 0.27405
vt 0.49538 0.25714
vt 0.49721 0.25679
vt 0.11051 0.29040
vt 0.11051 0.23461
vt 0.10875 0.23461
vt 0.10875 0.29040
vt 0.48580 0.62023
vt 0.48762 0.62057
vt 0.18949 0.63701
vt 0.18620 0.60178
vt 0.18438 0.60143
vt 0.18766 0.63666
vt 0.14452 0.53399
vt 0.14452 0.61270
vt 0.14628 0.61270
vt 0.14628 0.53399
vt 0.12490 0.89261
vt 0.12818 0.85740
vt 0.12636 0.85775
vt 0.12308 0.89296
vt 0.12818 0.90992
vt 0.12636 0.91027
vt 0.13737 0.81838
vt 0.13737 0.87417
vt 0.13913 0.87417
vt 0.13913 0.81838
vt 0.18949 0.58451
vt 0.18766 0.58417
vt 0.74028 0.53173
vt 0.77260 0.53167
vt 0.77285 0.52986
vt 0.73818 0.52991
vt 0.74028 0.60678
vt 0.73818 0.60863
vt 0.77260 0.60673
vt 0.77285 0.60858
vt 0.78849 0.59614
vt 0.79001 0.59715
vt 0.37340 0.49107
vt 0.37340 0.54749
vt 0.37578 0.54852
vt 0.37578 0.49004
vt 0.78849 0.54232
vt 0.79001 0.54136
vt 0.74010 0.22222
vt 0.77242 0.22228
vt 0.77267 0.22042
vt 0.73801 0.22037
vt 0.74010 0.29728
vt 0.73801 0.29909
vt 0.77242 0.29733
vt 0.77267 0.29914
vt 0.78831 0.28669
vt 0.78983 0.28765
vt 0.14408 0.67588
vt 0.14408 0.61947
vt 0.14170 0.61843
vt 0.14170 0.67692
vt 0.78831 0.23286
vt 0.78983 0.23185
# 356 texture vertices

vn -0.70711 0.00000 -0.70711
vn -0.70711 0.00000 -0.70711
vn 0.00000 1.00000 0.00000
vn 0.70711 0.00000 0.70711
vn 0.70710 0.00000 0.70711
vn -0.70711 0.00000 -0.70711
vn 0.70711 0.00000 0.70711
vn 0.70711 0.00000 0.70710
vn 0.70711 -0.00000 0.70710
vn -0.70711 -0.00001 -0.70711
vn -0.70711 0.00000 -0.70711
vn -0.12481 0.98430 0.12481
vn -0.70711 -0.00001 -0.70711
vn 0.70710 0.00000 -0.70711
vn 0.70711 0.00000 0.70710
vn -0.70711 0.00001 -0.70711
vn -0.70711 0.00000 -0.70711
vn -0.70709 0.00002 0.70712
vn -0.70709 -0.00002 0.70712
vn -0.70711 0.00002 0.70710
vn -0.70711 -0.00002 0.70710
vn -0.12481 -0.98430 0.12481
vn -0.70711 0.00001 -0.70711
vn -0.17172 -0.97006 0.17172
vn -0.65328 -0.38268 0.65328
vn -0.36185 -0.85914 0.36186
vn -0.70710 0.00000 0.70711
vn 0.70710 0.00000 0.70711
vn -0.70711 -0.00000 -0.70710
vn 0.66608 0.33565 -0.66608
vn 0.36590 0.85570 -0.36590
vn 0.70710 -0.00000 0.70711
vn -0.65328 0.38268 -0.65328
vn -0.27060 0.92388 -0.27060
vn -0.68531 0.30423 0.66166
vn -0.68530 0.30423 0.66167
vn -0.05149 0.99717 0.05476
vn -0.07779 0.99657 0.02841
vn -0.71443 0.00000 -0.69971
vn -0.71078 0.00000 -0.70342
vn -0.68531 -0.30423 0.66166
vn -0.07779 -0.99656 0.02842
vn 0.95513 -0.00000 -0.29618
vn 0.29619 0.00000 -0.95513
vn -0.70710 -0.00000 0.70711
vn -0.70710 0.00000 0.70711
vn -0.70710 -0.00000 0.70711
vn -0.70710 0.00000 0.70711
vn -0.70711 0.00000 -0.70710
vn -0.10033 0.98988 -0.10033
vn 0.70712 0.00000 0.70709
vn 0.83222 -0.00000 0.55444
vn 0.83222 -0.00000 0.55444
vn -0.46594 0.00000 -0.88481
vn 0.71017 0.00219 0.70402
vn 0.71017 -0.00219 0.70402
vn 0.71018 0.00219 0.70401
vn 0.71018 -0.00220 0.70401
vn 0.70712 -0.00000 0.70710
vn 0.70711 -0.00000 0.70710
vn 0.61486 -0.49391 -0.61482
vn 0.61486 0.49391 -0.61482
vn 0.18771 -0.96412 -0.18770
vn 0.18771 0.96412 -0.18770
vn -0.00020 1.00000 0.00020
vn -0.00020 -1.00000 0.00020
vn 0.35703 0.22628 0.90627
vn 0.35703 -0.22627 0.90627
vn 0.58480 0.36993 0.72192
vn 0.58480 -0.36993 0.72192
vn 0.64173 -0.40531 0.65109
vn 0.64173 0.40531 0.65108
vn 0.11130 0.98267 -0.14826
vn 0.06673 0.98975 -0.12628
vn 0.14826 0.98267 -0.11130
vn 0.12628 0.98975 -0.06674
vn 0.18250 0.97013 -0.15981
vn 0.15981 0.97013 -0.18250
vn 0.14825 -0.98267 -0.11130
vn 0.12628 -0.98975 -0.06675
vn 0.11130 -0.98267 -0.14825
vn 0.06675 -0.98975 -0.12628
vn 0.15982 -0.97013 -0.18250
vn 0.18250 -0.97013 -0.15982
vn -0.70711 -0.00002 -0.70711
vn -0.87262 0.07928 -0.48192
vn 0.67966 -0.27591 -0.67966
vn 0.48192 0.07927 0.87262
vn -0.26326 0.24292 0.93364
vn -0.93364 0.24292 0.26325
vn 0.70711 0.00005 0.70711
vn 0.48192 -0.07927 0.87262
vn 0.67966 0.27591 -0.67966
vn -0.87262 -0.07928 -0.48192
vn -0.93364 -0.24292 0.26325
vn -0.26326 -0.24292 0.93364
vn 0.03402 0.95428 0.29696
vn 0.40171 0.91205 0.08241
vn -0.29696 0.95428 -0.03402
vn -0.08240 0.91206 -0.40170
vn 0.29406 0.74290 -0.60135
vn 0.60136 0.74290 -0.29406
vn -0.29696 -0.95429 -0.03402
vn -0.08240 -0.91206 -0.40170
vn 0.03403 -0.95428 0.29697
vn 0.40172 -0.91205 0.08241
vn 0.60136 -0.74290 -0.29405
vn 0.29406 -0.74291 -0.60134
vn 0.00000 -1.00000 0.00000
vn 0.00000 -1.00000 0.00000
vn 0.00000 -1.00000 -0.00000
vn -0.70711 0.00000 0.70711
vn 0.00000 -1.00000 0.00000
vn -0.70710 -0.00001 0.70712
vn -0.70710 0.00001 0.70712
vn -0.70709 0.00002 0.70712
vn -0.70709 -0.00002 0.70712
vn -0.70711 -0.00001 0.70710
vn -0.70711 -0.00002 0.70710
vn -0.70711 0.00001 0.70710
vn -0.70711 0.00002 0.70710
vn -0.24570 0.93769 0.24570
vn 0.70711 -0.00001 0.70710
vn -0.00000 1.00000 0.00000
vn 0.70710 0.00000 -0.70711
vn -0.24570 -0.93769 0.24570
vn 0.70711 0.00001 0.70710
vn 0.00000 -1.00000 -0.00000
vn 0.70711 0.00000 -0.70711
vn -0.14159 -0.97975 0.14159
vn 0.70710 0.00000 0.70711
vn 0.70710 0.00000 0.70711
vn 0.70710 0.00000 0.70711
vn -0.70711 -0.00000 -0.70710
vn -0.70711 -0.00000 -0.70710
vn -0.70711 -0.00000 -0.70710
vn 0.70710 -0.00000 0.70711
vn 0.70710 -0.00000 0.70711
vn -0.70711 -0.00000 -0.70710
vn -0.70711 -0.00000 -0.70711
vn 0.14157 0.97975 -0.14157
vn 0.70711 -0.00000 0.70711
vn -0.70711 -0.00000 -0.70711
vn -0.70710 0.00001 0.70711
vn 0.70711 0.00000 -0.70711
vn -0.68530 -0.30423 0.66167
vn -0.05150 -0.99717 0.05477
vn -0.10033 -0.98988 -0.10033
vn -0.70711 0.00000 0.70710
vn -0.70708 0.00000 0.70713
vn 0.13274 -0.32671 0.93575
vn 0.13274 0.32672 0.93575
vn 0.36353 0.68805 0.62804
vn 0.36354 -0.68804 0.62805
vn 0.46617 -0.74103 0.48328
vn 0.46617 0.74103 0.48328
vn 1.00000 0.00000 -0.00000
vn 0.70711 -0.00005 0.70711
vn -0.70711 0.00001 -0.70711
vn 0.66770 0.70089 0.25085
vn 0.05969 0.89569 0.44066
vn -0.44065 0.89569 -0.05969
vn -0.25084 0.70091 -0.66769
vn 0.32039 0.56088 -0.76339
vn 0.76340 0.56087 -0.32038
vn -0.25084 -0.70092 -0.66768
vn -0.44064 -0.89570 -0.05968
vn 0.05970 -0.89569 0.44066
vn 0.66771 -0.70089 0.25086
vn 0.76340 -0.56088 -0.32038
vn 0.32039 -0.56090 -0.76338
# 171 normal vertices

g obj8
usemtl mat2
f 4/4/2 3/3/2 2/2/1 1/1/1
f 6/8/3 4/7/3 1/6/3 5/5/3
f 8/12/5 6/11/5 5/10/4 7/9/4
f 3/16/110 8/15/110 7/14/109 2/13/109
f 1/1/1 2/2/1 10/18/6 9/17/6
f 5/5/3 1/6/3 9/20/3 11/19/3
f 7/9/4 5/10/4 11/22/7 12/21/7
f 2/13/109 7/14/109 12/24/111 10/23/111
f 12/28/112 11/27/112 9/26/112 10/25/112
f 16/32/8 15/31/9 14/30/9 13/29/8
f 20/36/10 19/35/11 18/34/11 17/33/10
f 19/40/113 16/39/113 13/38/113 18/37/113
f 19/44/14 20/43/14 15/42/14 16/41/14
f 17/48/117 18/47/116 3/46/115 4/45/114
f 14/50/119 17/48/117 4/45/114 6/49/118
f 13/52/121 14/50/119 6/49/118 8/51/120
f 18/47/116 13/52/121 8/51/120 3/46/115
f 17/56/122 14/55/122 22/54/12 21/53/12
f 20/36/10 17/33/10 21/58/13 23/57/13
f 15/42/14 20/43/14 23/60/14 24/59/14
f 14/30/9 15/31/9 24/62/123 22/61/123
f 24/64/3 23/63/3 21/53/12 22/54/12
f 28/68/15 27/67/15 26/66/8 25/65/8
f 32/72/17 31/71/17 30/70/16 29/69/16
f 25/76/124 26/75/124 31/74/124 32/73/124
f 27/80/14 30/79/14 31/78/125 26/77/125
f 34/84/19 32/83/19 29/82/18 33/81/18
f 33/81/18 29/82/18 28/86/20 35/85/20
f 35/85/20 28/86/20 25/88/21 36/87/21
f 36/87/21 25/88/21 32/83/19 34/84/19
f 38/92/22 28/91/126 29/90/126 37/89/22
f 37/94/23 29/69/16 30/70/16 39/93/23
f 39/96/14 30/79/14 27/80/14 40/95/14
f 40/98/127 27/67/15 28/68/15 38/97/127
f 37/89/22 39/100/128 40/99/128 38/92/22
f 8/104/129 3/103/129 4/102/129 6/101/129
f 3/46/115 8/51/120 6/49/118 4/45/114
f 33/108/130 35/107/130 42/106/24 41/105/24
f 46/112/25 45/111/26 44/110/26 43/109/25
f 41/105/24 42/106/24 44/110/26 45/111/26
f 46/116/25 43/115/25 48/114/27 47/113/27
f 42/121/133 49/120/28 48/119/132 43/118/131 44/117/131
f 50/126/29 41/125/136 45/124/135 46/123/135 47/122/134
f 54/130/30 53/129/31 52/128/31 51/127/30
f 53/132/138 54/131/137 49/120/28
f 52/134/140 50/126/29 51/133/139
f 36/138/141 34/137/141 52/136/31 53/135/31
f 35/140/142 36/139/142 53/132/138 49/120/28 42/121/133
f 34/142/143 33/141/143 41/125/136 50/126/29 52/134/140
f 48/119/132 49/120/28 54/131/137 56/144/32 55/143/32
f 60/148/33 59/147/34 58/146/34 57/145/33
f 56/152/3 58/151/34 59/150/34 55/149/3
f 51/133/139 50/126/29 47/122/134 60/148/33 57/145/33
f 47/113/27 48/114/27 55/155/144 59/154/144 60/153/144
f 54/130/30 51/127/30 57/158/145 58/157/145 56/156/145
g obj7
f 64/162/38 63/161/37 62/160/36 61/159/35
f 63/166/40 66/165/40 65/164/39 62/163/39
f 66/170/147 68/169/42 67/168/41 65/167/146
f 72/174/44 71/173/44 70/172/43 69/171/43
f 62/178/36 65/177/146 74/176/46 73/175/45
f 61/180/35 62/178/36 73/175/45 75/179/47
f 67/182/41 61/180/35 75/179/47 76/181/48
f 65/177/146 67/182/41 76/181/48 74/176/46
f 73/186/49 74/185/49 78/184/49 77/183/49
f 75/190/50 73/189/50 77/188/50 79/187/50
f 76/194/51 75/193/51 79/192/51 80/191/51
f 74/198/148 76/197/148 80/196/148 78/195/148
f 80/202/149 79/201/149 77/200/149 78/199/149
f 82/206/53 69/205/43 70/204/43 81/203/52
f 84/208/54 66/165/40 63/166/40 83/207/54
f 83/207/54 71/210/44 72/209/44 84/208/54
f 61/214/55 67/213/56 86/212/56 85/211/55
f 64/216/57 61/214/55 85/211/55 87/215/57
f 67/213/56 68/218/58 88/217/58 86/212/56
f 68/218/58 82/206/53 89/219/59 88/217/58
f 81/203/52 64/216/57 87/215/57 90/220/60
f 82/206/53 81/203/52 90/220/60 89/219/59
f 85/224/61 86/223/62 92/222/62 91/221/61
f 87/228/63 85/227/61 91/226/61 93/225/63
f 86/232/62 88/231/64 94/230/64 92/229/62
f 88/231/64 89/234/65 95/233/65 94/230/64
f 90/236/66 87/228/63 93/225/63 96/235/66
f 89/240/150 90/239/150 96/238/150 95/237/150
f 91/244/152 92/243/151 98/242/68 97/241/67
f 93/248/153 91/247/152 97/246/67 99/245/69
f 92/252/151 94/251/154 100/250/70 98/249/68
f 100/250/70 99/245/69 97/246/67 98/249/68
f 94/256/154 95/255/155 101/254/71 100/253/70
f 96/260/156 93/259/153 99/258/69 102/257/72
f 95/264/157 96/263/157 102/262/157 101/261/157
f 102/262/72 99/245/69 100/250/70 101/261/71
f 64/162/38 81/267/74 104/266/74 103/265/73
f 63/161/37 64/162/38 103/265/73 105/268/75
f 83/270/76 63/161/37 105/268/75 106/269/76
f 71/272/77 83/270/76 106/269/76 107/271/77
f 70/274/78 71/272/77 107/271/77 108/273/78
f 81/267/74 70/274/78 108/273/78 104/266/74
f 66/170/147 84/277/80 110/276/80 109/275/79
f 68/169/42 66/170/147 109/275/79 111/278/81
f 82/280/82 68/169/42 111/278/81 112/279/82
f 69/282/83 82/280/82 112/279/82 113/281/83
f 72/284/84 69/282/83 113/281/83 114/283/84
f 84/277/80 72/284/84 114/283/84 110/276/80
f 103/288/85 104/287/86 116/286/86 115/285/85
f 105/292/87 103/291/87 115/290/87 117/289/87
f 106/296/88 105/295/158 117/294/158 118/293/88
f 107/298/89 106/296/88 118/293/88 119/297/89
f 108/302/90 107/301/89 119/300/89 120/299/90
f 104/287/86 108/304/90 120/303/90 116/286/86
f 109/308/91 110/307/92 122/306/92 121/305/91
f 111/312/93 109/311/93 121/310/93 123/309/93
f 112/316/94 111/315/159 123/314/159 124/313/94
f 113/318/95 112/316/94 124/313/94 125/317/95
f 114/322/96 113/321/95 125/320/95 126/319/96
f 110/307/92 114/324/96 126/323/96 122/306/92
f 115/328/161 116/327/160 128/326/98 127/325/97
f 117/330/162 115/328/161 127/325/97 129/329/99
f 118/332/163 117/330/162 129/329/99 130/331/100
f 130/331/100 129/329/99 127/325/97 128/326/98
f 119/334/164 118/332/163 130/331/100 131/333/101
f 120/338/165 119/337/164 131/336/101 132/335/102
f 116/327/160 120/340/165 132/339/102 128/326/98
f 128/326/98 132/339/102 131/333/101 130/331/100
f 121/344/167 122/343/166 134/342/104 133/341/103
f 123/346/168 121/344/167 133/341/103 135/345/105
f 124/348/169 123/346/168 135/345/105 136/347/106
f 136/347/106 135/345/105 133/341/103 134/342/104
f 125/350/170 124/348/169 136/347/106 137/349/107
f 126/354/171 125/353/170 137/352/107 138/351/108
f 122/343/166 126/356/171 138/355/108 134/342/104
f 134/342/104 138/355/108 137/349/107 136/347/106
# 131 elements

