# Blender 4.5.2 LTS
# www.blender.org
mtllib RFB-弹匣-原皮.mtl
o RFB.002
v -26.270599 -4.216750 48.144672
v -26.270599 -4.216754 0.800958
v -26.270599 4.318190 48.144672
v -26.270599 4.318183 0.800958
v -52.658680 4.318190 48.144672
v -52.658680 4.318183 -3.893458
v -52.658680 -4.216750 48.144672
v -52.658680 -4.216756 -3.893458
v -30.559181 -4.759402 48.144672
v -30.559181 -4.759408 0.037985
v -30.559181 4.860842 48.144672
v -30.559181 4.860836 0.037984
v -33.375820 4.860842 48.144672
v -33.375820 4.860836 -0.463123
v -33.375820 -4.759402 48.144672
v -33.375820 -4.759408 -0.463122
v -50.484364 4.860842 48.144680
v -50.484364 4.860836 -3.506587
v -50.484364 -4.759402 48.144680
v -50.484364 -4.759408 -3.506586
v -47.667744 4.860842 48.144680
v -47.667744 4.860836 -3.005573
v -47.667744 -4.759402 48.144680
v -47.667744 -4.759408 -3.005572
v -41.721409 4.860842 48.144672
v -41.721409 4.860836 -1.947708
v -41.721409 -4.759402 48.144672
v -41.721409 -4.759408 -1.947707
v -40.573948 4.860842 48.144672
v -40.573948 4.860836 -1.743572
v -40.573948 -4.759402 48.144672
v -40.573948 -4.759408 -1.743571
v -41.721409 4.860836 -0.469021
v -41.721409 -4.759408 -0.469019
v -40.573948 4.860836 -0.469021
v -40.573948 -4.759408 -0.469019
v -30.559181 -3.968404 48.144672
v -30.559181 -3.968410 0.037985
v -30.559181 4.068582 48.144672
v -30.559181 4.068576 0.037985
v -33.375820 4.068582 48.144672
v -33.375820 4.068576 -0.463122
v -33.375820 -3.968404 48.144672
v -33.375820 -3.968410 -0.463122
v -50.484364 4.068582 48.144680
v -50.484364 4.068576 -3.506587
v -50.484364 -3.968404 48.144680
v -50.484364 -3.968410 -3.506586
v -47.667744 4.068582 48.144680
v -47.667744 4.068576 -3.005572
v -47.667744 -3.968404 48.144680
v -47.667744 -3.968410 -3.005572
v -41.721409 4.068582 48.144672
v -41.721409 -3.968404 48.144672
v -40.573948 4.068582 48.144672
v -40.573948 -3.968404 48.144672
v -41.721409 4.068576 -0.469019
v -41.721409 -3.968410 -0.469019
v -40.573948 4.068576 -0.469019
v -40.573948 -3.968410 -0.469019
v -26.913162 -4.759402 48.144672
v -26.913162 -4.759408 0.686637
v -26.913162 4.860842 48.144672
v -26.913162 4.860837 0.686635
v -52.048466 4.860842 48.144672
v -52.048466 4.860836 -3.784892
v -52.048466 -4.759402 48.144672
v -52.048466 -4.759408 -3.784891
vn 1.0000 -0.0000 -0.0000
vn 0.0073 -0.6290 0.7774
vn 0.0116 -0.9999 -0.0000
vn -0.0000 1.0000 -0.0000
vn -0.0000 -1.0000 -0.0000
vn 0.1752 -0.0000 -0.9845
vn -1.0000 -0.0000 -0.0000
vn -0.0000 -0.0000 1.0000
vn 0.1751 -0.0000 -0.9845
vn 0.6290 0.7774 -0.0000
vn 0.9999 0.0162 -0.0000
vn 0.9999 -0.0162 -0.0000
vn -0.9999 0.0035 0.0164
vn -0.9999 -0.0035 0.0164
vn 0.0066 0.9995 0.0305
vn 0.0066 -0.9995 0.0305
vn -0.6645 -0.7473 -0.0000
vn -0.6520 -0.7582 -0.0014
vn -0.6575 -0.7528 0.0316
vn 0.0326 -0.9995 -0.0038
vn -0.6645 0.7473 -0.0000
vn -0.6575 0.7528 0.0316
vn -0.6520 0.7582 -0.0014
vn 0.0326 0.9995 -0.0038
vn 0.6452 0.7640 -0.0000
vn 0.6451 0.7639 0.0162
vn 0.6686 0.7436 -0.0029
vn 0.6452 -0.7640 -0.0000
vn 0.6686 -0.7436 -0.0029
vn 0.6451 -0.7639 0.0162
vt 0.622564 0.358935
vt 0.622564 0.356493
vt 0.622564 0.276180
vt 0.297693 0.378156
vt 0.309585 0.378146
vt 0.297693 0.380261
vt 0.422820 0.483568
vt 0.434712 0.483578
vt 0.434712 0.485684
vt 0.168974 0.450508
vt 0.154389 0.450508
vt 0.155696 0.450508
vt 0.168000 0.619117
vt 0.169309 0.629095
vt 0.168000 0.629095
vt 0.325313 0.398732
vt 0.339899 0.398732
vt 0.338591 0.398732
vt 0.427493 0.149438
vt 0.442079 0.149438
vt 0.440770 0.149438
vt 0.398713 0.780454
vt 0.398713 0.781763
vt 0.396129 0.781763
vt 0.396129 0.765869
vt 0.398713 0.765869
vt 0.398713 0.767176
vt 0.547077 0.679586
vt 0.545770 0.679586
vt 0.545770 0.673562
vt 0.561664 0.673562
vt 0.561664 0.679586
vt 0.560355 0.679586
vt 0.183893 0.594269
vt 0.183893 0.600387
vt 0.182586 0.600387
vt 0.169309 0.600387
vt 0.168000 0.600387
vt 0.168000 0.594269
vt 0.295797 0.380599
vt 0.285974 0.382346
vt 0.295797 0.378156
vt 0.561664 0.684239
vt 0.561664 0.696131
vt 0.560355 0.684239
vt 0.555594 0.760256
vt 0.545770 0.760256
vt 0.555594 0.758947
vt 0.295797 0.297843
vt 0.285974 0.297843
vt 0.547077 0.684239
vt 0.547077 0.696131
vt 0.555594 0.745669
vt 0.545770 0.745669
vt 0.183893 0.617191
vt 0.183893 0.619117
vt 0.168000 0.617191
vt 0.527716 0.436462
vt 0.537540 0.436462
vt 0.537540 0.520965
vt 0.527716 0.519217
vt 0.309585 0.297843
vt 0.297693 0.297843
vt 0.422820 0.403265
vt 0.434712 0.403265
vt 0.436608 0.483578
vt 0.436608 0.486021
vt 0.638919 0.276180
vt 0.638919 0.355655
vt 0.637610 0.355655
vt 0.637610 0.276180
vt 0.625011 0.167858
vt 0.625011 0.087555
vt 0.626320 0.087555
vt 0.626320 0.167858
vt 0.507597 0.592717
vt 0.507597 0.512414
vt 0.512250 0.512414
vt 0.512250 0.591889
vt 0.638079 0.616314
vt 0.638079 0.536839
vt 0.639386 0.536839
vt 0.639386 0.616314
vt 0.634792 0.436462
vt 0.634792 0.516765
vt 0.633485 0.516765
vt 0.633485 0.436462
vt 0.601497 0.516765
vt 0.596844 0.515937
vt 0.596844 0.436462
vt 0.601497 0.436462
vt 0.608656 0.172886
vt 0.608656 0.087555
vt 0.609965 0.087555
vt 0.609965 0.172886
vt 0.442079 0.233941
vt 0.440770 0.233941
vt 0.512250 0.412037
vt 0.512250 0.496540
vt 0.507597 0.497367
vt 0.507597 0.412037
vt 0.562098 0.527418
vt 0.562098 0.612749
vt 0.560791 0.612749
vt 0.560791 0.527418
vt 0.154389 0.366005
vt 0.155696 0.366005
vt 0.577144 0.436462
vt 0.581797 0.436462
vt 0.581797 0.521793
vt 0.577144 0.520965
vt 0.339899 0.479045
vt 0.338591 0.479045
vt 0.621724 0.617152
vt 0.621724 0.536839
vt 0.623033 0.536839
vt 0.623033 0.617152
vt 0.121805 0.989931
vt 0.121805 0.991826
vt 0.120496 0.991826
vt 0.120496 0.989931
vt 0.604782 0.617152
vt 0.604782 0.536839
vt 0.606678 0.536839
vt 0.606678 0.617152
vt 0.621257 0.356493
vt 0.621257 0.276180
vt 0.487467 0.627981
vt 0.487467 0.547668
vt 0.488773 0.547668
vt 0.488773 0.627981
vt 0.136851 0.991826
vt 0.136851 0.989931
vt 0.138158 0.989931
vt 0.138158 0.991826
vt 0.616543 0.516775
vt 0.616543 0.436462
vt 0.618439 0.436462
vt 0.618439 0.516775
vt 0.182586 0.605113
vt 0.169309 0.605113
vt 0.183893 0.629095
vt 0.698904 0.777117
vt 0.694178 0.777117
vt 0.694178 0.763839
vt 0.698904 0.763839
vt 0.545770 0.696131
vt 0.545770 0.684239
vt 0.557490 0.745669
vt 0.557490 0.758947
vt 0.545770 0.744363
vt 0.555594 0.744363
vt 0.403366 0.767176
vt 0.403366 0.780454
vt 0.701529 0.762532
vt 0.701529 0.778426
vt 0.698904 0.778426
vt 0.123078 0.419631
vt 0.137179 0.419631
vt 0.137179 0.497846
vt 0.123078 0.497846
vt 0.198120 0.451975
vt 0.184020 0.451975
vt 0.184020 0.366005
vt 0.198120 0.366005
vt 0.566078 0.276180
vt 0.566078 0.354583
vt 0.560055 0.355655
vt 0.560055 0.276180
vt 0.546667 0.672501
vt 0.560767 0.672501
vt 0.568948 0.087555
vt 0.574971 0.087555
vt 0.574971 0.167030
vt 0.568948 0.165958
vt 0.592601 0.087555
vt 0.593609 0.087555
vt 0.593609 0.173525
vt 0.592601 0.173346
vt 0.590017 0.172886
vt 0.590017 0.087555
vt 0.259309 0.512175
vt 0.259309 0.597966
vt 0.258301 0.598145
vt 0.258301 0.512175
vt 0.261893 0.512175
vt 0.261893 0.597506
vt 0.168000 0.605113
vt 0.183893 0.605113
vt 0.698904 0.762532
vt 0.182997 0.593190
vt 0.168896 0.593190
vt 0.567140 0.276180
vt 0.567140 0.354394
vt 0.567886 0.087555
vt 0.567886 0.165770
vt 0.702553 0.777529
vt 0.702553 0.763429
vt 0.395121 0.780866
vt 0.395121 0.766766
s 1
usemtl 材质.002
f 28/1/1 34/2/2 27/3/3
f 35/4/4 14/5/4 30/6/4
f 16/7/5 36/8/5 32/9/5
s 0
f 50/10/1 24/11/1 52/12/1
s 1
f 26/13/6 50/14/6 22/15/6
s 0
f 56/16/7 29/17/7 55/18/7
f 51/19/7 21/20/7 49/21/7
s 1
f 45/22/8 17/23/8 65/24/8
f 67/25/8 19/26/8 47/27/8
f 37/28/8 9/29/8 61/30/8
f 63/31/8 11/32/8 39/33/8
f 62/34/6 10/35/6 38/36/6
f 40/37/6 12/38/6 64/39/6
f 26/40/4 22/41/4 33/42/4
f 13/43/8 29/44/8 41/45/8
f 25/46/8 21/47/8 53/48/8
f 25/49/4 33/42/4 22/41/4 21/50/4
f 43/51/8 41/45/8 29/44/8 56/52/8
f 54/53/8 53/48/8 21/47/8 51/54/8
f 32/55/9 28/56/6 26/13/6 30/57/9
f 27/58/5 23/59/5 24/60/5 28/61/5
f 13/62/4 14/5/4 35/4/4 29/63/4
f 35/4/4 30/6/4 26/40/4 33/42/4
f 15/64/5 31/65/5 36/8/5 16/7/5
f 36/8/5 34/66/5 28/67/5 32/9/5
f 11/68/7 12/69/7 40/70/7 39/71/7
f 14/72/1 13/73/1 41/74/1 42/75/1
f 42/76/4 41/77/4 39/78/4 40/79/4
f 10/80/7 9/81/7 37/82/7 38/83/7
f 15/84/1 16/85/1 44/86/1 43/87/1
f 44/88/5 38/89/5 37/90/5 43/91/5
f 18/92/1 17/93/1 45/94/1 46/95/1
f 21/20/7 22/96/7 50/97/7 49/21/7
f 49/98/4 50/99/4 46/100/4 45/101/4
f 19/102/1 20/103/1 48/104/1 47/105/1
f 24/11/7 23/106/7 51/107/7 52/12/7
f 51/108/5 47/109/5 48/110/5 52/111/5
f 29/17/7 35/112/7 59/113/7 55/18/7
f 33/114/1 25/115/1 53/116/1 57/117/1
f 35/118/8 33/119/8 57/120/8 59/121/8
f 57/122/4 53/123/4 55/124/4 59/125/4
f 27/3/1 34/2/10 58/126/1 54/127/1
f 36/128/7 31/129/7 56/130/7 60/131/7
f 34/132/8 36/133/8 60/134/8 58/135/8
f 60/136/5 56/137/5 54/138/5 58/139/5
f 38/36/6 44/140/9 42/141/9 40/37/6
f 26/13/6 28/56/6 24/142/6 50/14/6
f 46/143/6 50/144/9 52/145/9 48/146/6
f 43/51/8 37/28/8 39/33/8 41/45/8
f 43/51/8 56/52/8 31/147/8 15/148/8
f 54/53/8 56/149/8 55/150/8 53/48/8
f 54/53/8 51/54/8 23/151/8 27/152/8
f 47/27/8 51/153/8 49/154/8 45/22/8
f 68/155/6 66/156/6 18/157/6 46/143/6
f 3/158/1 1/159/1 2/160/11 4/161/12
f 6/162/13 8/163/14 7/164/7 5/165/7
f 63/166/4 64/167/15 12/168/4 11/169/4
f 63/31/8 61/30/8 1/170/8 3/171/8
f 61/172/5 9/173/5 10/174/5 62/175/16
f 67/176/17 7/177/17 8/178/18 68/179/19
f 68/179/20 20/180/5 19/181/5 67/176/5
f 65/182/21 66/183/22 6/184/23 5/185/21
f 66/183/24 65/182/4 17/186/4 18/187/4
f 63/31/8 39/33/8 37/28/8 61/30/8
f 64/39/6 62/34/6 38/36/6 40/37/6
f 30/57/9 14/188/9 42/141/9 32/55/9
f 16/189/9 32/55/9 42/141/9 44/140/9
f 20/190/6 68/155/6 46/143/6 48/146/6
f 2/191/6 62/34/6 64/39/6 4/192/6
f 3/193/25 4/194/26 64/167/27 63/166/25
f 1/195/28 61/172/28 62/175/29 2/196/30
f 6/197/6 66/156/6 68/155/6 8/198/6
f 65/24/8 67/25/8 47/27/8 45/22/8
f 65/24/8 5/199/8 7/200/8 67/25/8
