# Blender 4.5.2 LTS
# www.blender.org
mtllib RFB-枪机-原皮.mtl
o RFB.001
v 81.874588 -2.721371 64.616142
v 81.874588 -5.120203 55.950390
v 81.874588 2.822869 64.616142
v 81.874588 5.221700 55.950390
v 25.155685 2.822869 64.616150
v 25.155685 5.221700 55.950394
v 25.155685 -2.721371 64.616150
v 25.155685 -5.120203 55.950394
v 81.874588 -5.120202 61.539898
v 81.874588 5.221702 61.539898
v 25.155685 5.221702 61.539898
v 25.155685 -5.120202 61.539898
v 76.771637 14.334270 65.434677
v 77.110733 14.334270 61.038113
v 70.630463 14.334270 65.434677
v 70.291565 14.334270 61.038113
v 77.468384 5.904488 63.687931
v 77.468384 14.334270 63.687931
v 69.933914 14.334270 63.687931
v 69.933914 5.904488 63.687931
v 77.110733 5.039486 61.038113
v 70.291565 5.039486 61.038113
v 77.468384 3.409486 63.687931
v 69.933914 3.409486 63.687931
v 77.468384 14.334270 61.380260
v 69.933914 14.334270 61.380260
v 77.468384 4.829032 61.380238
v 69.933914 4.829032 61.380238
v 77.177429 5.904488 65.044403
v 77.177429 14.334270 65.044403
v 70.224701 14.334270 65.044395
v 70.224701 5.904488 65.044395
v 75.974777 9.051552 65.434677
v 76.313873 9.051556 61.038113
v 76.671539 9.051552 63.687931
v 76.671539 9.051556 61.380245
v 76.380569 9.051552 65.044403
v 75.974777 11.157547 65.434677
v 76.313873 11.157547 61.038113
v 76.671539 11.157547 63.687931
v 76.671539 11.157547 61.380253
v 76.380569 11.157547 65.044403
v 76.202469 12.808189 65.434677
v 76.541534 12.808189 61.038113
v 76.899185 12.808189 63.687931
v 76.899185 12.808189 61.380253
v 76.608246 12.808189 65.044395
v 76.202469 7.343993 65.434677
v 76.899185 7.343993 63.687931
v 76.541534 7.343993 61.038113
v 76.899185 7.343993 61.380245
v 76.608246 7.343993 65.044403
v 76.653671 14.627113 65.141830
v 76.993210 14.627113 61.330952
v 70.748459 14.627113 65.141830
v 70.409088 14.627113 61.330952
v 77.175522 14.627113 63.656879
v 70.226761 14.627113 63.656895
v 77.175522 14.627113 61.505375
v 70.226761 14.627113 61.505375
v 76.909882 14.627117 64.895416
v 70.492264 14.627113 64.895432
v 77.110733 5.904488 61.038113
v 77.468384 5.904488 61.380238
v 76.615356 6.299726 65.434677
v 70.630463 6.299713 65.434677
vn -0.9999 -0.0058 0.0147
vn -1.0000 -0.0000 -0.0000
vn 0.1268 0.0119 0.9919
vn -0.0543 0.0360 0.9979
vn -0.0107 -0.0233 0.9997
vn -0.0107 -0.0084 0.9999
vn 0.0976 -0.0965 0.9905
vn -0.0076 0.0109 0.9999
vn 0.1213 -0.0640 -0.9905
vn -0.0136 0.0001 -0.9999
vn -0.0069 0.0114 -0.9999
vn -0.0000 -0.0000 1.0000
vn -0.0000 -0.0000 -1.0000
vn 1.0000 -0.0000 -0.0000
vn -0.0000 1.0000 -0.0000
vn -0.0000 0.7886 0.6149
vn -0.0000 -1.0000 -0.0000
vn -0.0000 -0.7886 0.6149
vn 0.9999 -0.0124 0.0105
vn 1.0000 -0.0006 -0.0026
vn 0.9943 0.0862 -0.0626
vn -0.0000 -0.8518 -0.5239
vn 0.0722 -0.9937 0.0857
vn -0.0730 -0.9897 0.1229
vn 1.0000 0.0053 0.0023
vn 1.0000 -0.0060 0.0002
vn 0.6816 -0.0992 -0.7249
vn 0.6888 -0.0890 -0.7195
vn 0.6976 -0.0904 -0.7108
vn 0.7719 -0.1018 -0.6275
vn 0.6837 0.0960 0.7234
vn 0.6878 0.0880 0.7205
vn 0.6995 0.0876 0.7092
vn 0.7002 0.1121 0.7051
vn 0.9691 0.1304 0.2093
vn 0.9696 0.1293 0.2080
vn 0.9708 0.1255 0.2043
vn 0.9693 0.1378 0.2038
vn -0.0627 0.9970 -0.0445
vn 0.0033 0.9992 0.0402
vn 0.0302 0.9992 0.0268
vn 0.0584 0.9970 -0.0501
vn -0.6994 0.7139 0.0347
vn -0.7009 0.7133 -0.0007
vn -0.7211 0.6928 -0.0064
vn -0.7121 0.6979 0.0762
vn -0.0735 0.9970 0.0228
vn 0.0764 0.9970 0.0085
vn 0.0076 0.9998 -0.0196
vn -0.0076 0.9998 -0.0196
vn 0.0787 0.1375 -0.9874
vn 0.0999 -0.0941 -0.9905
vn -0.0090 -0.0098 -0.9999
vn -0.0222 0.0127 -0.9997
vn 0.1551 0.0319 -0.9874
vn -0.0100 -0.0236 -0.9997
vn -0.0745 0.0365 -0.9966
vn -0.0328 0.0496 -0.9982
vn -0.0534 -0.0236 -0.9983
vn -0.0321 -0.1201 -0.9922
vn -0.0020 0.0134 -0.9999
vn 0.1372 -0.0028 -0.9905
vn -0.9999 0.0094 0.0127
vn -1.0000 -0.0000 -0.0088
vn -0.9993 -0.0339 0.0125
vn 0.0807 0.0985 0.9919
vn -0.0217 0.0136 0.9997
vn -0.0057 -0.0120 0.9999
vn -0.0000 -0.1373 0.9905
vn -0.0069 0.0117 0.9999
vn -0.1010 -0.0731 0.9922
vn -0.0536 -0.0237 0.9983
vn 0.1181 -0.0702 0.9905
vn -0.0390 -0.8737 -0.4848
vn 0.0880 -0.9100 -0.4051
vn 0.6963 0.0112 -0.7176
vn 0.6947 -0.0127 -0.7192
vn 0.6869 -0.0002 -0.7268
vn 0.6874 0.0023 -0.7263
vn 0.6904 0.0039 0.7234
vn 0.6903 -0.0040 0.7235
vn 0.7008 -0.0085 0.7133
vn 0.6966 0.0125 0.7174
vn 0.9786 0.0038 0.2059
vn 0.9778 -0.0000 0.2097
vn 0.9786 -0.0040 0.2058
vn 0.9362 -0.3514 0.0002
vn 0.9371 -0.3490 -0.0016
vn 0.9385 -0.3452 0.0084
vn 0.9264 -0.3763 -0.0117
vn 0.9906 -0.1364 0.0060
vn 0.9894 -0.1450 0.0046
vn 0.9904 -0.1382 -0.0005
vn 0.9906 -0.1366 -0.0000
vn 0.6505 -0.2377 -0.7213
vn 0.6687 -0.2408 -0.7034
vn 0.7115 -0.1329 -0.6900
vn 0.6741 -0.3019 -0.6741
vn 0.6534 -0.2392 0.7182
vn 0.6758 -0.3028 0.6720
vn 0.7326 -0.1468 0.6646
vn 0.6658 -0.2474 0.7039
vn 0.6972 -0.0851 0.7118
vn 0.6876 -0.0910 0.7204
vn 0.6872 -0.1031 0.7191
vn 0.7642 -0.1429 0.6290
vn 0.9182 -0.3424 0.1992
vn 0.9067 -0.3672 0.2074
vn 0.9219 -0.3350 0.1946
vn 0.9191 -0.3410 0.1976
vn 0.9703 -0.1297 0.2040
vn 0.9690 -0.1336 0.2078
vn 0.9686 -0.1342 0.2095
vn 0.9703 -0.1362 0.1997
vn 0.9912 0.1321 -0.0000
vn 0.9910 0.1336 -0.0013
vn 0.9899 0.1414 0.0051
vn 0.9915 0.1298 0.0053
vn 0.6970 0.0850 -0.7120
vn 0.6872 0.0863 -0.7213
vn 0.6811 0.0966 -0.7258
vn 0.6990 0.1110 -0.7064
vn 0.9112 0.3612 0.1982
vn 0.9123 0.3591 0.1970
vn 0.9152 0.3569 0.1874
vn 0.8730 0.4017 0.2767
vn -0.4593 0.7280 -0.5089
vn -0.5334 0.6513 -0.5397
vn -0.5236 0.6913 -0.4980
vn -0.5795 0.7057 -0.4076
vn 0.0114 0.6792 -0.7339
vn -0.0341 0.6913 -0.7218
vn -0.0385 0.7369 -0.6749
vn 0.0445 0.7922 -0.6087
vn 0.5156 0.6792 -0.5224
vn 0.5213 0.6508 -0.5520
vn 0.4888 0.7071 -0.5109
vn 0.5138 0.7236 -0.4608
vn 0.7071 0.7071 -0.0000
vn 0.7240 0.6860 0.0721
vn 0.7211 0.6928 -0.0064
vn 0.5109 0.6654 0.5443
vn 0.5007 0.6793 0.5365
vn 0.5152 0.7237 0.4593
vn 0.4902 0.7071 0.5097
vn -0.0387 0.7370 0.6748
vn -0.0401 0.7065 0.7065
vn -0.0110 0.6793 0.7338
vn 0.1373 0.7019 0.6989
vn -0.4497 0.7934 0.4103
vn -0.5187 0.7065 0.4814
vn -0.4852 0.6740 0.5570
vn -0.4686 0.7125 0.5223
vn 0.0289 0.9992 -0.0278
vn -0.0476 0.9983 0.0331
vn 0.0538 0.9983 0.0217
vn 0.0401 0.9992 -0.0000
vn -0.6786 0.7225 0.1323
vn -0.7291 0.6740 0.1190
vn -0.6926 0.7014 0.1684
vn -0.6895 0.7071 0.1568
vn 0.6926 0.7014 0.1685
vn 0.7160 0.6911 0.0982
vn 0.6914 0.7071 0.1483
vn -0.0200 0.9998 0.0066
vn 0.0199 0.9998 0.0066
vn 0.0365 0.9983 -0.0451
vn -0.0541 0.9983 -0.0209
vn 0.6155 -0.0385 -0.7872
vn 0.7306 0.0194 -0.6825
vn 0.7133 -0.0758 -0.6968
vn 0.6822 -0.0105 -0.7311
vn 0.6842 0.2490 -0.6854
vn 0.6662 0.2539 -0.7012
vn 0.6559 0.2740 -0.7033
vn 0.7102 0.3005 -0.6366
vn 0.9304 0.3665 -0.0015
vn 0.9290 0.3701 -0.0006
vn 0.9260 0.3774 0.0124
vn 0.9318 0.3630 0.0093
vn -0.6912 -0.1369 -0.7096
vn -0.7861 0.0676 -0.6144
vn -0.6889 0.0155 -0.7247
vn -0.6663 -0.0125 -0.7456
vn 0.6862 0.2503 0.6829
vn 0.6965 0.3028 0.6506
vn 0.6200 0.2047 0.7574
vn 0.6684 0.2554 0.6986
vn 0.0653 -0.6049 0.7936
vn -0.0233 -0.7444 0.6673
vn 0.0588 -0.7773 0.6264
vn -0.0439 -0.6249 0.7795
vn -0.9825 -0.0091 0.1862
vn -0.9777 -0.0088 0.2096
vn -0.9778 -0.0000 0.2096
vn -0.9656 0.0461 0.2559
vn -0.6459 -0.0193 0.7632
vn -0.7694 0.0576 0.6361
vn -0.7856 -0.0026 0.6187
vn -0.6864 -0.0239 0.7268
vt 0.783958 0.209960
vt 0.780149 0.212305
vt 0.780149 0.208184
vt 0.219317 0.754592
vt 0.229204 0.754592
vt 0.228522 0.756318
vt 0.228146 0.762618
vt 0.219317 0.767866
vt 0.228146 0.759139
vt 0.678541 0.754756
vt 0.668591 0.749508
vt 0.668591 0.746028
vt 0.011486 0.346235
vt 0.020646 0.346235
vt 0.020646 0.439938
vt 0.011486 0.439938
vt 0.382744 0.007523
vt 0.399830 0.007523
vt 0.399830 0.101226
vt 0.382744 0.101226
vt 0.323234 0.729480
vt 0.332438 0.729481
vt 0.332438 0.746567
vt 0.323234 0.746565
vt 0.318168 0.742601
vt 0.318168 0.733442
vt 0.132313 0.404585
vt 0.123078 0.404585
vt 0.123078 0.310882
vt 0.132313 0.310882
vt 0.137395 0.310882
vt 0.137395 0.404585
vt 0.512675 0.727727
vt 0.521901 0.727727
vt 0.521901 0.744813
vt 0.512675 0.744813
vt 0.507597 0.740850
vt 0.507597 0.731690
vt 0.460539 0.531316
vt 0.451654 0.531316
vt 0.451654 0.437613
vt 0.460539 0.437613
vt 0.007523 0.346235
vt 0.007523 0.439938
vt 0.824297 0.811718
vt 0.824297 0.824165
vt 0.820175 0.824165
vt 0.820175 0.811718
vt 0.430331 0.764854
vt 0.426531 0.764854
vt 0.426531 0.760732
vt 0.430331 0.763078
vt 0.719842 0.072467
vt 0.715535 0.072467
vt 0.715535 0.060020
vt 0.719842 0.060020
vt 0.837305 0.467466
vt 0.835149 0.467946
vt 0.835149 0.455499
vt 0.837305 0.455980
vt 0.426425 0.773535
vt 0.426425 0.770056
vt 0.430225 0.770056
vt 0.430225 0.773535
vt 0.667625 0.752235
vt 0.668001 0.749508
vt 0.668215 0.752235
vt 0.424183 0.767235
vt 0.424153 0.770056
vt 0.423456 0.770058
vt 0.423486 0.767236
vt 0.426455 0.767234
vt 0.052264 0.786660
vt 0.052552 0.786961
vt 0.052552 0.797839
vt 0.052264 0.798140
vt 0.052470 0.798624
vt 0.048658 0.798624
vt 0.048709 0.798140
vt 0.048709 0.786660
vt 0.678541 0.739400
vt 0.668215 0.743207
vt 0.667275 0.740829
vt 0.667275 0.739400
vt 0.667275 0.754756
vt 0.780149 0.194257
vt 0.783958 0.194257
vt 0.228522 0.765345
vt 0.229462 0.767866
vt 0.720481 0.071876
vt 0.720481 0.060611
vt 0.668001 0.746028
vt 0.424153 0.773535
vt 0.423456 0.773537
vt 0.426531 0.778780
vt 0.426455 0.776261
vt 0.430255 0.776262
vt 0.430331 0.778781
vt 0.666684 0.754756
vt 0.424259 0.778781
vt 0.423562 0.778782
vt 0.423486 0.776263
vt 0.424183 0.776262
vt 0.430255 0.767235
vt 0.667625 0.743207
vt 0.424259 0.764854
vt 0.053036 0.798033
vt 0.678347 0.755239
vt 0.667469 0.755239
vt 0.052470 0.786176
vt 0.053036 0.786767
vt 0.048658 0.786176
vt 0.046663 0.787099
vt 0.046256 0.787522
vt 0.045772 0.787327
vt 0.046417 0.786657
vt 0.046256 0.797278
vt 0.045772 0.797473
vt 0.046663 0.797701
vt 0.046417 0.798143
vt 0.666684 0.739053
vt 0.666684 0.740829
vt 0.679132 0.739053
vt 0.679132 0.754756
vt 0.423541 0.765509
vt 0.230133 0.753939
vt 0.218646 0.753939
vt 0.777890 0.194257
vt 0.777890 0.208184
vt 0.777217 0.207531
vt 0.777217 0.194257
s 1
usemtl 材质.001
f 28/1/1 24/2/2 20/3/2
f 66/4/3 65/5/4 48/6/5
f 38/7/6 15/8/7 33/9/8
f 16/10/9 39/11/10 34/12/11
f 1/13/12 3/14/12 5/15/12 7/16/12
f 8/17/13 6/18/13 4/19/13 2/20/13
f 9/21/14 2/22/14 4/23/14 10/24/14
f 10/24/14 3/25/14 1/26/14 9/21/14
f 10/27/15 4/28/15 6/29/15 11/30/15
f 11/30/16 5/31/16 3/32/16 10/27/16
f 11/33/2 6/34/2 8/35/2 12/36/2
f 11/33/2 12/36/2 7/37/2 5/38/2
f 12/39/17 8/40/17 2/41/17 9/42/17
f 9/43/18 1/13/18 7/16/18 12/44/18
f 17/45/12 20/46/12 24/47/12 23/48/12
f 64/49/19 17/50/20 23/51/14 27/52/21
f 27/53/22 23/54/22 24/55/22 28/56/22
f 32/57/23 20/58/17 17/59/17 29/60/24
f 40/61/14 35/62/14 36/63/25 41/64/26
f 46/65/27 41/66/28 39/11/29 44/67/30
f 52/68/31 37/69/32 33/70/33 48/71/34
f 49/72/35 35/62/36 37/69/37 52/68/38
f 59/73/39 54/74/40 56/75/41 60/76/42
f 26/77/43 19/78/44 58/79/45 60/76/46
f 59/73/47 60/76/48 58/79/49 57/80/50
f 22/81/51 16/10/52 34/12/53 50/82/54
f 22/81/55 50/82/56 63/83/57 21/84/58
f 14/85/59 44/67/60 39/11/61 16/10/62
f 28/1/63 20/3/2 19/86/64 26/87/65
f 66/4/66 48/6/67 33/9/68 15/8/69
f 38/7/70 43/88/71 13/89/72 15/8/73
f 21/90/74 27/53/22 28/56/22 22/91/75
f 34/12/76 39/11/77 41/66/78 36/92/79
f 37/69/80 42/93/81 38/94/82 33/70/83
f 37/69/84 35/62/85 40/61/85 42/93/86
f 18/95/87 45/96/88 46/97/89 25/98/90
f 41/64/91 46/97/92 45/96/93 40/61/94
f 25/99/95 46/65/96 44/67/97 14/85/98
f 30/100/99 13/101/100 43/102/101 47/103/102
f 38/94/103 42/93/104 47/103/105 43/102/106
f 18/95/107 30/100/108 47/103/109 45/96/110
f 42/93/111 40/61/112 45/96/113 47/103/114
f 35/62/115 49/72/116 51/104/117 36/63/118
f 34/12/119 36/92/120 51/105/121 50/82/122
f 17/50/123 49/72/124 52/68/125 29/106/126
f 26/77/127 60/76/128 56/75/129 16/107/130
f 56/108/131 54/109/132 14/85/133 16/10/134
f 54/74/135 59/73/136 25/110/137 14/111/138
f 25/110/139 59/73/140 57/80/141 18/112/139
f 61/113/142 53/114/143 13/115/144 30/116/145
f 13/115/146 53/114/147 55/117/148 15/118/149
f 15/118/150 55/117/151 62/119/152 31/120/153
f 53/114/154 61/113/155 62/119/156 55/117/157
f 31/120/158 62/119/159 58/79/160 19/78/161
f 57/80/162 61/113/163 30/116/164 18/112/164
f 57/80/165 58/79/166 62/119/167 61/113/168
f 27/121/169 21/84/170 63/83/171 64/122/172
f 50/82/173 51/105/174 64/122/175 63/83/176
f 49/72/177 17/50/178 64/49/179 51/104/180
f 16/10/181 22/81/182 28/123/183 26/124/184
f 48/71/185 65/125/186 29/106/187 52/68/188
f 29/126/189 65/5/190 66/4/191 32/127/192
f 31/128/193 19/86/194 20/3/195 32/129/196
f 32/129/197 66/130/198 15/131/199 31/128/200
