# Blender 4.5.2 LTS
# www.blender.org
mtllib RFB-枪口-原皮.mtl
o RFB.003
v 134.825485 0.050715 56.146126
v 134.825485 1.336119 55.890453
v 134.825485 -1.234688 55.890453
v 134.825485 2.425836 55.162296
v 134.825485 -2.324401 55.162296
v 134.825485 3.153956 54.072605
v 134.825485 -3.052520 54.072605
v 134.825485 3.409635 52.787189
v 134.825485 -3.308206 52.787189
v 134.825485 3.153956 51.501797
v 134.825485 -3.052520 51.501797
v 134.825485 2.425836 50.412052
v 134.825485 -2.324401 50.412052
v 134.825485 1.336120 49.683949
v 134.825485 -1.234688 49.683949
v 134.825485 0.050715 49.428238
v 134.825485 0.050717 56.573261
v 134.825485 1.499572 56.285061
v 134.825485 -1.398137 56.285061
v 134.825485 2.727858 55.464333
v 134.825485 -2.626415 55.464333
v 134.825485 3.548562 54.236042
v 134.825485 -3.447133 54.236042
v 134.825485 3.836755 52.787189
v 134.825485 -3.735330 52.787189
v 134.825485 3.548562 51.338337
v 134.825485 -3.447133 51.338337
v 134.825485 2.727856 50.110058
v 134.825485 -2.626418 50.110058
v 134.825485 1.499570 49.289345
v 134.825485 -1.398139 49.289345
v 134.825485 0.050715 49.001156
v 137.374069 3.548562 54.236042
v 137.374069 2.727858 55.464329
v 137.374069 3.836755 52.787186
v 137.374069 1.499572 56.285061
v 137.374069 3.548562 51.338333
v 137.374069 0.050717 56.573261
v 137.374069 2.727856 50.110058
v 137.374069 -1.398139 56.285061
v 137.374069 1.499570 49.289341
v 137.374069 -2.626415 55.464329
v 137.374069 0.050715 49.001156
v 137.374069 -3.447133 54.236042
v 137.374069 -1.398139 49.289341
v 137.374069 -3.735330 52.787186
v 137.374069 -2.626418 50.110058
v 137.374069 -3.447133 51.338333
v 154.703384 0.050717 56.573261
v 154.703384 1.499572 56.285061
v 154.703384 2.727858 55.464329
v 154.703384 3.548562 54.236042
v 154.703384 3.836755 52.787186
v 154.703384 3.548562 51.338333
v 154.703384 2.727856 50.110058
v 154.703384 1.499570 49.289341
v 154.703384 0.050715 49.001156
v 154.703384 -1.398139 49.289341
v 154.703384 -2.626418 50.110058
v 154.703384 -3.447133 51.338333
v 154.703384 -3.735330 52.787186
v 154.703384 -3.447133 54.236042
v 154.703384 -2.626415 55.464329
v 154.703384 -1.398137 56.285061
v 154.703384 0.050715 55.727482
v 154.703384 1.175900 55.503628
v 154.703384 2.129788 54.866291
v 154.703384 2.767156 53.912388
v 154.703384 2.990965 52.787186
v 154.703384 2.767156 51.661999
v 154.703384 2.129789 50.708134
v 154.703384 1.175901 50.070698
v 154.703384 0.050715 49.846912
v 154.703384 -1.074467 50.070698
v 154.703384 -2.028352 50.708134
v 154.703384 -2.665718 51.661999
v 154.703384 -2.889534 52.787186
v 154.703384 -2.665718 53.912388
v 154.703384 -2.028352 54.866291
v 154.703384 -1.074467 55.503628
v 146.632309 1.846344 53.530949
v 146.632309 1.994289 52.787186
v 146.632309 1.425029 54.161526
v 146.632309 1.846344 52.043430
v 146.632309 0.794487 54.582806
v 146.632309 1.425029 51.412872
v 146.632309 0.050715 54.730793
v 146.632309 0.794488 50.991531
v 146.632309 -0.693056 54.582806
v 146.632309 0.050715 50.843594
v 146.632309 -1.323595 54.161526
v 146.632309 -0.693056 50.991531
v 146.632309 -1.744908 53.530949
v 146.632309 -1.323595 51.412872
v 146.632309 -1.892857 52.787186
v 146.632309 -1.744908 52.043430
v 152.330978 2.767156 51.661999
v 152.331070 2.990965 52.787186
v 152.331070 2.129789 50.708134
v 152.331070 2.767156 53.912388
v 152.330978 1.175901 50.070698
v 152.330978 2.129788 54.866291
v 152.330978 0.050715 49.846912
v 152.331070 1.175900 55.503628
v 152.330978 -1.074467 50.070698
v 152.330978 0.050715 55.727482
v 152.331070 -2.028352 50.708134
v 152.331070 -1.074467 55.503628
v 152.330978 -2.665718 51.661999
v 152.330978 -2.028352 54.866291
v 152.331070 -2.889534 52.787186
v 152.331070 -2.665718 53.912388
v 143.763611 3.548562 54.236042
v 143.763611 3.836755 52.787186
v 143.763611 2.727858 55.464329
v 143.763611 3.548562 51.338333
v 143.763611 1.499572 56.285061
v 143.763611 2.727856 50.110058
v 143.763611 0.050717 56.573261
v 143.763611 1.499570 49.289341
v 143.763611 -1.398139 56.285061
v 143.763611 0.050715 49.001156
v 143.763611 -2.626415 55.464329
v 143.763611 -1.398139 49.289341
v 143.763611 -3.447133 54.236042
v 143.763611 -2.626418 50.110058
v 143.763611 -3.735330 52.787186
v 143.763611 -3.447133 51.338333
v 153.388306 0.050717 56.573261
v 153.388306 1.499572 56.285061
v 153.388306 -1.398137 56.285061
v 153.388306 2.727858 55.464329
v 153.388306 -2.626415 55.464329
v 153.388306 3.548562 54.236042
v 153.388306 -3.447133 54.236042
v 153.388306 3.836755 52.787186
v 153.388306 -3.735330 52.787186
v 153.388306 3.548562 51.338333
v 153.388306 -3.447133 51.338333
v 153.388306 2.727856 50.110058
v 153.388306 -2.626418 50.110058
v 153.388306 1.499570 49.289341
v 153.388306 -1.398139 49.289341
v 153.388306 0.050715 49.001156
vn -1.0000 -0.0000 -0.0000
vn -0.0000 0.8315 0.5556
vn -0.0000 0.9808 0.1951
vn -0.0000 0.5556 0.8315
vn -0.0000 0.9808 -0.1951
vn -0.0000 0.1951 0.9808
vn -0.0000 0.8315 -0.5556
vn -0.0000 0.5556 -0.8315
vn -0.0000 0.1951 -0.9808
vn -0.0000 -0.8315 0.5556
vn -0.0000 -0.1951 -0.9808
vn -0.0000 -0.9808 0.1951
vn -0.0000 -0.5556 -0.8315
vn -0.0000 -0.9808 -0.1951
vn -0.0000 -0.8315 -0.5556
vn 1.0000 -0.0000 -0.0000
vn 0.0003 -0.9806 -0.1961
vn 0.0003 0.1965 -0.9805
vn 0.0003 0.9806 -0.1961
vn -0.0007 0.9822 0.1880
vn -0.0063 0.9795 0.2012
vn -0.0046 0.8283 0.5602
vn -0.0063 0.9795 -0.2012
vn -0.0007 0.9822 -0.1880
vn -0.0046 0.5602 0.8283
vn -0.0046 0.8284 -0.5602
vn -0.0082 0.1983 0.9801
vn -0.0007 0.1880 0.9822
vn -0.0046 0.5602 -0.8283
vn -0.0007 -0.1880 0.9822
vn -0.0033 -0.2032 0.9791
vn -0.0000 -0.1951 0.9808
vn -0.0007 0.1880 -0.9822
vn -0.0063 0.2012 -0.9795
vn -0.0000 -0.5556 0.8315
vn -0.0046 -0.5602 0.8283
vn -0.0063 -0.2012 -0.9795
vn -0.0007 -0.1880 -0.9822
vn -0.0046 -0.8284 0.5602
vn -0.0046 -0.5602 -0.8283
vn -0.0082 -0.9801 0.1983
vn -0.0007 -0.9822 0.1880
vn -0.0046 -0.8283 -0.5602
vn -0.0007 -0.9822 -0.1880
vn -0.0033 -0.9791 -0.2032
vn 0.0008 0.1857 0.9826
vn 0.0086 0.2035 0.9790
vn 0.0086 -0.2035 0.9790
vn 0.0008 -0.1857 0.9826
vn 0.0062 0.5616 0.8274
vn 0.0062 -0.5616 0.8274
vn 0.0062 0.8274 0.5616
vn 0.0062 -0.8274 0.5617
vn 0.0113 0.9798 0.1995
vn 0.0008 0.9826 0.1857
vn 0.0008 -0.9826 0.1857
vn 0.0086 -0.9790 0.2035
vn 0.0008 0.9826 -0.1857
vn 0.0045 0.9785 -0.2062
vn 0.0086 -0.9790 -0.2035
vn 0.0008 -0.9826 -0.1857
vn 0.0062 0.8274 -0.5616
vn 0.0062 -0.8273 -0.5617
vn 0.0062 0.5617 -0.8274
vn 0.0062 -0.5616 -0.8274
vn 0.0113 0.1995 -0.9798
vn 0.0008 0.1857 -0.9826
vn 0.0008 -0.1857 -0.9826
vn 0.0045 -0.2062 -0.9785
vn 0.9991 -0.0337 0.0240
vn 0.9990 -0.0449 0.0063
vn 0.9991 0.0337 -0.0240
vn 0.9990 0.0449 -0.0063
vn 0.9990 -0.0108 0.0441
vn 0.9991 -0.0393 -0.0135
vn 0.9991 0.0326 0.0256
vn 0.9991 -0.0298 0.0289
vn 0.9991 -0.0146 -0.0402
vn 0.9935 -0.1131 0.0132
vn 0.9938 0.0638 -0.0906
vn 0.9991 0.0426 -0.0039
vn 0.9991 -0.0326 -0.0256
vn 0.9990 0.0108 -0.0441
vn 0.9991 0.0393 0.0135
vn 0.9991 0.0146 0.0402
vn 0.9991 0.0298 -0.0289
vn 0.9991 -0.0426 0.0039
vn 0.9935 0.1131 -0.0132
vn 0.9938 -0.0638 0.0906
vn 0.0003 -0.9806 0.1961
vn 0.0012 -0.8316 0.5553
vn 0.0007 -0.8315 0.5556
vn 0.1691 -0.8195 0.5476
vn 0.1691 -0.8191 0.5481
vn 0.1688 -0.8202 0.5466
vn -0.0000 -0.5556 0.8314
vn -0.0000 -0.5561 0.8311
vn 0.0012 -0.5554 0.8316
vn 0.1691 -0.5476 0.8195
vn 0.1688 -0.5466 0.8202
vn 0.1685 -0.5477 0.8196
vn 0.1691 -0.8195 -0.5476
vn 0.1688 -0.8201 -0.5467
vn 0.1684 -0.8192 -0.5482
vn 0.0007 -0.8310 -0.5562
vn 0.0011 -0.8316 -0.5553
vn 0.0003 -0.1963 0.9805
vn 0.1691 -0.5475 -0.8195
vn 0.1683 -0.5482 -0.8192
vn 0.1688 -0.5465 -0.8203
vn 0.0013 -0.5553 -0.8317
vn 0.0007 -0.5562 -0.8311
vn 0.0003 0.1962 0.9806
vn 0.0003 -0.1963 -0.9806
vn -0.0000 0.5556 0.8314
vn 0.0012 0.5554 0.8316
vn 0.0010 0.5556 0.8314
vn 0.1691 0.5476 0.8195
vn 0.1691 0.5484 0.8190
vn 0.1688 0.5466 0.8202
vn -0.0000 0.8309 0.5564
vn 0.0009 0.8316 0.5554
vn 0.1688 0.8200 0.5468
vn 0.1682 0.8196 0.5477
vn 0.1691 0.8195 0.5476
vn 0.1691 0.5475 -0.8195
vn 0.1688 0.5465 -0.8203
vn 0.1686 0.5480 -0.8193
vn 0.0003 0.5558 -0.8313
vn 0.0013 0.5553 -0.8317
vn 0.0003 0.9806 0.1960
vn 0.1691 0.8195 -0.5476
vn 0.1686 0.8193 -0.5480
vn 0.1688 0.8201 -0.5468
vn 0.0012 0.8316 -0.5553
vn 0.0006 0.8311 -0.5561
vn -0.6205 0.7668 0.1642
vn -0.6173 0.7716 0.1535
vn -0.6247 0.7663 0.1505
vn 0.5380 0.8254 0.1709
vn 0.5390 0.8264 0.1629
vn 0.5172 0.8459 0.1301
vn 0.4941 0.8531 0.1676
vn -0.0000 0.3827 0.9239
vn -0.6236 -0.7649 0.1614
vn -0.6247 -0.7663 0.1505
vn -0.6173 -0.7716 0.1535
vn 0.5356 -0.8266 0.1729
vn 0.5301 -0.8216 0.2096
vn 0.5173 -0.8458 0.1302
vn 0.5390 -0.8264 0.1629
vn -0.0000 -0.3827 0.9239
vn -0.0000 -0.3827 -0.9239
vn 0.5172 -0.8459 -0.1301
vn 0.4941 -0.8531 -0.1676
vn 0.5397 -0.8249 -0.1681
vn 0.5390 -0.8264 -0.1629
vn -0.6173 -0.7716 -0.1535
vn -0.6246 -0.7663 -0.1505
vn -0.6236 -0.7649 -0.1614
vn -0.6173 0.7716 -0.1535
vn -0.6258 0.7639 -0.1575
vn -0.6246 0.7663 -0.1505
vn 0.5173 0.8458 -0.1302
vn 0.5390 0.8264 -0.1629
vn 0.5380 0.8254 -0.1709
vn 0.5301 0.8216 -0.2096
vn -0.0000 0.3827 -0.9239
vn -0.6173 -0.1535 0.7716
vn -0.6246 -0.1505 0.7663
vn -0.6236 -0.1615 0.7649
vn 0.5390 -0.1629 0.8264
vn 0.5168 -0.1291 0.8463
vn 0.4878 -0.2664 0.8313
vn 0.5397 -0.1681 0.8249
vn -0.0000 -0.9239 0.3827
vn -0.6246 -0.1505 -0.7663
vn -0.6172 -0.1535 -0.7717
vn -0.6257 -0.1576 -0.7640
vn 0.5390 -0.1629 -0.8264
vn 0.5380 -0.1709 -0.8254
vn 0.4419 -0.2130 -0.8714
vn 0.4333 -0.1821 -0.8827
vn -0.0000 -0.9239 -0.3827
vn -0.6172 0.1535 -0.7717
vn -0.6246 0.1505 -0.7663
vn -0.6205 0.1642 -0.7669
vn -0.0000 0.9239 -0.3827
vn 0.5390 0.1629 -0.8264
vn 0.5168 0.1291 -0.8463
vn 0.4877 0.2664 -0.8314
vn 0.5380 0.1709 -0.8254
vn -0.0000 0.9239 0.3827
vn 0.4419 0.2130 0.8714
vn 0.4334 0.1822 0.8826
vn 0.5390 0.1630 0.8264
vn 0.5356 0.1729 0.8266
vn -0.6173 0.1535 0.7716
vn -0.6236 0.1615 0.7649
vn -0.6246 0.1505 0.7663
vt 0.048824 0.760381
vt 0.048432 0.759795
vt 0.050686 0.758861
vt 0.050824 0.759553
vt 0.046706 0.761520
vt 0.047293 0.761912
vt 0.053127 0.758861
vt 0.052989 0.759553
vt 0.045772 0.763775
vt 0.046464 0.763913
vt 0.055382 0.759795
vt 0.054990 0.760381
vt 0.045772 0.766216
vt 0.046464 0.766078
vt 0.057107 0.761520
vt 0.056521 0.761912
vt 0.046706 0.768470
vt 0.047293 0.768078
vt 0.058041 0.763775
vt 0.057349 0.763913
vt 0.048432 0.770196
vt 0.048824 0.769609
vt 0.058041 0.766216
vt 0.057349 0.766078
vt 0.050687 0.771130
vt 0.050824 0.770438
vt 0.057107 0.768470
vt 0.056521 0.768078
vt 0.053127 0.771130
vt 0.052989 0.770438
vt 0.055382 0.770196
vt 0.054990 0.769609
vt 0.127149 0.690710
vt 0.124863 0.690728
vt 0.124863 0.686518
vt 0.127149 0.686500
vt 0.123078 0.690762
vt 0.123078 0.686553
vt 0.129588 0.690712
vt 0.129588 0.686502
vt 0.712144 0.227119
vt 0.712144 0.222910
vt 0.714364 0.222931
vt 0.714364 0.227140
vt 0.131809 0.690733
vt 0.131809 0.686523
vt 0.716803 0.222932
vt 0.716803 0.227142
vt 0.719089 0.222915
vt 0.719089 0.227124
vt 0.720874 0.222880
vt 0.720874 0.227089
vt 0.401631 0.690776
vt 0.399192 0.690774
vt 0.399192 0.686565
vt 0.401631 0.686566
vt 0.168000 0.721689
vt 0.168000 0.717479
vt 0.170221 0.717500
vt 0.170221 0.721710
vt 0.403851 0.690797
vt 0.403851 0.686587
vt 0.172660 0.717502
vt 0.172660 0.721712
vt 0.174946 0.717484
vt 0.176730 0.717450
vt 0.176730 0.721659
vt 0.174946 0.721694
vt 0.514952 0.759859
vt 0.517207 0.760793
vt 0.516430 0.761955
vt 0.514679 0.761230
vt 0.512511 0.759859
vt 0.512784 0.761230
vt 0.511033 0.761955
vt 0.510257 0.760793
vt 0.508531 0.762519
vt 0.509693 0.763295
vt 0.507597 0.764773
vt 0.508968 0.765046
vt 0.507597 0.767214
vt 0.508968 0.766941
vt 0.508531 0.769469
vt 0.509693 0.768692
vt 0.510257 0.771194
vt 0.511033 0.770033
vt 0.512784 0.770758
vt 0.512511 0.772128
vt 0.514952 0.772128
vt 0.514679 0.770758
vt 0.517207 0.771194
vt 0.516430 0.770033
vt 0.517771 0.768692
vt 0.518932 0.769469
vt 0.519866 0.767214
vt 0.518496 0.766941
vt 0.519866 0.764773
vt 0.518496 0.765046
vt 0.518932 0.762519
vt 0.517771 0.763295
vt 0.787038 0.124627
vt 0.785652 0.124654
vt 0.785652 0.120736
vt 0.787038 0.120709
vt 0.248658 0.788954
vt 0.247272 0.788981
vt 0.247272 0.785062
vt 0.248658 0.785035
vt 0.254052 0.785039
vt 0.254052 0.788957
vt 0.252328 0.788941
vt 0.252328 0.785023
vt 0.124863 0.701281
vt 0.123078 0.701316
vt 0.127149 0.701263
vt 0.712144 0.212356
vt 0.714364 0.212377
vt 0.129588 0.701265
vt 0.716803 0.212379
vt 0.131809 0.701286
vt 0.719089 0.212361
vt 0.396906 0.701345
vt 0.395121 0.701380
vt 0.395121 0.690827
vt 0.396906 0.690792
vt 0.720874 0.212326
vt 0.399192 0.701328
vt 0.168000 0.706926
vt 0.170221 0.706947
vt 0.401631 0.701329
vt 0.172660 0.706949
vt 0.403851 0.701350
vt 0.174946 0.706931
vt 0.176730 0.706896
vt 0.129588 0.717162
vt 0.131809 0.717183
vt 0.131809 0.719355
vt 0.129588 0.719334
vt 0.395121 0.719449
vt 0.395121 0.717277
vt 0.396906 0.717243
vt 0.396906 0.719415
vt 0.127149 0.717160
vt 0.127149 0.719333
vt 0.399192 0.717225
vt 0.399192 0.719397
vt 0.124863 0.717178
vt 0.124863 0.719350
vt 0.401631 0.717226
vt 0.401631 0.719399
vt 0.123078 0.717213
vt 0.123078 0.719385
vt 0.403851 0.717248
vt 0.403851 0.719420
vt 0.714364 0.196480
vt 0.712144 0.196459
vt 0.712144 0.194287
vt 0.714364 0.194308
vt 0.176730 0.688827
vt 0.176730 0.690999
vt 0.174946 0.691034
vt 0.174946 0.688862
vt 0.716803 0.196482
vt 0.716803 0.194310
vt 0.172660 0.691051
vt 0.172660 0.688879
vt 0.719089 0.196464
vt 0.719089 0.194292
vt 0.170221 0.691050
vt 0.170221 0.688878
vt 0.720874 0.196429
vt 0.720874 0.194257
vt 0.168000 0.691029
vt 0.168000 0.688856
vt 0.458462 0.071570
vt 0.457576 0.070684
vt 0.462030 0.066231
vt 0.462916 0.067117
vt 0.457097 0.069527
vt 0.460872 0.065751
vt 0.457097 0.068274
vt 0.459620 0.065751
vt 0.457576 0.067117
vt 0.458462 0.066231
vt 0.459619 0.072050
vt 0.463395 0.068274
vt 0.460872 0.072050
vt 0.463395 0.069527
vt 0.462916 0.070685
vt 0.462030 0.071570
vt 0.395121 0.686617
vt 0.396906 0.686582
vt 0.007523 0.794699
vt 0.009248 0.794715
vt 0.009248 0.798633
vt 0.007523 0.798617
vt 0.011142 0.798635
vt 0.011142 0.794716
vt 0.010877 0.785270
vt 0.009625 0.785269
vt 0.012917 0.794702
vt 0.012917 0.798621
vt 0.012051 0.785261
vt 0.787904 0.134069
vt 0.788813 0.124613
vt 0.789078 0.134060
vt 0.788813 0.120695
vt 0.014303 0.798594
vt 0.014303 0.794675
vt 0.790707 0.124615
vt 0.790330 0.134061
vt 0.790707 0.120696
vt 0.145255 0.798620
vt 0.145255 0.794701
vt 0.146980 0.794718
vt 0.146980 0.798636
vt 0.792432 0.124631
vt 0.792432 0.120713
vt 0.148874 0.794719
vt 0.148874 0.798638
vt 0.148609 0.785273
vt 0.147357 0.785272
vt 0.150649 0.794705
vt 0.150649 0.798624
vt 0.149782 0.785264
vt 0.249525 0.798395
vt 0.250434 0.788940
vt 0.250698 0.798386
vt 0.250434 0.785021
vt 0.152035 0.794678
vt 0.152035 0.798597
vt 0.251950 0.798387
vt 0.973394 0.394731
vt 0.972023 0.394459
vt 0.972023 0.392564
vt 0.973394 0.392291
vt 0.126465 0.706073
vt 0.125549 0.706091
vt 0.815918 0.536839
vt 0.818881 0.541592
vt 0.817278 0.550997
vt 0.815918 0.552736
vt 0.401310 0.715509
vt 0.403035 0.715525
vt 0.402073 0.706140
vt 0.400933 0.706129
vt 0.820102 0.471396
vt 0.818914 0.469665
vt 0.817514 0.460271
vt 0.820102 0.455499
vt 0.817266 0.228767
vt 0.817266 0.244664
vt 0.814303 0.239911
vt 0.815905 0.230506
vt 0.173344 0.702139
vt 0.174260 0.702121
vt 0.956977 0.394459
vt 0.955606 0.394731
vt 0.955606 0.392291
vt 0.956977 0.392564
vt 0.714685 0.198198
vt 0.712960 0.198181
vt 0.715062 0.207577
vt 0.713922 0.207566
vt 0.818484 0.389879
vt 0.818484 0.373982
vt 0.819672 0.375713
vt 0.821072 0.385107
vt 0.939403 0.392489
vt 0.939403 0.394385
vt 0.938032 0.394657
vt 0.938032 0.392217
vt 0.398508 0.706138
vt 0.397591 0.706155
vt 0.815814 0.336744
vt 0.814211 0.346149
vt 0.812851 0.347888
vt 0.812851 0.331991
vt 0.170541 0.692768
vt 0.168816 0.692751
vt 0.169778 0.702136
vt 0.170918 0.702147
vt 0.757509 0.818065
vt 0.754921 0.822836
vt 0.754921 0.806939
vt 0.756109 0.808670
vt 0.858185 0.973783
vt 0.858185 0.971888
vt 0.859555 0.971615
vt 0.859555 0.974056
vt 0.815956 0.789692
vt 0.817559 0.780287
vt 0.818919 0.778547
vt 0.818919 0.794444
vt 0.717487 0.207569
vt 0.718404 0.207551
vt 0.819780 0.759267
vt 0.818592 0.757536
vt 0.817192 0.748142
vt 0.819780 0.743370
vt 0.130031 0.706076
vt 0.128890 0.706065
vt 0.130993 0.715461
vt 0.129268 0.715444
s 1
usemtl 材质.003
f 1/1/1 17/2/1 18/3/1 2/4/1
f 19/5/1 17/2/1 1/1/1 3/6/1
f 2/4/1 18/3/1 20/7/1 4/8/1
f 21/9/1 19/5/1 3/6/1 5/10/1
f 4/8/1 20/7/1 22/11/1 6/12/1
f 23/13/1 21/9/1 5/10/1 7/14/1
f 6/12/1 22/11/1 24/15/1 8/16/1
f 25/17/1 23/13/1 7/14/1 9/18/1
f 8/16/1 24/15/1 26/19/1 10/20/1
f 27/21/1 25/17/1 9/18/1 11/22/1
f 10/20/1 26/19/1 28/23/1 12/24/1
f 29/25/1 27/21/1 11/22/1 13/26/1
f 12/24/1 28/23/1 30/27/1 14/28/1
f 31/29/1 29/25/1 13/26/1 15/30/1
f 14/28/1 30/27/1 32/31/1 16/32/1
f 32/31/1 31/29/1 15/30/1 16/32/1
f 34/33/2 33/34/2 22/35/2 20/36/2
f 22/35/3 33/34/3 35/37/3 24/38/3
f 36/39/4 34/33/4 20/36/4 18/40/4
f 24/41/5 35/42/5 37/43/5 26/44/5
f 38/45/6 36/39/6 18/40/6 17/46/6
f 26/44/7 37/43/7 39/47/7 28/48/7
f 28/48/8 39/47/8 41/49/8 30/50/8
f 30/50/9 41/49/9 43/51/9 32/52/9
f 44/53/10 42/54/10 21/55/10 23/56/10
f 32/57/11 43/58/11 45/59/11 31/60/11
f 46/61/12 44/53/12 23/56/12 25/62/12
f 31/60/13 45/59/13 47/63/13 29/64/13
f 48/65/14 46/66/14 25/67/14 27/68/14
f 29/64/15 47/63/15 48/65/15 27/68/15
f 50/69/16 49/70/16 65/71/16 66/72/16
f 51/73/16 50/69/16 66/72/16 67/74/16
f 68/75/16 52/76/16 51/73/16 67/74/16
f 53/77/16 52/76/16 68/75/16 69/78/16
f 54/79/16 53/77/16 69/78/16 70/80/16
f 55/81/16 54/79/16 70/80/16 71/82/16
f 56/83/16 55/81/16 71/82/16 72/84/16
f 57/85/16 56/83/16 72/84/16 73/86/16
f 74/87/16 58/88/16 57/85/16 73/86/16
f 59/89/16 58/88/16 74/87/16 75/90/16
f 60/91/16 59/89/16 75/90/16 76/92/16
f 77/93/16 61/94/16 60/91/16 76/92/16
f 62/95/16 61/94/16 77/93/16 78/96/16
f 63/97/16 62/95/16 78/96/16 79/98/16
f 64/99/16 63/97/16 79/98/16 80/100/16
f 49/70/16 64/99/16 80/100/16 65/71/16
f 100/101/17 98/102/14 69/103/14 68/104/14
f 108/105/18 106/106/9 65/107/9 80/108/9
f 77/109/5 111/110/5 112/111/19 78/112/5
f 33/34/3 113/113/20 114/114/21 35/37/3
f 115/115/2 113/113/22 33/34/2 34/33/2
f 35/42/5 114/116/23 116/117/24 37/43/5
f 117/118/25 115/115/4 34/33/4 36/39/4
f 37/43/7 116/117/26 118/119/7 39/47/7
f 119/120/27 117/118/28 36/39/6 38/45/6
f 39/47/8 118/119/8 120/121/29 41/49/8
f 121/122/30 119/123/31 38/124/32 40/125/32
f 41/49/9 120/121/33 122/126/34 43/51/9
f 123/127/35 121/122/36 40/125/35 42/54/35
f 43/58/11 122/128/37 124/129/38 45/59/11
f 125/130/39 123/127/10 42/54/10 44/53/10
f 45/59/13 124/129/40 126/131/13 47/63/13
f 127/132/41 125/130/42 44/53/12 46/61/12
f 47/63/15 126/131/15 128/133/43 48/65/15
f 128/133/44 127/134/45 46/66/14 48/65/14
f 130/135/46 129/136/47 49/137/6 50/138/6
f 49/139/32 129/140/48 131/141/49 64/142/32
f 115/115/4 117/118/25 130/135/50 132/143/4
f 132/143/4 130/135/50 50/138/4 51/144/4
f 64/142/35 131/141/51 133/145/35 63/146/35
f 115/115/2 132/143/2 134/147/52 113/113/22
f 134/147/52 132/143/2 51/144/2 52/148/2
f 63/146/10 133/145/10 135/149/53 62/150/10
f 135/149/53 133/145/10 123/127/10 125/130/39
f 136/151/54 134/147/55 52/148/3 53/152/3
f 62/150/12 135/149/56 137/153/57 61/154/12
f 138/155/58 136/156/59 53/157/5 54/158/5
f 61/159/14 137/160/60 139/161/61 60/162/14
f 116/117/26 138/155/62 140/163/7 118/119/7
f 140/163/7 138/155/62 54/158/7 55/164/7
f 60/162/15 139/161/63 141/165/15 59/166/15
f 141/165/15 139/161/63 128/133/43 126/131/15
f 118/119/8 140/163/8 142/167/64 120/121/29
f 142/167/64 140/163/8 55/164/8 56/168/8
f 59/166/13 141/165/13 143/169/65 58/170/13
f 124/129/40 143/169/65 141/165/13 126/131/13
f 144/171/66 142/167/67 56/168/9 57/172/9
f 58/170/11 143/169/68 144/173/69 57/174/11
f 84/175/70 82/176/71 93/177/72 95/178/73
f 82/176/74 81/179/75 91/180/16 93/177/76
f 81/179/77 83/181/16 89/182/78 91/180/16
f 83/181/16 85/183/79 87/184/80 89/182/81
f 86/185/16 84/175/82 95/178/83 96/186/84
f 88/187/85 86/185/16 96/186/86 94/188/16
f 88/187/87 94/188/16 92/189/88 90/190/89
f 40/125/32 38/124/32 17/191/32 19/192/32
f 42/54/35 40/125/35 19/192/35 21/55/35
f 98/193/12 97/194/90 70/195/12 69/196/12
f 71/197/10 70/195/10 97/194/91 99/198/92
f 86/199/93 99/198/94 97/194/95 84/200/93
f 71/197/96 99/198/97 101/201/98 72/202/96
f 88/203/99 101/201/100 99/198/101 86/199/99
f 81/204/102 100/101/103 102/205/104 83/206/102
f 102/205/105 100/101/106 68/104/15 67/207/15
f 73/208/32 72/202/32 101/201/107 103/209/32
f 83/206/108 102/205/109 104/210/110 85/211/108
f 104/210/111 102/205/112 67/207/13 66/212/13
f 73/213/6 103/214/6 105/215/113 74/216/6
f 106/217/11 104/210/114 66/212/11 65/218/11
f 74/216/115 105/215/116 107/219/117 75/220/115
f 94/221/118 107/219/119 105/215/120 92/222/118
f 75/220/2 107/219/121 109/223/122 76/224/2
f 109/223/123 107/219/124 94/221/125 96/225/125
f 89/226/126 108/105/127 110/227/128 91/228/126
f 110/227/129 108/105/130 80/108/8 79/229/8
f 76/224/3 109/223/131 111/230/3 77/231/3
f 91/228/132 110/227/133 112/111/134 93/232/132
f 112/111/135 110/227/136 79/229/7 78/112/7
f 133/145/35 131/141/51 121/122/36 123/127/35
f 136/233/137 98/234/138 100/235/138 134/236/139
f 114/114/140 113/113/141 81/237/142 82/238/143
f 116/239/144 84/240/144 97/241/144 138/242/144
f 137/153/145 135/149/146 112/243/147 111/244/147
f 127/132/148 95/245/149 93/246/150 125/130/151
f 139/247/152 109/248/152 96/249/152 128/250/152
f 135/251/153 125/252/153 93/253/153 112/254/153
f 96/255/154 95/256/155 127/134/156 128/133/157
f 109/257/158 139/258/159 137/259/160 111/260/158
f 97/261/161 98/262/161 136/156/162 138/155/163
f 84/263/164 116/117/165 114/116/166 82/264/167
f 113/265/168 134/266/168 100/267/168 81/268/168
f 106/269/169 108/270/169 131/271/170 129/272/171
f 121/122/172 89/273/173 87/274/174 119/123/175
f 85/275/176 104/276/176 130/277/176 117/278/176
f 143/169/177 105/279/178 103/280/178 144/173/179
f 124/129/180 122/128/181 90/281/182 92/282/183
f 88/283/184 120/284/184 142/285/184 101/286/184
f 103/287/185 101/288/185 142/289/186 144/290/187
f 92/291/188 105/292/188 143/293/188 124/294/188
f 120/121/189 88/295/190 90/296/191 122/126/192
f 131/297/193 108/298/193 89/299/193 121/300/193
f 87/301/194 85/302/195 117/118/196 119/120/197
f 106/303/198 129/136/199 130/135/200 104/304/198
