# Created by Metasequoia

mtllib CSLR14_Slide.mtl

v 106.655182 -9.247025 58.974396
v 106.187927 -9.247025 57.846321
v 105.059860 -9.247025 57.379066
v 105.776627 -4.779133 59.691170
v 105.059853 -4.779133 59.988060
v 104.343079 -4.779133 59.691170
v 105.776627 -4.779133 58.257622
v 106.073517 -4.779133 58.974396
v 104.343079 -4.779133 58.257622
v 105.059860 -4.779133 57.960732
v 104.046112 -4.779133 58.974396
v 105.059853 -9.247025 60.569725
v 106.187920 -9.247025 60.102463
v 106.881752 -14.371538 60.796303
v 106.881752 -15.517092 60.796303
v 105.059853 -15.517092 61.550957
v 105.059853 -14.371538 61.550957
v 107.636429 -15.517094 58.974396
v 107.636429 -14.371540 58.974396
v 106.881760 -15.517092 57.152489
v 106.881760 -14.371538 57.152489
v 105.059860 -14.371538 56.397827
v 105.059860 -15.517092 56.397827
v 103.237946 -14.371538 57.152489
v 103.237946 -15.517092 57.152489
v 102.483292 -14.371536 58.974396
v 102.483292 -15.517092 58.974396
v 105.059860 -15.517092 57.379066
v 103.931793 -15.517092 57.846321
v 103.237946 -14.371538 60.796303
v 103.237946 -15.517092 60.796303
v 106.509773 -14.371538 60.424385
v 107.110352 -14.371538 58.974396
v 105.059860 -7.415480 56.923904
v 103.609863 -7.415480 57.524483
v 103.609863 -14.371538 57.524483
v 105.059860 -14.371538 56.923904
v 105.059853 -14.371538 61.024956
v 103.609863 -14.371538 60.424385
v 106.509773 -14.371538 57.524483
v 103.009277 -14.371538 58.974396
v 102.796539 -7.415480 58.974396
v 103.459435 -7.415480 60.574806
v 103.609863 -7.415480 60.424385
v 103.009277 -7.415480 58.974396
v 107.110352 -7.415480 58.974396
v 106.509773 -7.415480 57.524483
v 106.509773 -7.415480 60.424385
v 105.059853 -7.415480 61.024956
v 103.459442 -6.492760 57.374054
v 102.796539 -6.492760 58.974396
v 103.459442 -7.415480 57.374054
v 105.059860 -7.415480 56.711159
v 107.323090 -7.415480 58.974396
v 106.660202 -7.415480 57.374054
v 106.660187 -7.415480 60.574806
v 105.059853 -7.415480 61.237633
v 105.059853 -6.492760 59.988060
v 105.776627 -6.492760 59.691170
v 106.660187 -6.492760 60.574730
v 105.059853 -6.492760 61.237633
v 105.059860 -6.492760 56.711159
v 106.660202 -6.492760 57.374054
v 107.323090 -6.492760 58.974396
v 103.459435 -6.492760 60.574806
v 104.343079 -6.492760 59.691170
v 104.046112 -6.492760 58.974396
v 104.343079 -6.492760 58.257622
v 105.059860 -6.492760 57.960732
v 105.776627 -6.492760 58.257622
v 106.073517 -6.492760 58.974396
v 103.931793 -9.247025 57.846321
v 105.059853 -15.517092 60.569725
v 103.931786 -15.517092 60.102463
v 106.187920 -15.517092 60.102463
v 106.187927 -15.517092 57.846321
v 106.655182 -15.517092 58.974396
v 103.464523 -15.517092 58.974396
v 103.931786 -9.247025 60.102463
v 103.464523 -9.247025 58.974396
v 102.542244 2.570583 65.723679
v 52.905464 2.570587 65.723679
v 102.542244 3.504810 63.310165
v 46.388947 -5.029015 60.337112
v 49.946297 -3.681698 63.310173
v 102.542244 -5.029019 60.337105
v 49.946297 3.504814 63.310173
v 46.388947 4.655677 60.337112
v 102.542244 4.655670 60.337105
v 52.905464 -2.587929 65.723679
v 102.542244 -2.587933 65.723679
v 102.542244 -3.681702 63.310165
v 108.380836 -3.805302 56.372490
v 108.380836 -3.805302 60.337105
v 108.380836 -2.674317 63.310165
v 108.380836 2.590683 63.310165
v 108.380836 3.289897 60.337105
v 108.380836 3.289897 56.372490
v 46.388947 4.655677 56.372498
v 46.388947 3.289901 60.337112
v 46.388947 3.289906 56.372498
v 109.605911 4.655670 56.372490
v 109.605904 4.655670 60.337105
v 102.542252 4.655670 56.372490
v 109.605911 -5.029019 56.372490
v 109.605904 -5.029019 60.337105
v 109.605904 -3.805302 60.337105
v 109.605911 -3.805302 56.372490
v 46.388947 -5.029015 56.372498
v 102.542252 -5.029019 56.372490
v 102.542252 -3.805298 56.372490
v 49.946297 -2.674309 63.310173
v 52.905464 -1.756223 65.723679
v 102.542244 -1.756226 65.723679
v 109.605904 -2.587933 65.723679
v 109.605904 -3.681702 63.310165
v 109.605904 2.570583 65.723679
v 109.605904 3.504810 63.310165
v 109.605904 2.590683 63.310165
v 109.605904 2.022987 65.723679
v 109.605904 -1.756226 65.723679
v 109.605904 -2.674317 63.310165
v 102.542244 2.022987 65.723679
v 52.905464 2.022991 65.723679
v 49.946297 2.590686 63.310173
v 102.542252 3.289897 56.372490
v 109.605911 3.289897 56.372490
v 109.605904 3.289897 60.337105
v 46.388947 -3.805295 56.372498
v 46.388947 -3.805295 60.337112
# 130 vertices

vt 0.93200 0.95145
vt 0.92886 0.95145
vt 0.92664 0.95368
vt 0.37721 0.28568
vt 0.37721 0.28768
vt 0.37862 0.28909
vt 0.38061 0.28427
vt 0.37862 0.28427
vt 0.38203 0.28769
vt 0.38203 0.28569
vt 0.38061 0.28910
vt 0.93422 0.95681
vt 0.93422 0.95367
vt 0.94306 0.56599
vt 0.93999 0.56599
vt 0.93999 0.57087
vt 0.94306 0.57087
vt 0.94301 0.02555
vt 0.94301 0.02067
vt 0.93995 0.02067
vt 0.93995 0.02555
vt 0.94301 0.03042
vt 0.93995 0.03042
vt 0.94301 0.00793
vt 0.93995 0.00793
vt 0.93995 0.01281
vt 0.94301 0.01281
vt 0.94301 0.00305
vt 0.93995 0.00305
vt 0.02750 0.94247
vt 0.02750 0.93940
vt 0.02262 0.93940
vt 0.02262 0.94247
vt 0.61998 0.93557
vt 0.61765 0.93654
vt 0.62124 0.94013
vt 0.62220 0.93780
vt 0.03238 0.94247
vt 0.03238 0.93940
vt 0.93999 0.57575
vt 0.94306 0.57575
vt 0.15090 0.93236
vt 0.15375 0.92951
vt 0.15324 0.92826
vt 0.14965 0.93184
vt 0.41260 0.89371
vt 0.41260 0.89759
vt 0.43123 0.89759
vt 0.43123 0.89371
vt 0.16064 0.93237
vt 0.16065 0.93641
vt 0.16190 0.93693
vt 0.16190 0.93185
vt 0.15090 0.93640
vt 0.14965 0.93692
vt 0.15324 0.94051
vt 0.15375 0.93926
vt 0.15779 0.92951
vt 0.15831 0.92826
vt 0.15779 0.93927
vt 0.15831 0.94052
vt 0.80575 0.94373
vt 0.81020 0.94372
vt 0.80999 0.94322
vt 0.80596 0.94322
vt 0.54801 0.89255
vt 0.54801 0.88867
vt 0.52938 0.88867
vt 0.52938 0.89255
vt 0.64935 0.13899
vt 0.66797 0.13899
vt 0.66797 0.13511
vt 0.64935 0.13511
vt 0.64935 0.13123
vt 0.66797 0.13123
vt 0.77853 0.89810
vt 0.77853 0.89422
vt 0.75990 0.89422
vt 0.75990 0.89810
vt 0.41260 0.88983
vt 0.43123 0.88983
vt 0.54801 0.89643
vt 0.52938 0.89643
vt 0.77853 0.89034
vt 0.75990 0.89034
vt 0.94528 0.14990
vt 0.94528 0.15418
vt 0.94775 0.15418
vt 0.94775 0.14990
vt 0.80260 0.94058
vt 0.80310 0.94037
vt 0.80310 0.93633
vt 0.80260 0.93612
vt 0.81020 0.93295
vt 0.80575 0.93296
vt 0.80596 0.93346
vt 0.80999 0.93346
vt 0.81335 0.93610
vt 0.81285 0.93631
vt 0.81285 0.94035
vt 0.81335 0.94056
vt 0.93391 0.19324
vt 0.93391 0.19124
vt 0.93094 0.19001
vt 0.93094 0.19447
vt 0.94484 0.10283
vt 0.94731 0.10283
vt 0.94731 0.09855
vt 0.94484 0.09855
vt 0.94895 0.06369
vt 0.94895 0.05941
vt 0.94648 0.05941
vt 0.94648 0.06370
vt 0.94528 0.15847
vt 0.94775 0.15847
vt 0.94484 0.10712
vt 0.94731 0.10712
vt 0.94895 0.05512
vt 0.94648 0.05512
vt 0.94933 0.29998
vt 0.94686 0.29998
vt 0.94686 0.30426
vt 0.94933 0.30426
vt 0.94933 0.30855
vt 0.94686 0.30855
vt 0.99147 0.98925
vt 0.98955 0.98925
vt 0.98955 0.99384
vt 0.99147 0.99384
vt 0.93409 0.19762
vt 0.93532 0.19465
vt 0.93732 0.19465
vt 0.93855 0.19763
vt 0.94170 0.19448
vt 0.93873 0.19324
vt 0.93873 0.19124
vt 0.94170 0.19002
vt 0.93855 0.18686
vt 0.93732 0.18983
vt 0.93532 0.18983
vt 0.93409 0.18686
vt 0.80976 0.99111
vt 0.80784 0.99111
vt 0.80784 0.99570
vt 0.80976 0.99570
vt 0.87448 0.99091
vt 0.87256 0.99091
vt 0.87256 0.99550
vt 0.87448 0.99550
vt 0.66982 0.99598
vt 0.67174 0.99598
vt 0.67174 0.99139
vt 0.66982 0.99139
vt 0.66790 0.99598
vt 0.66790 0.99139
vt 0.99339 0.98925
vt 0.99339 0.99384
vt 0.81168 0.99111
vt 0.81168 0.99570
vt 0.87639 0.99091
vt 0.87639 0.99550
vt 0.90615 0.25526
vt 0.90917 0.25526
vt 0.90917 0.23847
vt 0.90615 0.23847
vt 0.62756 0.93244
vt 0.62756 0.93559
vt 0.62989 0.93656
vt 0.62989 0.93148
vt 0.62631 0.92788
vt 0.62534 0.93021
vt 0.61998 0.93243
vt 0.62220 0.93021
vt 0.62124 0.92787
vt 0.61765 0.93146
vt 0.62631 0.94014
vt 0.62534 0.93781
vt 0.90615 0.27991
vt 0.90917 0.27991
vt 0.90917 0.26312
vt 0.90615 0.26312
vt 0.90281 0.81761
vt 0.90583 0.81761
vt 0.90583 0.80082
vt 0.90281 0.80082
vt 0.90885 0.81761
vt 0.90885 0.80082
vt 0.90689 0.21383
vt 0.90387 0.21383
vt 0.90387 0.23062
vt 0.90689 0.23062
vt 0.91219 0.25526
vt 0.91219 0.23847
vt 0.91219 0.27991
vt 0.91219 0.26312
vt 0.90991 0.21383
vt 0.90991 0.23062
vt 0.92886 0.95904
vt 0.93200 0.95904
vt 0.92664 0.95682
vt 0.32508 0.53981
vt 0.19536 0.53981
vt 0.32508 0.54623
vt 0.35074 0.53089
vt 0.36008 0.53891
vt 0.49815 0.53089
vt 0.18763 0.54623
vt 0.17833 0.55414
vt 0.32508 0.55414
vt 0.36784 0.54541
vt 0.49815 0.54541
vt 0.49815 0.53891
vt 0.91079 0.05662
vt 0.90059 0.05662
vt 0.89294 0.05953
vt 0.89294 0.07308
vt 0.90059 0.07488
vt 0.91079 0.07488
vt 0.23352 0.85932
vt 0.23352 0.84912
vt 0.23000 0.84912
vt 0.23000 0.85932
vt 0.34354 0.56449
vt 0.34354 0.55414
vt 0.32508 0.56449
vt 0.73861 0.87240
vt 0.74881 0.87240
vt 0.74881 0.86925
vt 0.73861 0.86925
vt 0.35074 0.52050
vt 0.49815 0.52050
vt 0.35140 0.55327
vt 0.35140 0.55642
vt 0.36958 0.55642
vt 0.36958 0.55327
vt 0.40816 0.47517
vt 0.40559 0.48305
vt 0.40823 0.48295
vt 0.41034 0.47509
vt 0.40312 0.34484
vt 0.40531 0.34475
vt 0.51669 0.54541
vt 0.51669 0.53891
vt 0.76267 0.85284
vt 0.75646 0.85044
vt 0.75646 0.85279
vt 0.76267 0.85425
vt 0.76267 0.86612
vt 0.76267 0.86398
vt 0.75646 0.86634
vt 0.75646 0.86893
vt 0.41523 0.34437
vt 0.42026 0.47470
vt 0.42170 0.47465
vt 0.41667 0.34432
vt 0.42206 0.48242
vt 0.42445 0.48232
vt 0.36958 0.57468
vt 0.35140 0.57468
vt 0.35140 0.57820
vt 0.36958 0.57820
vt 0.49925 0.89877
vt 0.49925 0.88838
vt 0.49604 0.88838
vt 0.49604 0.89877
vt 0.73861 0.85099
vt 0.74881 0.85099
vt 0.74881 0.84747
vt 0.73861 0.84747
vt 0.00305 0.92877
vt 0.01660 0.92877
vt 0.01660 0.92562
vt 0.00305 0.92562
vt 0.21174 0.85932
vt 0.21174 0.84912
vt 0.20859 0.84912
vt 0.20859 0.85932
vt 0.40562 0.49240
vt 0.42425 0.49168
vt 0.42784 0.49155
vt 0.90614 0.11908
vt 0.90614 0.11148
vt 0.90295 0.11148
vt 0.90295 0.11908
vt 0.51669 0.53089
vt 0.40241 0.49253
vt 0.34354 0.54623
vt 0.51411 0.55642
vt 0.51411 0.57468
vt 0.51411 0.57820
vt 0.40459 0.32621
vt 0.41452 0.32582
vt 0.41595 0.32577
vt 0.34354 0.53981
vt 0.40241 0.32629
vt 0.51411 0.55327
vt 0.51669 0.52050
vt 0.17833 0.56449
vt 0.49925 0.90642
vt 0.49604 0.90642
vt 0.90614 0.12937
vt 0.90295 0.12937
# 302 texture vertices

vn 0.00000 -1.00000 0.00000
vn 0.00000 1.00000 0.00000
vn 0.70710 0.00000 0.70711
vn 0.00000 0.00000 1.00000
vn 1.00000 0.00000 0.00000
vn 0.70711 0.00000 -0.70711
vn 0.00000 0.00000 -1.00000
vn -0.70711 0.00000 -0.70711
vn -1.00000 0.00000 0.00000
vn -0.70711 0.00000 0.70711
vn 0.00000 1.00000 0.00000
vn 0.00000 1.00000 0.00000
vn 0.00001 0.00000 -1.00000
vn -0.70710 0.00000 -0.70712
vn 0.00000 1.00000 -0.00000
vn 0.00000 1.00000 -0.00000
vn 0.00000 1.00000 -0.00000
vn 1.00000 0.00000 -0.00001
vn 0.70711 0.00000 -0.70711
vn 0.70711 0.00000 0.70710
vn 0.00001 0.00000 1.00000
vn -0.70710 0.00000 -0.70711
vn -1.00000 0.00000 -0.00001
vn 0.00001 0.00000 -1.00000
vn 0.70711 0.00000 -0.70711
vn 1.00000 0.00001 0.00000
vn -0.70709 0.00000 0.70712
vn -0.70707 0.00000 0.70714
vn -1.00000 0.00000 0.00000
vn 0.70710 0.00000 0.70711
vn -0.00000 -1.00000 -0.00000
vn -0.00000 -1.00000 0.00000
vn -0.00000 -1.00000 -0.00000
vn 1.00000 0.00000 0.00000
vn 0.00000 0.93257 0.36098
vn 0.00000 0.93257 0.36099
vn 0.00000 0.93257 0.36099
vn -0.00000 -0.97745 0.21114
vn 0.00000 -0.91084 0.41277
vn -0.00000 -0.96743 0.25314
vn 0.00000 0.93257 0.36099
vn 0.00000 0.98300 0.18362
vn 0.00000 0.97546 0.22019
vn -0.00000 -0.91083 0.41277
vn -0.00000 -0.91083 0.41278
vn -0.00000 -0.91083 0.41277
vn 1.00000 0.00000 0.00000
vn 1.00000 0.00000 0.00000
vn -0.90589 0.00000 0.42351
vn 0.00000 0.98300 0.18362
vn 0.00000 1.00000 0.00000
vn 1.00000 0.00000 0.00000
vn 1.00000 0.00000 0.00000
vn -0.00000 -1.00000 -0.00000
vn -0.00000 -1.00000 -0.00000
vn -0.00000 0.00000 -1.00000
vn -0.63667 0.00000 0.77114
vn -0.33546 0.00000 0.94206
vn 0.00000 0.00000 1.00000
vn 0.00000 -0.91083 0.41278
vn 0.00000 -0.91083 0.41277
vn 0.00000 0.00000 -1.00000
vn 1.00000 0.00000 0.00000
vn 0.00000 1.00000 0.00000
vn -0.70710 0.00000 0.70711
vn -1.00000 0.00000 -0.00001
vn 0.70710 0.00003 0.70711
vn 0.00002 0.00002 1.00000
vn 0.00000 0.00000 -1.00000
vn -0.70707 0.00000 -0.70714
vn 0.70711 0.00000 -0.70711
vn 0.70711 0.00000 0.70711
vn -0.70711 0.00000 0.70711
vn -1.00000 0.00000 -0.00000
vn -0.70711 0.00000 -0.70711
vn -0.00000 0.00000 -1.00000
vn -0.33546 0.00000 0.94206
vn 0.00000 0.98353 -0.18075
vn 1.00000 0.00000 0.00000
vn 0.00000 -0.99334 -0.11524
vn 0.00000 -0.97344 -0.22894
vn 0.00000 -0.97745 0.21114
vn 0.00000 0.93257 0.36099
vn -0.00000 0.00000 -1.00000
vn 0.00000 0.93257 0.36098
vn 0.00000 1.00000 0.00000
vn 0.00000 0.93466 -0.35555
# 87 normal vertices

g slide
usemtl mat1
f 3/3/1 2/2/1 1/1/1
f 6/6/2 5/5/2 4/4/2
f 4/4/2 8/8/2 7/7/2
f 7/7/2 10/10/2 9/9/2
f 9/9/2 11/11/2 6/6/2
f 1/1/1 13/13/1 12/12/1
f 17/17/4 16/16/4 15/15/3 14/14/3
f 19/21/5 14/20/3 15/19/3 18/18/5
f 21/23/6 19/21/5 18/18/5 20/22/6
f 21/27/6 20/26/6 23/25/7 22/24/7
f 22/24/7 23/25/7 25/29/8 24/28/8
f 24/33/8 25/32/8 27/31/9 26/30/9
f 29/37/1 25/36/1 23/35/1 28/34/1
f 26/30/9 27/31/9 31/39/10 30/38/10
f 30/41/10 31/40/10 16/16/4 17/17/4
f 14/45/11 19/44/12 33/43/12 32/42/11
f 37/49/13 36/48/14 35/47/14 34/46/13
f 22/53/2 24/52/64 36/51/64 37/50/2
f 39/57/15 30/56/15 17/55/2 38/54/2
f 17/55/2 14/45/11 32/42/11 38/54/2
f 33/43/12 19/44/12 21/59/16 40/58/16
f 24/52/64 26/61/17 41/60/17 36/51/64
f 40/58/16 21/59/16 22/53/2 37/50/2
f 41/60/17 26/61/17 30/56/15 39/57/15
f 45/65/1 44/64/1 43/63/1 42/62/1
f 33/69/18 40/68/19 47/67/19 46/66/18
f 49/73/21 38/72/21 32/71/20 48/70/20
f 39/75/65 38/72/21 49/73/21 44/74/65
f 36/79/14 41/78/66 45/77/66 35/76/14
f 40/81/19 37/49/13 34/46/13 47/80/19
f 32/83/20 33/69/18 46/66/18 48/82/20
f 41/78/66 39/85/65 44/84/65 45/77/66
f 52/89/22 42/88/23 51/87/23 50/86/22
f 53/93/1 34/92/1 35/91/1 52/90/1
f 46/97/1 47/96/1 55/95/1 54/94/1
f 57/101/1 49/100/1 48/99/1 56/98/1
f 44/64/1 49/100/1 57/101/1 43/63/1
f 52/90/1 35/91/1 45/65/1 42/62/1
f 47/96/1 34/92/1 53/93/1 55/95/1
f 56/98/1 48/99/1 46/97/1 54/94/1
f 61/105/2 60/104/2 59/103/2 58/102/2
f 63/109/25 55/108/25 53/107/24 62/106/24
f 56/113/67 54/112/26 64/111/26 60/110/67
f 42/88/23 43/115/27 65/114/27 51/87/23
f 53/107/24 52/117/22 50/116/22 62/106/24
f 54/112/26 55/119/25 63/118/25 64/111/26
f 61/123/68 57/122/68 56/121/67 60/120/67
f 43/125/27 57/122/68 61/123/68 65/124/27
f 67/129/29 66/128/28 6/127/28 11/126/29
f 66/131/2 65/130/2 61/105/2 58/102/2
f 68/135/2 50/134/2 51/133/2 67/132/2
f 70/139/2 63/138/2 62/137/2 69/136/2
f 59/103/2 60/104/2 64/141/2 71/140/2
f 51/133/2 65/130/2 66/131/2 67/132/2
f 62/137/2 50/134/2 68/135/2 69/136/2
f 64/141/2 63/138/2 70/139/2 71/140/2
f 7/7/2 9/9/2 6/6/2 4/4/2
f 69/145/69 68/144/70 9/143/70 10/142/69
f 71/149/47 70/148/71 7/147/71 8/146/47
f 58/153/59 59/152/72 4/151/72 5/150/59
f 66/155/28 58/153/59 5/150/59 6/154/28
f 68/157/70 67/129/29 11/126/29 9/156/70
f 70/159/71 69/145/69 10/142/69 7/158/71
f 59/161/72 71/149/47 8/146/47 4/160/72
f 29/165/30 28/164/59 3/163/59 72/162/30
f 16/169/1 31/168/1 74/167/1 73/166/1
f 75/171/31 15/170/31 16/169/1 73/166/1
f 20/175/32 18/174/33 77/173/33 76/172/32
f 78/177/1 27/176/1 25/36/1 29/37/1
f 23/35/1 20/175/32 76/172/32 28/34/1
f 31/168/1 27/176/1 78/177/1 74/167/1
f 77/173/33 18/174/33 15/170/31 75/171/31
f 76/181/73 77/180/74 1/179/74 2/178/73
f 75/185/75 73/184/62 12/183/62 13/182/75
f 73/184/62 74/187/19 79/186/19 12/183/62
f 78/191/34 29/190/30 72/189/30 80/188/34
f 28/164/59 76/193/73 2/192/73 3/163/59
f 77/180/74 75/195/75 13/194/75 1/179/74
f 74/197/19 78/191/34 80/188/34 79/196/19
f 12/12/1 79/199/1 80/198/1 1/1/1
f 80/198/1 72/200/1 3/3/1 1/1/1
f 83/203/37 82/202/36 81/201/35
f 86/206/40 85/205/39 84/204/38
f 89/209/43 88/208/42 87/207/41
f 92/212/46 91/211/45 90/210/44
f 95/215/47 94/214/47 93/213/47
f 98/218/47 97/217/48 96/216/47
f 101/222/29 100/221/49 88/220/49 99/219/29
f 104/225/51 89/209/43 103/224/50 102/223/2
f 108/229/52 107/228/53 106/227/53 105/226/52
f 110/231/55 86/206/40 84/204/38 109/230/54
f 110/235/76 111/234/56 108/233/62 105/232/62
f 113/239/58 112/238/57 85/237/57 90/236/77
f 114/241/59 113/239/58 90/236/77 91/240/59
f 92/212/46 116/243/61 115/242/60 91/211/45
f 120/247/47 119/246/47 118/245/47 117/244/47
f 116/251/47 122/250/47 121/249/47 115/248/47
f 122/250/47 119/246/47 120/247/47 121/249/47
f 81/255/59 82/254/77 124/253/58 123/252/59
f 123/252/59 124/253/58 113/239/58 114/241/59
f 87/257/57 125/256/57 124/253/58 82/254/77
f 124/253/58 125/256/57 112/238/57 113/239/58
f 104/261/76 102/260/62 127/259/62 126/258/56
f 107/265/78 108/264/2 93/263/2 94/262/78
f 102/269/79 103/268/63 128/267/63 127/266/79
f 119/273/62 122/272/62 95/271/62 96/270/62
f 109/277/29 84/276/49 130/275/49 129/274/29
f 129/274/29 130/275/49 100/221/49 101/222/29
f 125/256/57 100/279/49 130/278/49 112/238/57
f 88/280/49 100/279/49 125/256/57 87/257/57
f 128/284/80 119/283/81 96/282/81 97/281/80
f 106/227/53 107/228/53 122/250/47 116/251/47
f 119/246/47 128/267/63 103/268/63 118/245/47
f 89/209/43 87/207/41 82/202/36 83/203/37
f 86/206/40 106/285/82 116/243/61 92/212/46
f 112/238/57 130/278/49 84/286/49 85/237/57
f 118/287/83 103/224/50 89/209/43 83/203/37
f 101/289/84 126/258/56 111/234/56 129/288/84
f 99/290/84 104/261/76 126/258/56 101/289/84
f 120/292/59 123/252/59 114/241/59 121/291/59
f 117/293/59 81/255/59 123/252/59 120/292/59
f 118/287/83 83/203/37 81/201/35 117/294/85
f 90/210/44 85/205/39 86/206/40 92/212/46
f 121/291/59 114/241/59 91/240/59 115/295/59
f 109/296/84 129/288/84 111/234/56 110/235/76
f 105/297/1 106/285/82 86/206/40 110/231/55
f 99/298/86 88/208/42 89/209/43 104/225/51
f 122/300/87 107/265/78 94/262/78 95/299/87
f 127/302/1 128/284/80 97/281/80 98/301/1
f 96/216/47 95/215/47 93/213/47 98/218/47
# 130 elements

