# Created by Metasequoia

mtllib MA10D-¿≠À®.mtl

v 25.681450 -5.261692 59.846088
v 24.476456 -5.493198 58.818768
v 57.304939 -5.261692 59.713017
v 58.509911 -5.493198 58.675571
v 58.509911 -5.493198 52.029724
v 57.304924 -5.261692 50.994637
v 25.681458 -5.261692 50.923897
v 24.476456 -5.493198 51.953598
v 25.680929 -2.102549 59.846088
v 24.475935 -2.334055 58.818768
v 57.304420 -2.102549 59.713017
v 58.509392 -2.334055 58.675571
v 58.509392 -2.334055 52.029724
v 57.304405 -2.102549 50.994637
v 25.680937 -2.102549 50.923897
v 24.475935 -2.334055 51.953598
v 25.681450 -5.261692 59.846088
v 24.476456 -5.493198 58.818768
v 57.304939 -5.261692 59.713017
v 58.509911 -5.493198 58.675571
v 58.509911 -5.493198 52.029724
v 57.304924 -5.261692 50.994637
v 25.681458 -5.261692 50.923897
v 24.476456 -5.493198 51.953598
v 55.928169 -6.324833 57.272816
v 55.928169 -6.324833 53.466011
v 58.509911 -6.324833 53.487480
v 58.509911 -6.324833 57.232456
v 54.199188 -5.493198 58.747181
v 54.199188 -5.493198 51.991653
v 56.530533 -5.352055 56.467773
v 56.530533 -5.557896 54.355247
v 56.530533 -6.766239 54.618721
v 56.530533 -7.317265 51.689835
v 56.530533 -10.118736 52.022018
v 56.530533 -10.549995 55.228752
v 56.530533 -9.819740 58.906689
v 56.530533 -6.664806 58.370075
v 56.530533 -6.511082 56.847858
v 56.530533 -7.233006 58.027554
v 56.530533 -7.466946 55.381660
v 56.530533 -9.719818 55.617882
v 56.530533 -9.297226 58.313068
v 56.530533 -7.613911 54.564705
v 56.530533 -9.920769 54.814919
v 56.530533 -9.716637 52.501556
v 56.530533 -8.035007 52.268250
v 57.560547 -5.352047 56.467773
v 57.560547 -5.557896 54.355247
v 57.560547 -6.766239 54.618721
v 57.560547 -7.317265 51.689835
v 57.560547 -10.118736 52.022018
v 57.560547 -10.549995 55.228752
v 57.560547 -9.819740 58.906689
v 57.560547 -6.664806 58.370075
v 57.560547 -6.511082 56.847858
v 57.560547 -7.233006 58.027554
v 57.560547 -7.466946 55.381660
v 57.560547 -9.719818 55.617882
v 57.560547 -9.297226 58.313068
v 57.560547 -7.613911 54.564705
v 57.560547 -9.920769 54.814919
v 57.560547 -9.716637 52.501556
v 57.560547 -8.035007 52.268250
v 56.438354 -6.857464 54.632515
v 56.438354 -7.391941 51.791534
v 56.438354 -10.036888 52.105148
v 56.438354 -10.456581 55.225838
v 56.438354 -9.746773 58.800755
v 56.438354 -6.749485 58.290958
v 56.438354 -6.603809 56.848469
v 56.438354 -7.133434 58.106838
v 56.438354 -7.383358 55.280205
v 56.438354 -9.825928 55.536308
v 56.438354 -9.374283 58.416813
v 56.438354 -7.505329 54.645668
v 56.438354 -10.022476 54.918694
v 56.438354 -9.802025 52.420319
v 56.438354 -7.960247 52.164795
v 57.652740 -6.857464 54.632515
v 57.652740 -7.391941 51.791534
v 57.652740 -10.036888 52.105148
v 57.652740 -10.456581 55.225838
v 57.652740 -9.746773 58.800755
v 57.652740 -6.749485 58.290958
v 57.652740 -6.603809 56.848469
v 57.652740 -7.133434 58.106838
v 57.652740 -7.383358 55.280205
v 57.652740 -9.825928 55.536308
v 57.652740 -9.374283 58.416813
v 57.652740 -7.505329 54.645668
v 57.652740 -10.022476 54.918694
v 57.652740 -9.802025 52.420319
v 57.652740 -7.960247 52.164795
# 94 vertices

vt 0.59713 0.39300
vt 0.61220 0.39307
vt 0.59488 0.39039
vt 0.59533 0.32109
vt 0.59842 0.33744
vt 0.60814 0.34231
vt 0.61447 0.32117
vt 0.61447 0.39047
vt 0.60910 0.32402
vt 0.60903 0.31836
vt 0.60081 0.31832
vt 0.60074 0.32398
vt 0.59749 0.32787
vt 0.61232 0.32793
vt 0.59761 0.31843
vt 0.81725 0.72259
vt 0.81725 0.73075
vt 0.81907 0.73390
vt 0.81907 0.71941
vt 0.61220 0.31849
vt 0.28885 0.30861
vt 0.29394 0.30861
vt 0.29394 0.29402
vt 0.28885 0.29402
vt 0.22175 0.18968
vt 0.22683 0.18968
vt 0.22683 0.17822
vt 0.22175 0.17822
vt 0.35623 0.15660
vt 0.36130 0.15660
vt 0.36130 0.15052
vt 0.35623 0.15052
vt 0.42497 0.11602
vt 0.43004 0.11602
vt 0.43004 0.10558
vt 0.42497 0.10558
vt 0.37139 0.34638
vt 0.36630 0.34638
vt 0.36630 0.35236
vt 0.37139 0.35236
vt 0.22370 0.34740
vt 0.22390 0.35894
vt 0.23002 0.35758
vt 0.23002 0.34666
vt 0.47535 0.00366
vt 0.47028 0.00366
vt 0.47028 0.01673
vt 0.47535 0.01673
vt 0.30491 0.17564
vt 0.29982 0.17564
vt 0.29982 0.18902
vt 0.30491 0.18902
vt 0.40804 0.27541
vt 0.41315 0.27541
vt 0.41315 0.25695
vt 0.40804 0.25695
vt 0.25549 0.13094
vt 0.26056 0.13094
vt 0.26056 0.11953
vt 0.25549 0.11953
vt 0.23531 0.15479
vt 0.24039 0.15479
vt 0.24039 0.14366
vt 0.23531 0.14366
vt 0.20398 0.32451
vt 0.20905 0.32451
vt 0.20905 0.31063
vt 0.20398 0.31063
vt 0.35623 0.07138
vt 0.36130 0.07138
vt 0.36130 0.06303
vt 0.35623 0.06303
vt 0.23734 0.36843
vt 0.24244 0.36843
vt 0.24244 0.35706
vt 0.23734 0.35706
vt 0.40804 0.29107
vt 0.41315 0.29107
vt 0.33221 0.35839
vt 0.33728 0.35839
vt 0.33728 0.34264
vt 0.33221 0.34264
vt 0.13261 0.36737
vt 0.13768 0.36737
vt 0.13768 0.35712
vt 0.13261 0.35712
vt 0.35623 0.11426
vt 0.36132 0.11426
vt 0.36132 0.10678
vt 0.35623 0.10678
vt 0.42133 0.03055
vt 0.42152 0.01901
vt 0.41520 0.01826
vt 0.41520 0.02918
vt 0.22323 0.34743
vt 0.22234 0.33213
vt 0.22191 0.33261
vt 0.21881 0.33424
vt 0.21838 0.33473
vt 0.21939 0.34670
vt 0.21990 0.34717
vt 0.22342 0.35890
vt 0.22021 0.35048
vt 0.21973 0.35096
vt 0.21961 0.36463
vt 0.22008 0.36508
vt 0.20845 0.36555
vt 0.20890 0.36506
vt 0.20808 0.35105
vt 0.20758 0.35057
vt 0.20450 0.34867
vt 0.20402 0.34864
vt 0.20593 0.36784
vt 0.20635 0.36733
vt 0.20745 0.34683
vt 0.20688 0.34731
vt 0.20783 0.33243
vt 0.20821 0.33290
vt 0.20925 0.33463
vt 0.20965 0.33509
vt 0.22235 0.36666
vt 0.22195 0.36622
vt 0.42332 0.00422
vt 0.42288 0.00373
vt 0.42200 0.01903
vt 0.42532 0.01877
vt 0.42584 0.01831
vt 0.42685 0.00634
vt 0.42641 0.00584
vt 0.42514 0.03668
vt 0.42561 0.03623
vt 0.42549 0.02256
vt 0.42501 0.02209
vt 0.42180 0.03050
vt 0.43887 0.03893
vt 0.43930 0.03944
vt 0.44120 0.02024
vt 0.44072 0.02027
vt 0.43765 0.02218
vt 0.43715 0.02265
vt 0.43633 0.03666
vt 0.43677 0.03715
vt 0.43835 0.01892
vt 0.43777 0.01844
vt 0.43557 0.00669
vt 0.43597 0.00623
vt 0.43702 0.00450
vt 0.43739 0.00404
vt 0.42327 0.03782
vt 0.42287 0.03827
# 150 texture vertices

vn -0.89950 -0.00015 -0.43692
vn -0.89923 -0.00015 0.43747
vn -0.91708 -0.00015 0.39870
vn -0.91729 -0.00015 -0.39823
vn -0.32835 -0.00005 -0.94455
vn -0.36043 -0.00006 -0.93279
vn 0.33170 0.00005 -0.94338
vn 0.36373 0.00006 -0.93150
vn 0.90011 0.00015 -0.43567
vn 0.91777 0.00015 -0.39711
vn 0.90037 0.00015 0.43512
vn 0.91797 0.00015 0.39664
vn 0.33321 0.00005 0.94285
vn 0.36514 0.00006 0.93095
vn -0.32685 -0.00005 0.94508
vn -0.35901 -0.00006 0.93333
vn -0.00016 1.00000 -0.00000
vn -0.00016 1.00000 -0.00000
vn -0.00016 1.00000 -0.00000
vn -0.00016 1.00000 -0.00000
vn -0.00016 1.00000 -0.00000
vn -0.16235 -0.96544 0.20389
vn 0.00412 -0.96671 0.25584
vn 0.00219 -0.96695 -0.25495
vn -0.16375 -0.96567 -0.20168
vn -0.06297 -0.98296 -0.17270
vn -0.06243 -0.98274 0.17412
vn 0.00311 -0.91024 -0.41407
vn 1.00000 0.00000 0.00000
vn 0.00591 -0.90832 0.41824
vn 0.00030 -0.99747 0.07108
vn 0.00094 -0.97446 0.22455
vn 0.00094 -0.97446 0.22455
vn 0.00050 -0.97509 -0.22182
vn 0.00050 -0.97509 -0.22182
vn 0.00016 -0.99753 -0.07018
vn 0.50311 0.85248 -0.14197
vn -0.50316 0.85245 -0.14197
vn -0.29405 0.93931 -0.17672
vn 0.29403 0.93932 -0.17672
vn 0.44269 -0.88197 0.16173
vn -0.44274 -0.88195 0.16172
vn -0.44726 -0.87973 0.16132
vn 0.44722 -0.87976 0.16132
vn 0.00000 -0.21304 -0.97704
vn -0.00000 0.99529 -0.09698
vn -0.00000 0.99529 -0.09698
vn -0.00000 0.99529 -0.09698
vn -0.00000 0.31161 0.95021
vn -0.00000 0.31161 0.95021
vn -0.00000 0.31161 0.95021
vn 1.00000 0.00000 0.00000
vn 0.85612 0.51676 -0.00344
vn 0.44501 -0.89205 0.07887
vn -0.44506 -0.89202 0.07887
vn -0.44251 -0.89328 0.07898
vn 0.44247 -0.89330 0.07898
vn 0.44367 0.88537 -0.13882
vn -0.44372 0.88535 -0.13882
vn -0.44640 0.88404 -0.13861
vn 0.44635 0.88406 -0.13862
vn 0.37220 -0.92770 0.02892
vn -0.37224 -0.92769 0.02892
vn -0.29049 -0.93856 0.18635
vn 0.29047 -0.93856 0.18635
vn 0.44723 -0.09645 -0.88920
vn -0.44728 -0.09645 -0.88918
vn -0.45207 -0.09619 -0.88678
vn 0.45202 -0.09619 -0.88681
vn 0.44633 0.09332 0.88999
vn -0.44638 0.09332 0.88996
vn -0.44503 0.09338 0.89063
vn 0.44499 0.09339 0.89065
vn 0.29403 -0.11254 -0.94915
vn -0.29405 -0.11254 -0.94914
vn -0.30905 -0.11198 -0.94443
vn 0.30903 -0.11199 -0.94444
vn 0.43568 0.12369 0.89156
vn -0.43573 0.12369 0.89154
vn -0.44274 0.12322 0.88814
vn 0.44270 0.12322 0.88816
vn 0.45201 0.88856 0.07841
vn -0.45206 0.88854 0.07840
vn -0.43571 0.89660 0.07912
vn 0.43567 0.89662 0.07912
vn 0.30904 -0.94256 -0.12676
vn -0.30907 -0.94255 -0.12676
vn 0.29047 0.16045 0.94334
vn -0.29049 0.16045 0.94333
vn -0.31039 0.15940 0.93715
vn 0.31036 0.15940 0.93716
vn 0.44247 -0.12287 -0.88833
vn -0.44251 -0.12287 -0.88831
vn -0.44371 -0.12279 -0.88772
vn 0.44366 -0.12279 -0.88774
vn 0.31037 0.94580 0.09551
vn -0.31040 0.94580 0.09551
vn -0.49947 0.86567 0.03398
vn 0.00000 0.99494 0.10048
vn -1.00000 0.00000 0.00000
vn -1.00000 0.00000 0.00000
vn 0.92083 0.38558 -0.05826
vn 0.90322 0.25403 -0.34592
vn 0.98670 -0.09522 0.13176
vn 0.98957 -0.11546 -0.08609
vn 0.91513 0.40314 -0.00269
vn 0.98822 -0.09731 0.11812
vn 0.98654 -0.12790 -0.10185
vn 0.98736 0.09452 -0.12725
vn 0.98906 0.11697 0.08992
vn 0.91093 -0.41236 0.01285
vn 0.90449 -0.24193 0.35125
vn 0.99216 0.08748 -0.08925
vn 0.89896 -0.30729 -0.31216
vn 0.98140 0.13910 0.13233
vn 0.89869 0.32047 0.29944
vn -0.90324 0.25400 -0.34589
vn -0.92085 0.38554 -0.05825
vn -0.98958 -0.11545 -0.08608
vn -0.98670 -0.09521 0.13175
vn -0.98655 -0.12788 -0.10184
vn -0.98822 -0.09730 0.11811
vn -0.91515 0.40310 -0.00269
vn -0.90451 -0.24191 0.35121
vn -0.91095 -0.41232 0.01285
vn -0.98906 0.11695 0.08991
vn -0.98736 0.09450 -0.12723
vn -0.99216 0.08747 -0.08924
vn -0.98140 0.13908 0.13231
vn -0.89898 -0.30726 -0.31212
vn -0.89871 0.32043 0.29941
# 131 normal vertices

g obj7
s 1
usemtl mat5
f 8/1/4 2/2/3 10/2/2 16/1/1
f 7/3/6 8/1/4 16/1/1 15/3/5
f 6/4/8 7/3/6 15/3/5 14/4/7
f 5/5/10 6/4/8 14/4/7 13/5/9
f 4/6/12 5/5/10 13/5/9 12/6/11
f 3/7/14 4/6/12 12/6/11 11/7/13
f 1/8/16 3/7/14 11/7/13 9/8/15
f 2/2/3 1/8/16 9/8/15 10/2/2
f 9/8/18 11/7/21 12/6/20 13/5/19 14/4/18 15/3/17 16/1/17 10/2/17
f 26/12/25 27/11/24 28/10/23 25/9/22
f 29/14/27 30/13/26 26/12/25 25/9/22
f 30/13/26 21/15/28 27/11/24 26/12/25
f 21/19/29 20/18/29 28/17/29 27/16/29
f 20/20/30 29/14/27 25/9/22 28/10/23
f 29/14/27 20/20/30 19/7/33 17/8/32 18/2/31
f 30/13/26 24/1/36 23/3/35 22/4/34 21/15/28
f 29/14/27 18/2/31 24/1/36 30/13/26
f 51/24/40 34/23/39 33/22/38 50/21/37
f 61/28/44 44/27/43 47/26/42 64/25/41
f 50/32/45 33/31/45 32/30/45 49/29/45
f 49/36/48 32/35/48 31/34/47 48/33/46
f 48/40/51 31/39/50 39/38/49 56/37/49
f 49/44/29 48/43/29 56/42/53 50/41/52
f 57/48/57 40/47/56 41/46/55 58/45/54
f 59/52/61 42/51/60 43/50/59 60/49/58
f 54/56/65 37/55/64 36/54/63 53/53/62
f 62/60/69 45/59/68 44/58/67 61/57/66
f 58/64/73 41/63/72 42/62/71 59/61/70
f 52/68/77 35/67/76 34/66/75 51/65/74
f 64/72/81 47/71/80 46/70/79 63/69/78
f 63/76/85 46/75/84 45/74/83 62/73/82
f 53/53/62 36/54/63 35/78/87 52/77/86
f 55/82/91 38/81/90 37/80/89 54/79/88
f 60/86/95 43/85/94 40/84/93 57/83/92
f 56/90/99 39/89/98 38/88/97 55/87/96
f 31/94/100 32/93/100 33/92/101 39/91/100
f 81/97/103 51/96/40 50/41/37 80/95/102
f 91/101/105 61/100/44 64/99/41 94/98/104
f 81/97/103 80/95/102 91/101/105 94/98/104
f 80/95/102 50/41/37 56/42/53 86/102/106
f 87/106/108 57/105/57 58/104/54 88/103/107
f 86/102/106 87/106/108 88/103/107 80/95/102
f 89/110/110 59/109/61 60/108/58 90/107/109
f 84/114/112 54/113/65 53/112/62 83/111/111
f 90/107/109 84/114/112 83/111/111 89/110/110
f 92/116/113 62/115/69 61/100/66 91/101/105
f 88/103/107 58/104/73 59/109/70 89/110/110
f 91/101/105 80/95/102 88/103/107 89/110/110 83/111/111 92/116/113
f 82/118/114 52/117/77 51/96/74 81/97/103
f 94/98/104 64/99/81 63/120/78 93/119/115
f 81/97/103 94/98/104 93/119/115 82/118/114
f 93/119/115 63/120/85 62/115/82 92/116/113
f 83/111/111 53/112/62 52/117/86 82/118/114
f 92/116/113 83/111/111 82/118/114 93/119/115
f 85/122/116 55/121/91 54/113/88 84/114/112
f 90/107/109 60/108/95 57/105/92 87/106/108
f 84/114/112 90/107/109 87/106/108 85/122/116
f 86/102/106 56/42/53 55/121/96 85/122/116
f 86/102/106 85/122/116 87/106/108
f 65/125/118 33/92/38 34/124/39 66/123/117
f 79/129/120 47/128/42 44/127/43 76/126/119
f 65/125/118 66/123/117 79/129/120 76/126/119
f 73/133/122 41/132/55 40/131/56 72/130/121
f 71/134/123 39/91/98 33/92/38 65/125/118
f 72/130/121 71/134/123 65/125/118 73/133/122
f 68/138/125 36/137/63 37/136/64 69/135/124
f 75/142/127 43/141/59 42/140/60 74/139/126
f 69/135/124 75/142/127 74/139/126 68/138/125
f 74/139/126 42/140/71 41/132/72 73/133/122
f 76/126/119 44/127/67 45/144/68 77/143/128
f 74/139/126 73/133/122 65/125/118 76/126/119 77/143/128 68/138/125
f 78/146/129 46/145/79 47/128/80 79/129/120
f 66/123/117 34/124/75 35/148/76 67/147/130
f 79/129/120 66/123/117 67/147/130 78/146/129
f 67/147/130 35/148/87 36/137/63 68/138/125
f 77/143/128 45/144/83 46/145/84 78/146/129
f 68/138/125 77/143/128 78/146/129 67/147/130
f 72/130/121 40/131/93 43/141/94 75/142/127
f 69/135/124 37/136/89 38/150/90 70/149/131
f 75/142/127 69/135/124 70/149/131 72/130/121
f 70/149/131 38/150/97 39/91/98 71/134/123
f 71/134/123 72/130/121 70/149/131
# 82 elements

