# Created by Metasequoia

mtllib MA10D-̀×Í².mtl

v 105.792297 7.436218 53.974579
v 105.792297 -7.419155 53.974579
v 169.861710 7.435181 53.959259
v 169.861710 -7.418110 53.959259
v 105.792297 -4.444950 57.457901
v 105.792297 4.462006 57.457901
v 169.888626 -4.443851 57.457901
v 169.888626 4.460922 57.457901
v 105.792297 7.436218 42.546921
v 105.792297 -7.419147 42.546913
v 169.665054 7.435173 45.021103
v 169.665054 -7.418110 45.021103
v 105.792297 -3.415454 39.652908
v 169.608444 -4.658283 42.004753
v 169.608444 4.675346 42.004753
v 105.792297 3.432527 39.652908
v 169.606735 0.008538 41.408676
v 105.792297 0.008530 39.048927
v 107.261826 7.436218 53.974579
v 107.261826 -7.419155 53.974579
v 168.392868 7.436226 53.974731
v 168.392868 -7.419155 53.974731
v 107.261826 -4.444950 57.457901
v 107.261826 4.462006 57.457901
v 168.419174 -4.444904 57.457901
v 168.419174 4.461967 57.457901
v 107.261826 7.436218 42.546921
v 107.261826 -7.419147 42.546913
v 168.200195 7.436218 45.036575
v 168.200195 -7.419147 45.036568
v 107.261826 -3.415454 39.652908
v 168.144638 -4.659336 42.020226
v 168.144638 4.676399 42.020226
v 107.261826 3.432527 39.652908
v 168.142929 0.008538 41.424164
v 107.261826 0.008530 39.048927
v 105.792297 6.439240 53.576721
v 105.792297 -6.422176 53.576721
v 169.852951 6.438194 53.561447
v 169.852951 -6.421131 53.561447
v 105.792297 -3.721865 57.457901
v 105.792297 3.738923 57.457901
v 169.874786 -3.720813 57.457901
v 169.874786 3.737878 57.457901
v 105.792297 6.439240 43.056442
v 105.792297 -6.422169 43.056442
v 169.671158 6.438194 45.408279
v 169.671158 -6.421131 45.408279
v 105.792297 -3.016894 40.594971
v 169.625534 -4.169392 42.947235
v 169.625534 4.186470 42.947235
v 105.792297 3.033960 40.594971
v 169.625534 0.008538 42.413559
v 105.792297 0.008530 40.061302
v 105.792297 0.008530 57.457901
v 169.874786 0.008538 57.457901
v 107.261826 6.439240 53.576721
v 125.310867 6.439240 53.576721
v 125.310867 -6.422176 53.576721
v 107.261826 -6.422176 53.576721
v 136.365952 6.439240 53.576752
v 168.384247 6.439240 53.576935
v 168.384247 -6.422176 53.576935
v 136.365952 -6.422176 53.576752
v 107.261826 -3.721865 57.457901
v 125.310135 -3.721865 57.457901
v 125.310135 3.738923 57.457901
v 107.261826 3.738923 57.457901
v 136.373596 -3.721865 57.457901
v 168.405655 -3.721858 57.457901
v 168.405655 3.738931 57.457901
v 136.373596 3.738923 57.457901
v 107.261826 6.439240 43.056442
v 125.318314 6.439240 43.056442
v 107.261826 -6.422169 43.056442
v 125.318314 -6.422169 43.056442
v 168.206100 6.439240 45.423767
v 136.303391 6.439240 45.424133
v 136.303391 -6.422169 45.424133
v 168.206100 -6.422169 45.423767
v 107.261826 -3.016894 40.594971
v 125.319733 -3.016894 40.594971
v 168.161362 -4.170444 42.962723
v 136.287704 -3.794528 42.962715
v 168.161362 4.187515 42.962723
v 136.287704 3.811601 42.962715
v 107.261826 3.033960 40.594971
v 125.319733 3.033960 40.594971
v 125.310135 0.008530 57.457901
v 136.373596 0.008530 57.457901
v 168.161362 0.008538 42.429047
v 136.287704 0.008530 42.429047
v 125.319733 0.008530 40.061302
v 107.261826 0.008530 40.061302
v 107.261826 0.008530 57.457901
v 168.405655 0.008538 57.457901
# 96 vertices

vt 0.61673 0.24544
vt 0.61664 0.25616
vt 0.61997 0.25619
vt 0.62006 0.24546
vt 0.74502 0.45341
vt 0.75519 0.45471
vt 0.75519 0.45252
vt 0.74609 0.45136
vt 0.89108 0.13106
vt 0.90125 0.12976
vt 0.90018 0.12771
vt 0.89108 0.12887
vt 0.64021 0.94459
vt 0.64014 0.95254
vt 0.64347 0.95256
vt 0.64355 0.94464
vt 0.59437 0.78998
vt 0.59437 0.79318
vt 0.59595 0.79321
vt 0.59595 0.79001
vt 0.74549 0.41977
vt 0.73901 0.42736
vt 0.74118 0.42822
vt 0.74707 0.41977
vt 0.90726 0.10371
vt 0.90078 0.09609
vt 0.89921 0.09609
vt 0.90509 0.10458
vt 0.64022 0.97286
vt 0.64355 0.97288
vt 0.73901 0.44684
vt 0.74118 0.44599
vt 0.90726 0.12319
vt 0.90509 0.12235
vt 0.61645 0.23848
vt 0.61979 0.23850
vt 0.58807 0.96091
vt 0.58812 0.96897
vt 0.59154 0.96896
vt 0.59149 0.96090
vt 0.55373 0.95505
vt 0.56119 0.95374
vt 0.56032 0.95168
vt 0.55373 0.95285
vt 0.60309 0.74587
vt 0.61055 0.74719
vt 0.61055 0.74498
vt 0.60396 0.74382
vt 0.58835 0.97892
vt 0.59176 0.97891
vt 0.56991 0.94743
vt 0.56774 0.94632
vt 0.59437 0.73957
vt 0.59654 0.73846
vt 0.60250 0.97819
vt 0.60250 0.95239
vt 0.59919 0.95239
vt 0.59919 0.97819
vt 0.56991 0.92253
vt 0.56774 0.92340
vt 0.59437 0.71467
vt 0.59654 0.71553
vt 0.60250 0.94452
vt 0.59919 0.94452
vt 0.56343 0.91494
vt 0.56186 0.91494
vt 0.59437 0.92644
vt 0.59437 0.92965
vt 0.59595 0.92965
vt 0.59595 0.92644
vt 0.60085 0.70708
vt 0.60242 0.70708
vt 0.61645 0.26661
vt 0.61979 0.26664
vt 0.76537 0.45341
vt 0.76430 0.45136
vt 0.88091 0.12976
vt 0.88198 0.12771
vt 0.58068 0.98055
vt 0.58069 0.97353
vt 0.57728 0.97355
vt 0.57727 0.98057
vt 0.77138 0.44684
vt 0.76921 0.44599
vt 0.87490 0.12319
vt 0.87707 0.12235
vt 0.58077 0.95273
vt 0.57736 0.95275
vt 0.77138 0.42736
vt 0.76921 0.42822
vt 0.87490 0.10371
vt 0.87707 0.10458
vt 0.58069 0.94459
vt 0.57727 0.94465
vt 0.76490 0.41977
vt 0.76332 0.41977
vt 0.61378 0.79318
vt 0.61378 0.78998
vt 0.61220 0.79001
vt 0.61220 0.79321
vt 0.88138 0.09609
vt 0.88295 0.09609
vt 0.58812 0.95313
vt 0.59154 0.95312
vt 0.54627 0.95374
vt 0.54714 0.95168
vt 0.61801 0.74587
vt 0.61715 0.74382
vt 0.61769 0.19746
vt 0.61769 0.20532
vt 0.62101 0.20532
vt 0.62101 0.19746
vt 0.61378 0.92965
vt 0.61378 0.92644
vt 0.61220 0.92644
vt 0.61220 0.92965
vt 0.54402 0.91494
vt 0.53754 0.92253
vt 0.53972 0.92340
vt 0.54560 0.91494
vt 0.62674 0.71467
vt 0.62026 0.70708
vt 0.61868 0.70708
vt 0.62457 0.71553
vt 0.61769 0.23112
vt 0.62101 0.23112
vt 0.53754 0.94743
vt 0.53972 0.94632
vt 0.62674 0.73957
vt 0.62457 0.73846
vt 0.58835 0.94455
vt 0.59176 0.94453
vt 0.89108 0.09609
vt 0.60407 0.79001
vt 0.60407 0.79321
vt 0.61055 0.70708
vt 0.60407 0.92965
vt 0.60407 0.92644
vt 0.62996 0.89601
vt 0.62996 0.93720
vt 0.65397 0.93720
vt 0.65397 0.89600
vt 0.64856 0.87093
vt 0.62996 0.87079
vt 0.62165 0.55471
vt 0.62165 0.52985
vt 0.60331 0.52999
vt 0.59798 0.55470
vt 0.59798 0.59531
vt 0.62165 0.59531
vt 0.64856 0.79814
vt 0.62996 0.79773
vt 0.62165 0.45783
vt 0.60331 0.45823
vt 0.60407 0.88712
vt 0.60407 0.86301
vt 0.59595 0.86301
vt 0.59595 0.88712
vt 0.61220 0.88712
vt 0.61220 0.86301
vt 0.62111 0.89601
vt 0.62111 0.93720
vt 0.62111 0.87077
vt 0.63037 0.55471
vt 0.63037 0.52983
vt 0.63037 0.59531
vt 0.62111 0.79768
vt 0.63037 0.45778
vt 0.70001 0.79094
vt 0.69966 0.74936
vt 0.69261 0.74944
vt 0.69295 0.79101
vt 0.70179 0.72392
vt 0.69295 0.72400
vt 0.70204 0.65054
vt 0.69234 0.65062
vt 0.68289 0.65063
vt 0.68436 0.72400
vt 0.68580 0.74943
vt 0.68614 0.79100
vt 0.67891 0.79085
vt 0.67857 0.74928
vt 0.67891 0.72380
vt 0.70839 0.72366
vt 0.70804 0.74914
vt 0.70839 0.79070
vt 0.65418 0.87097
vt 0.65418 0.79824
vt 0.70778 0.65021
# 189 texture vertices

vn -0.00908 -0.46079 -0.88746
vn -0.01053 0.00000 -0.99994
vn -0.01053 0.00000 -0.99994
vn -0.00908 -0.46001 -0.88786
vn -0.99984 0.00073 0.01766
vn -0.99985 -0.00000 0.01758
vn -0.99985 -0.00000 0.01758
vn -0.99984 0.00073 0.01766
vn 0.99984 0.00001 -0.01790
vn 0.99984 -0.00074 -0.01797
vn 0.99984 0.00055 -0.01783
vn 0.99984 0.00000 -0.01777
vn 0.00219 -0.42084 0.90713
vn 0.00250 -0.93801 0.34661
vn 0.00248 -0.93877 0.34453
vn 0.00217 -0.41766 0.90860
vn -0.00000 -0.22421 0.97454
vn 0.00000 0.00000 1.00000
vn -0.99982 -0.01145 0.01483
vn -0.99981 -0.00649 0.01819
vn -0.99981 -0.00617 0.01840
vn -0.99982 -0.01145 0.01483
vn 0.99981 0.00655 -0.01854
vn 0.99982 0.01170 -0.01509
vn 0.99984 0.00538 -0.01684
vn 0.99982 0.00475 -0.01830
vn -0.00314 -0.93292 -0.36008
vn -0.00318 -0.93142 -0.36394
vn -0.99981 -0.00095 0.01972
vn -0.99981 -0.00095 0.01972
vn 0.99980 0.00089 -0.02011
vn 0.99982 0.00153 -0.01916
vn 0.00000 -0.00000 -1.00000
vn 0.00000 -0.38964 -0.92097
vn 1.00000 0.00000 0.00000
vn -1.00000 0.00000 0.00000
vn 0.00000 -0.89045 -0.45507
vn 0.00000 -0.93822 0.34605
vn 0.00000 -0.41872 0.90811
vn 0.00000 0.00000 1.00000
vn 0.00000 -0.22402 0.97458
vn -1.00000 0.00000 0.00000
vn -0.00908 0.46079 -0.88746
vn -0.00908 0.46001 -0.88786
vn -0.99984 -0.00073 0.01766
vn -0.99984 -0.00073 0.01766
vn 0.99984 0.00077 -0.01803
vn 0.99984 -0.00053 -0.01787
vn -0.00314 0.93292 -0.36008
vn -0.00318 0.93142 -0.36394
vn -0.99981 0.00095 0.01972
vn -0.99981 0.00095 0.01972
vn 0.99980 -0.00092 -0.02014
vn 0.99981 -0.00156 -0.01917
vn 0.00250 0.93801 0.34661
vn 0.00249 0.93877 0.34453
vn -0.99981 0.00649 0.01819
vn -0.99981 0.00617 0.01840
vn 0.99981 -0.00660 -0.01854
vn 0.99982 -0.00478 -0.01830
vn 0.00219 0.42084 0.90713
vn 0.00217 0.41766 0.90860
vn -0.99982 0.01145 0.01483
vn -0.99982 0.01145 0.01483
vn -0.00000 0.22421 0.97454
vn 0.99982 -0.01170 -0.01509
vn 0.99984 -0.00538 -0.01684
vn 0.00000 0.38964 -0.92097
vn 0.00000 0.41872 0.90811
vn 0.00000 0.93822 0.34605
vn 0.00000 0.22402 0.97458
vn 0.00000 0.89045 -0.45507
vn 0.99984 -0.00000 -0.01761
vn -0.00000 0.95417 0.29928
vn 0.00000 0.95417 0.29928
vn 0.00000 0.89045 -0.45507
vn 0.04400 0.88551 -0.46254
vn 0.03423 0.92517 -0.37800
vn -0.00000 0.95417 0.29928
vn -0.00000 -0.95417 0.29927
vn -0.00000 -0.95417 0.29928
vn 0.03423 -0.92517 -0.37800
vn 0.04400 -0.88551 -0.46254
vn 0.00000 -0.89045 -0.45507
vn 0.00000 -0.95417 0.29927
vn -0.00216 0.92674 -0.37570
vn -0.00000 0.95337 0.30182
vn -0.00000 -0.95337 0.30182
vn -0.00216 -0.92674 -0.37570
vn -0.00000 -0.46309 0.88631
vn -0.00000 -0.46309 0.88631
vn -0.00000 0.46309 0.88631
vn -0.00000 0.46307 0.88632
vn 0.00000 -0.38964 -0.92097
vn 0.09040 -0.38753 -0.91742
vn 0.10269 -0.00000 -0.99471
vn 0.00000 -0.00000 -1.00000
vn 0.09016 -0.43712 -0.89487
vn 0.10417 -0.00000 -0.99456
vn -0.00255 -0.44917 -0.89344
vn -0.00075 0.00001 -1.00000
vn -0.00255 0.44917 -0.89344
vn 0.09016 0.43712 -0.89487
vn 0.09040 0.38753 -0.91742
vn 0.00000 0.38964 -0.92097
# 105 normal vertices

g obj2
s 1
usemtl mat5
f 32/4/4 35/3/3 17/2/2 14/1/1
f 83/8/8 91/7/7 35/6/6 32/5/5
f 53/12/12 50/11/11 14/10/10 17/9/9
f 25/16/16 22/15/15 4/14/14 7/13/13
f 43/20/18 70/19/17 25/18/16 7/17/13
f 70/24/22 63/23/21 22/22/20 25/21/19
f 40/28/26 43/27/25 7/26/24 4/25/23
f 22/15/15 30/30/28 12/29/27 4/14/14
f 63/23/21 80/32/30 30/31/29 22/22/20
f 48/34/32 40/28/26 4/25/23 12/33/31
f 30/36/28 32/4/4 14/1/1 12/35/27
f 80/32/30 83/8/8 32/5/5 30/31/29
f 50/11/11 48/34/32 12/33/31 14/10/10
f 36/40/33 31/39/34 13/38/34 18/37/33
f 94/44/35 81/43/35 31/42/35 36/41/35
f 49/48/36 54/47/36 18/46/36 13/45/36
f 31/39/34 28/50/37 10/49/37 13/38/34
f 81/43/35 75/52/35 28/51/35 31/42/35
f 46/54/36 49/48/36 13/45/36 10/53/36
f 28/58/37 20/57/38 2/56/38 10/55/37
f 75/52/35 60/60/35 20/59/35 28/51/35
f 38/62/36 46/54/36 10/53/36 2/61/36
f 20/57/38 23/64/39 5/63/39 2/56/38
f 60/60/35 65/66/35 23/65/35 20/59/35
f 65/70/41 41/69/40 5/68/39 23/67/39
f 41/72/42 38/62/36 2/61/36 5/71/36
f 35/3/3 33/74/44 15/73/43 17/2/2
f 91/7/7 85/76/46 33/75/45 35/6/6
f 51/78/48 53/12/12 17/9/9 15/77/47
f 33/82/44 29/81/50 11/80/49 15/79/43
f 85/76/46 77/84/52 29/83/51 33/75/45
f 47/86/54 51/78/48 15/77/47 11/85/53
f 29/81/50 21/88/56 3/87/55 11/80/49
f 77/84/52 62/90/58 21/89/57 29/83/51
f 39/92/60 47/86/54 11/85/53 3/91/59
f 21/88/56 26/94/62 8/93/61 3/87/55
f 62/90/58 71/96/64 26/95/63 21/89/57
f 71/100/65 44/99/18 8/98/61 26/97/62
f 44/102/67 39/92/60 3/91/59 8/101/66
f 34/104/68 36/40/33 18/37/33 16/103/68
f 87/106/35 94/44/35 36/41/35 34/105/35
f 54/47/36 52/108/36 16/107/36 18/46/36
f 24/112/69 19/111/70 1/110/70 6/109/69
f 42/116/40 68/115/71 24/114/69 6/113/69
f 68/120/35 57/119/35 19/118/35 24/117/35
f 37/124/36 42/123/36 6/122/36 1/121/36
f 19/111/70 27/126/72 9/125/72 1/110/70
f 57/119/35 73/128/35 27/127/35 19/118/35
f 45/130/36 37/124/36 1/121/36 9/129/36
f 27/132/72 34/104/68 16/103/68 9/131/72
f 73/128/35 87/106/35 34/105/35 27/127/35
f 52/108/36 45/130/36 9/129/36 16/107/36
f 53/12/12 56/133/73 43/27/25 40/28/26 48/34/32 50/11/11
f 96/135/18 70/19/17 43/20/18 56/134/40
f 55/136/36 54/47/36 49/48/36 46/54/36 38/62/36 41/72/42
f 65/70/41 95/138/40 55/137/40 41/69/40
f 56/133/73 53/12/12 51/78/48 47/86/54 39/92/60 44/102/67
f 71/100/65 96/135/18 56/134/40 44/99/18
f 54/47/36 55/136/36 42/123/36 37/124/36 45/130/36 52/108/36
f 95/138/40 68/115/71 42/116/40 55/137/40
f 74/142/77 73/141/76 57/140/75 58/139/74
f 58/139/74 61/144/79 78/143/78 74/142/77
f 76/148/83 79/147/82 64/146/81 59/145/80
f 59/145/80 60/150/85 75/149/84 76/148/83
f 61/144/79 62/152/87 77/151/86 78/143/78
f 79/147/82 80/154/89 63/153/88 64/146/81
f 66/158/91 69/157/90 90/156/40 89/155/40
f 89/155/40 95/138/40 65/70/41 66/158/91
f 89/155/40 90/156/40 72/160/93 67/159/92
f 67/159/92 68/115/71 95/138/40 89/155/40
f 69/157/90 70/19/17 96/135/18 90/156/40
f 90/156/40 96/135/18 71/100/65 72/160/93
f 57/140/75 68/162/71 67/161/92 58/139/74
f 58/139/74 67/161/92 72/163/93 61/144/79
f 64/146/81 69/165/90 66/164/91 59/145/80
f 59/145/80 66/164/91 65/166/41 60/150/85
f 61/144/79 72/163/93 71/167/65 62/152/87
f 63/153/88 70/168/17 69/165/90 64/146/81
f 94/172/97 93/171/96 82/170/95 81/169/94
f 93/171/96 92/174/99 84/173/98 82/170/95
f 92/174/99 91/176/101 83/175/100 84/173/98
f 91/176/101 92/174/99 86/178/103 85/177/102
f 92/174/99 93/171/96 88/179/104 86/178/103
f 93/171/96 94/172/97 87/180/105 88/179/104
f 74/182/77 88/179/104 87/180/105 73/181/76
f 78/183/78 86/178/103 88/179/104 74/182/77
f 76/185/83 82/170/95 84/173/98 79/184/82
f 75/186/84 81/169/94 82/170/95 76/185/83
f 77/151/86 85/188/102 86/187/103 78/143/78
f 79/184/82 84/173/98 83/175/100 80/189/89
# 90 elements

