# Created by Metasequoia

mtllib P320_slide.mtl

v 59.892006 -3.868206 62.228973
v 51.762459 -3.868206 62.228973
v 51.762459 -2.618861 62.228973
v 59.892006 -2.618861 62.228973
v 51.218109 -3.868206 61.240807
v 51.218109 -2.618861 61.240807
v 53.139549 -3.868205 57.892029
v 53.139549 -2.618861 57.892029
v 59.840706 -3.868205 57.892029
v 59.840706 -2.618861 57.892029
v 59.890362 -4.007021 62.090157
v 59.842346 -4.007021 58.030846
v 53.219940 -4.007021 58.030846
v 51.377357 -4.007021 61.242195
v 51.844475 -4.007021 62.090157
v 48.894371 -3.391011 62.259396
v 48.894371 -4.085092 62.259396
v 47.163124 -4.085092 62.259396
v 47.163124 -3.391011 62.259396
v 46.671001 -4.085092 61.161434
v 46.671001 -3.391011 61.161434
v 48.949265 -4.085091 57.977356
v 48.949265 -3.391010 57.977356
v 50.651325 -4.085091 57.977356
v 50.651325 -3.391010 57.977356
v 51.282433 -4.085092 58.608685
v 51.282433 -3.391011 58.608685
v 44.171486 -3.391011 62.259396
v 44.171486 -4.085092 62.259396
v 42.440239 -4.085092 62.259396
v 42.440239 -3.391011 62.259396
v 41.948112 -4.085092 61.161434
v 41.948112 -3.391011 61.161434
v 44.226376 -4.085091 57.977356
v 44.226376 -3.391010 57.977356
v 45.928436 -4.085091 57.977356
v 45.928436 -3.391010 57.977356
v 46.559544 -4.085092 58.608685
v 46.559544 -3.391011 58.608685
v 59.892006 3.617660 62.228973
v 51.762459 3.617660 62.228973
v 51.762459 2.368318 62.228973
v 59.892006 2.368318 62.228973
v 51.218109 3.617660 61.240807
v 51.218109 2.368318 61.240807
v 53.139549 3.617659 57.892029
v 53.139549 2.368317 57.892029
v 59.840706 3.617659 57.892029
v 59.840706 2.368317 57.892029
v 59.890362 3.756475 62.090157
v 59.842346 3.756475 58.030846
v 53.219940 3.756475 58.030846
v 51.377357 3.756475 61.242195
v 51.844475 3.756475 62.090157
v 48.894371 3.140466 62.259396
v 48.894371 3.834544 62.259396
v 47.163124 3.834544 62.259396
v 47.163124 3.140466 62.259396
v 46.671001 3.834544 61.161434
v 46.671001 3.140466 61.161434
v 48.949265 3.834544 57.977356
v 48.949265 3.140466 57.977356
v 50.651325 3.834544 57.977356
v 50.651325 3.140466 57.977356
v 51.282433 3.834544 58.608685
v 51.282433 3.140466 58.608685
v 44.171486 3.140466 62.259396
v 44.171486 3.834544 62.259396
v 42.440239 3.834544 62.259396
v 42.440239 3.140466 62.259396
v 41.948112 3.834544 61.161434
v 41.948112 3.140466 61.161434
v 44.226376 3.834544 57.977356
v 44.226376 3.140466 57.977356
v 45.928436 3.834544 57.977356
v 45.928436 3.140466 57.977356
v 46.559544 3.834544 58.608685
v 46.559544 3.140466 58.608685
v 60.287796 3.520838 54.584099
v 60.287796 3.520836 62.265736
v 5.270065 3.520835 62.265736
v 1.829885 3.520839 54.584099
v 1.829885 -3.426089 54.584099
v 60.287796 -3.426089 54.584099
v 5.337778 -3.426092 62.416935
v 5.242456 -3.426092 62.204094
v 5.337778 3.520835 62.416935
v 6.950521 2.515989 65.156433
v 60.287796 3.520836 62.416935
v 60.520973 2.515989 65.156433
v 60.287796 -3.426091 62.204094
v 39.637093 -3.426092 61.862743
v 39.637093 -3.426092 62.204094
v 38.703827 -3.426091 60.548878
v 27.057161 -3.426092 60.548878
v 27.057161 -3.426092 62.204094
v 6.950521 -2.631006 65.156433
v 60.287796 -3.426091 62.416935
v 60.520973 -2.631006 65.156433
v 27.057161 -2.631006 65.156433
v 27.057161 0.880509 65.156433
v 39.637093 0.880509 65.156433
v 39.637093 -2.631006 65.156433
v 39.637093 -3.426092 62.416935
v 27.057161 -3.426092 62.416935
v 27.623297 -3.426092 62.204094
v 27.623297 -3.426092 62.416935
v 27.623297 -2.631006 65.156433
v 27.623297 0.323661 62.237366
v 27.623297 0.323660 65.156433
v 39.070957 0.323660 65.156433
v 39.250923 0.323661 62.237366
v 27.623297 0.323661 61.115013
v 38.433769 0.323661 61.071991
v 38.411522 -3.426091 61.115013
v 27.623297 -3.426092 61.115013
v 39.070957 -3.426092 62.204094
v 39.070957 -3.426092 62.043339
v 39.266731 0.323661 61.980888
v 39.070957 -3.494362 62.043339
v 39.070957 -3.494362 62.203487
v 39.637093 -3.494362 62.203487
v 39.637093 -3.494362 61.862743
v 39.070957 -2.682037 65.225838
v 39.637093 -2.682037 65.225838
v 39.637093 -3.494362 62.426960
v 39.070957 -3.494362 62.426960
v 39.070957 0.323660 65.225845
v 39.637093 0.880509 65.225845
v 27.623297 0.323660 65.225845
v 27.057161 0.880509 65.225845
v 27.623297 -2.682037 65.225838
v 27.057161 -2.682037 65.225838
v 27.623297 -3.494362 62.426960
v 27.057161 -3.494362 62.426960
v 27.623297 -3.494362 62.203487
v 27.057161 -3.494361 62.203487
v 38.411522 -3.494361 61.115013
v 38.703827 -3.494361 60.548878
v 27.057161 -3.494361 60.548878
v 27.623297 -3.494361 61.115013
v 39.070957 -3.426092 62.416935
v 39.070957 -2.631006 65.156433
v 60.287796 3.338301 62.265736
v 60.287796 3.338301 62.416935
v 5.337778 3.338301 62.416935
v 5.270065 3.338301 62.265736
v 39.637093 -3.243557 62.204094
v 39.637093 -3.243557 62.416935
v 60.287796 -3.243556 62.416935
v 60.287796 -3.243556 62.204094
v 5.242456 -3.243557 62.204094
v 5.337778 -3.243557 62.416935
v 27.057161 -3.243557 62.416935
v 27.057161 -3.243557 62.204094
# 155 vertices

vt 0.80221 0.48135
vt 0.80221 0.44819
vt 0.79711 0.44819
vt 0.79711 0.48135
vt 0.77432 0.43345
vt 0.77432 0.43805
vt 0.77942 0.43805
vt 0.77942 0.43345
vt 0.77432 0.45380
vt 0.77942 0.45380
vt 0.77432 0.48115
vt 0.77942 0.48115
vt 0.79648 0.48701
vt 0.79705 0.48645
vt 0.77936 0.48624
vt 0.77992 0.48682
vt 0.79308 0.44596
vt 0.81979 0.45386
vt 0.80655 0.44626
vt 0.80305 0.44819
vt 0.80305 0.48135
vt 0.81979 0.48116
vt 0.77352 0.43773
vt 0.77352 0.43378
vt 0.77346 0.45380
vt 0.77344 0.43805
vt 0.77348 0.48115
vt 0.66943 0.39971
vt 0.66652 0.39971
vt 0.66652 0.40696
vt 0.66943 0.40696
vt 0.66652 0.41200
vt 0.66943 0.41200
vt 0.66652 0.42841
vt 0.66943 0.42841
vt 0.66652 0.43554
vt 0.66943 0.43554
vt 0.66943 0.37769
vt 0.66652 0.37769
vt 0.66652 0.38143
vt 0.66943 0.38143
vt 0.67550 0.40368
vt 0.67974 0.40096
vt 0.67906 0.38456
vt 0.67309 0.38066
vt 0.66286 0.38066
vt 0.65621 0.40096
vt 0.66045 0.40368
vt 0.65689 0.38456
vt 0.91806 0.17109
vt 0.91528 0.17109
vt 0.91528 0.17803
vt 0.91806 0.17803
vt 0.91528 0.18285
vt 0.91806 0.18285
vt 0.91806 0.12751
vt 0.91528 0.12751
vt 0.91528 0.14320
vt 0.91806 0.14320
vt 0.91528 0.15002
vt 0.91806 0.15002
vt 0.91528 0.15360
vt 0.91806 0.15360
vt 0.92387 0.17489
vt 0.92793 0.17228
vt 0.92727 0.15660
vt 0.92156 0.15287
vt 0.91177 0.15287
vt 0.90541 0.17228
vt 0.90947 0.17489
vt 0.90606 0.15660
vt 0.70400 0.59836
vt 0.73665 0.59836
vt 0.73665 0.59334
vt 0.70400 0.59334
vt 0.74118 0.59836
vt 0.74118 0.59334
vt 0.75669 0.59836
vt 0.75669 0.59334
vt 0.73112 0.57091
vt 0.70421 0.57091
vt 0.70421 0.57592
vt 0.73112 0.57592
vt 0.69843 0.59272
vt 0.69898 0.59328
vt 0.69919 0.57586
vt 0.69862 0.57641
vt 0.73884 0.58937
vt 0.73107 0.61566
vt 0.73854 0.60262
vt 0.73665 0.59918
vt 0.70400 0.59918
vt 0.70419 0.61566
vt 0.74087 0.59915
vt 0.73698 0.59915
vt 0.75669 0.59923
vt 0.74118 0.59923
vt 0.70421 0.57008
vt 0.73112 0.57008
vt 0.58223 0.08322
vt 0.58223 0.08600
vt 0.58917 0.08600
vt 0.58917 0.08322
vt 0.59399 0.08600
vt 0.59399 0.08322
vt 0.53865 0.08322
vt 0.53865 0.08600
vt 0.55434 0.08600
vt 0.55434 0.08322
vt 0.56116 0.08600
vt 0.56116 0.08322
vt 0.56474 0.08600
vt 0.56474 0.08322
vt 0.58603 0.07741
vt 0.58342 0.07335
vt 0.56774 0.07401
vt 0.56401 0.07972
vt 0.56401 0.08950
vt 0.58342 0.09587
vt 0.58603 0.09181
vt 0.56774 0.09521
vt 0.91806 0.22066
vt 0.91528 0.22066
vt 0.91528 0.22760
vt 0.91806 0.22760
vt 0.91528 0.23242
vt 0.91806 0.23242
vt 0.91528 0.24811
vt 0.91806 0.24811
vt 0.91806 0.19277
vt 0.91528 0.19277
vt 0.91528 0.19959
vt 0.91806 0.19959
vt 0.91528 0.20317
vt 0.91806 0.20317
vt 0.92387 0.22446
vt 0.92793 0.22185
vt 0.92727 0.20617
vt 0.92156 0.20244
vt 0.91177 0.20244
vt 0.90541 0.22185
vt 0.90947 0.22446
vt 0.90606 0.20617
vt 0.04338 0.59943
vt 0.04338 0.62975
vt 0.26055 0.62975
vt 0.27413 0.59943
vt 0.27413 0.57200
vt 0.04338 0.57200
vt 0.30801 0.57200
vt 0.30708 0.57200
vt 0.30735 0.59943
vt 0.30801 0.59943
vt 0.32048 0.59546
vt 0.31503 0.60701
vt 0.53193 0.60701
vt 0.53193 0.59546
vt 0.01331 0.57200
vt 0.01306 0.59943
vt 0.12490 0.54327
vt 0.12490 0.54193
vt 0.04338 0.54193
vt 0.12858 0.54846
vt 0.17455 0.54846
vt 0.26066 0.54193
vt 0.17455 0.54193
vt 0.32048 0.57514
vt 0.00165 0.59546
vt 0.01247 0.59943
vt 0.01247 0.57200
vt 0.00165 0.57514
vt 0.39984 0.57514
vt 0.39984 0.58900
vt 0.44950 0.58900
vt 0.44950 0.57514
vt 0.53193 0.57514
vt 0.53193 0.56380
vt 0.44950 0.56380
vt 0.39947 0.56425
vt 0.31295 0.56425
vt 0.63511 0.12762
vt 0.63511 0.12848
vt 0.63833 0.13957
vt 0.65030 0.12775
vt 0.65030 0.13957
vt 0.69667 0.13956
vt 0.69705 0.12741
vt 0.65030 0.12320
vt 0.69408 0.12303
vt 0.69393 0.10784
vt 0.65024 0.10802
vt 0.71263 0.12703
vt 0.71264 0.12634
vt 0.69671 0.12602
vt 0.69903 0.12295
vt 0.69855 0.10777
vt 0.05833 0.48802
vt 0.05945 0.48802
vt 0.05945 0.48551
vt 0.05833 0.48551
vt 0.07181 0.48802
vt 0.07181 0.48551
vt 0.06032 0.48551
vt 0.06032 0.48802
vt 0.69666 0.13985
vt 0.69666 0.14225
vt 0.70942 0.14225
vt 0.70942 0.13985
vt 0.65030 0.13985
vt 0.65030 0.14225
vt 0.63783 0.13985
vt 0.63753 0.14225
vt 0.40258 0.56388
vt 0.40012 0.56388
vt 0.40012 0.57514
vt 0.40258 0.57514
vt 0.40258 0.56303
vt 0.40012 0.56303
vt 0.05256 0.48802
vt 0.05256 0.48551
vt 0.00747 0.48551
vt 0.00747 0.48802
vt 0.05945 0.48522
vt 0.05833 0.48522
vt 0.07181 0.48522
vt 0.06032 0.48522
vt 0.69666 0.14253
vt 0.70942 0.14253
vt 0.65030 0.14253
vt 0.63753 0.14253
vt 0.39984 0.56303
vt 0.05256 0.48522
vt 0.00747 0.48522
vt 0.71292 0.12703
vt 0.71263 0.12794
vt 0.71292 0.12798
vt 0.69393 0.10757
vt 0.69854 0.10750
vt 0.65023 0.10774
vt 0.63483 0.12320
vt 0.63483 0.12761
vt 0.63511 0.12320
vt 0.63483 0.12852
vt 0.70921 0.13956
vt 0.43879 0.02349
vt 0.43879 0.02288
vt 0.21851 0.02288
vt 0.21824 0.02349
vt 0.05945 0.48448
vt 0.06032 0.48448
vt 0.06032 0.39978
vt 0.05945 0.39978
vt 0.31140 0.56303
vt 0.31178 0.56388
vt 0.39911 0.56388
vt 0.39911 0.56303
vt 0.38303 0.07760
vt 0.38344 0.07685
vt 0.38006 0.07322
vt 0.00165 0.48551
vt 0.00165 0.48802
vt 0.00165 0.48522
vt 0.71293 0.12635
vt 0.43879 0.02215
vt 0.21851 0.02215
vt 0.01306 0.60015
vt 0.01247 0.60015
vt 0.21824 0.02422
vt 0.43879 0.02422
vt 0.21785 0.02215
vt 0.21785 0.02288
vt 0.06032 0.39903
vt 0.05945 0.39903
vt 0.06107 0.48448
vt 0.06107 0.39978
vt 0.05870 0.39978
vt 0.05870 0.48448
vt 0.30708 0.57128
vt 0.30801 0.57128
vt 0.96759 0.26477
vt 0.96832 0.26477
vt 0.96832 0.17707
vt 0.96759 0.17707
# 283 texture vertices

vn 0.00000 -0.38269 0.92388
vn -0.36146 -0.61902 0.69726
vn 0.00000 0.00000 1.00000
vn -0.88905 -0.42318 -0.17465
vn -0.98445 0.00000 0.17565
vn -0.43073 -0.61709 -0.65854
vn -0.86737 0.00000 -0.49767
vn 0.00000 -0.38269 -0.92388
vn 0.00000 0.00000 -1.00000
vn 0.99993 -0.00000 -0.01183
vn 0.99993 -0.00001 -0.01183
vn -0.22499 -0.93936 -0.25879
vn -0.50818 -0.85647 0.09067
vn -0.13696 -0.91135 0.38817
vn 0.31210 0.00000 0.95005
vn 0.62421 0.00000 0.78126
vn -0.91253 0.00000 0.40901
vn -0.60087 0.00000 -0.79935
vn -0.30043 0.00000 -0.95380
vn 0.25278 0.00000 -0.96752
vn 0.50555 0.00000 -0.86279
vn 0.70723 0.00000 -0.70698
vn 0.31210 0.00000 0.95005
vn 0.62421 0.00000 0.78126
vn -0.91253 0.00000 0.40901
vn -0.91253 0.00000 0.40901
vn 0.00000 -0.38269 -0.92388
vn 0.36146 -0.61902 -0.69726
vn -0.00000 -0.00000 -1.00000
vn 0.88905 -0.42318 0.17465
vn 0.98445 0.00000 -0.17565
vn 0.43073 -0.61709 0.65854
vn 0.86737 0.00000 0.49767
vn 0.00000 -0.38269 0.92388
vn -0.99993 -0.00000 0.01183
vn -0.99993 -0.00001 0.01183
vn 0.22499 -0.93936 0.25879
vn 0.50818 -0.85647 -0.09067
vn 0.13696 -0.91135 -0.38817
vn -0.31210 0.00000 -0.95005
vn -0.62421 0.00000 -0.78126
vn 0.91253 0.00000 -0.40901
vn 0.60087 0.00000 0.79935
vn 0.30043 0.00000 0.95380
vn -0.25278 0.00000 0.96752
vn -0.50555 0.00000 0.86279
vn -0.70723 0.00000 0.70698
vn -0.31210 0.00000 -0.95005
vn -0.62421 0.00000 -0.78126
vn 0.91253 0.00000 -0.40901
vn -0.00000 1.00000 0.00000
vn -0.00000 1.00000 0.00000
vn 0.00000 1.00000 0.00000
vn -0.88858 0.00000 0.45873
vn -0.91265 0.00000 0.40873
vn -0.88858 0.00000 0.45873
vn -0.00000 0.93884 0.34436
vn 0.00000 0.93884 0.34436
vn 1.00000 0.00000 0.00000
vn 0.00000 -1.00000 -0.00000
vn 0.00000 -1.00000 0.00000
vn -0.00000 -1.00000 -0.00000
vn 0.00000 -1.00000 -0.00000
vn 0.00000 -1.00000 0.00000
vn -0.86176 0.00000 0.50732
vn 0.99840 0.00000 -0.05659
vn 0.99640 0.00000 -0.08481
vn 0.00000 -0.96037 0.27873
vn 0.00000 -0.96037 0.27873
vn 0.00000 -1.00000 -0.00000
vn 0.00000 -1.00000 -0.00000
vn 0.00199 0.00572 0.99998
vn -0.56584 0.02655 0.82408
vn -0.30072 0.00424 0.95370
vn -0.99971 0.02398 0.00000
vn -0.95012 0.02120 0.31116
vn -0.94129 0.05469 0.33313
vn -0.00000 -1.00000 -0.00000
vn -0.00000 -1.00000 -0.00000
vn 0.00000 -0.96037 0.27873
vn 0.00000 -0.99004 0.14077
vn 0.00000 -0.00000 1.00000
vn 0.00000 -0.00000 1.00000
vn -0.00000 -0.00000 1.00000
vn -0.00000 -0.00000 1.00000
vn -0.00000 -0.00000 1.00000
vn 0.00000 -0.00000 1.00000
vn -0.00000 -0.99004 0.14077
vn 0.00000 -0.99004 0.14076
vn -0.00000 -1.00000 -0.00000
vn -0.00000 -1.00000 -0.00000
vn -0.00000 -1.00000 -0.00000
vn -0.00000 -1.00000 -0.00000
vn -0.00000 -1.00000 -0.00000
vn -0.99981 0.01905 -0.00275
vn -0.99984 0.00946 -0.01506
vn 0.00000 1.00000 0.00000
vn -0.87589 0.00000 0.48250
vn -0.87589 0.00000 0.48250
vn 0.99993 0.00000 -0.01184
vn 0.99993 -0.00000 -0.01183
vn 0.99993 -0.00000 -0.01183
vn 0.99993 0.00000 -0.01183
vn 0.00000 -0.96754 0.25272
vn 0.00000 -0.86286 -0.50545
vn -0.81326 0.00000 -0.58190
vn 0.83686 0.00000 0.54742
vn 0.00000 1.00000 0.00000
vn -0.00000 1.00000 0.00000
vn -0.00000 1.00000 0.00000
vn 0.00000 1.00000 0.00000
vn 0.00000 1.00000 0.00000
vn -0.00000 -1.00000 -0.00000
vn -0.00000 -1.00000 -0.00000
vn -0.00000 -1.00000 -0.00000
vn 0.00000 -1.00000 -0.00000
vn 0.00000 -1.00000 -0.00000
vn 0.83686 0.00000 0.54742
vn 0.00000 1.00000 0.00000
vn -0.00000 1.00000 0.00000
vn -0.00000 1.00000 0.00000
vn 0.00000 1.00000 0.00000
vn 0.00000 1.00000 0.00000
vn -0.00000 -1.00000 -0.00000
vn -0.00000 -1.00000 -0.00000
vn -0.00000 -1.00000 -0.00000
vn 0.00000 -1.00000 -0.00000
vn 0.00000 -1.00000 -0.00000
vn 0.87589 0.00000 -0.48250
vn -0.99993 0.00000 0.01184
vn -0.99993 -0.00000 0.01183
vn -0.99993 -0.00000 0.01183
vn -0.99993 0.00000 0.01183
vn 0.00000 1.00000 -0.00000
vn 0.00000 1.00000 -0.00000
vn 0.00000 1.00000 -0.00000
vn 0.00000 1.00000 -0.00000
vn 0.00000 -0.96754 -0.25272
vn 0.00000 -0.86286 0.50545
vn 0.81326 0.00000 0.58190
vn -0.83686 0.00000 -0.54742
vn 0.00000 1.00000 0.00000
vn -0.83686 0.00000 -0.54742
vn -0.91266 0.00000 0.40873
vn -0.00000 0.93884 0.34436
vn 0.00000 -1.00000 -0.00000
vn -0.00000 -1.00000 -0.00000
vn -0.00000 -1.00000 -0.00000
vn 0.00000 -1.00000 -0.00000
vn -0.86176 0.00000 0.50732
vn 0.99960 0.00000 -0.02829
vn 0.00000 -0.96037 0.27873
vn 0.00000 -0.96037 0.27873
vn 0.00000 -0.96037 0.27873
vn 0.00000 -1.00000 -0.00000
vn -0.99887 0.03886 -0.02736
vn 0.00000 -0.00000 1.00000
vn 0.00000 -0.00000 1.00000
vn 0.95270 0.00000 -0.30392
vn 0.95270 0.00000 -0.30392
vn -1.00000 0.00000 0.00000
vn 0.30140 0.00000 -0.95350
vn 0.60281 0.00000 -0.79789
vn -0.60280 0.00000 0.79790
vn -0.95269 0.00000 0.30393
vn -0.00000 -1.00000 -0.00000
vn -0.99979 0.00000 -0.02052
vn -1.00000 0.00000 0.00000
vn -0.91266 0.00000 0.40873
vn -0.91266 0.00000 0.40873
vn 0.00000 0.00000 1.00000
vn 0.91266 0.00000 -0.40873
vn 0.91266 0.00000 -0.40873
vn 0.91265 0.00000 -0.40874
vn 0.91265 0.00000 -0.40874
# 175 normal vertices

g GUN_SLOPE
usemtl default
f 3/3/3 2/2/2 1/1/1
f 1/1/1 4/4/3 3/3/3
f 6/7/5 5/6/4 2/5/98
f 2/5/98 3/8/99 6/7/5
f 8/10/7 7/9/6 5/6/4
f 5/6/4 6/7/5 8/10/7
f 10/12/9 9/11/8 7/9/9
f 7/9/9 8/10/9 10/12/9
f 4/4/101 1/14/100 11/13/10
f 11/13/10 12/16/11 9/15/102
f 4/4/101 11/13/10 9/15/102
f 10/12/103 4/4/101 9/15/102
f 8/10/97 6/17/97 3/3/97
f 10/12/97 8/10/97 3/3/97
f 10/12/97 3/3/97 4/4/97
f 15/20/14 14/19/13 13/18/12
f 11/21/104 15/20/14 13/18/12
f 12/22/105 11/21/104 13/18/12
f 1/1/1 2/2/2 15/20/14
f 15/20/14 11/21/104 1/1/1
f 2/5/2 5/6/4 14/23/13
f 14/23/13 15/24/14 2/5/2
f 5/6/4 7/9/6 13/25/12
f 13/25/12 14/26/13 5/6/4
f 7/9/6 9/11/8 12/27/105
f 12/27/105 13/25/12 7/9/6
f 18/30/3 17/29/16 16/28/15
f 16/28/15 19/31/3 18/30/3
f 20/32/17 18/30/17 19/31/17
f 19/31/17 21/33/17 20/32/17
f 22/34/18 20/32/106 21/33/106
f 21/33/106 23/35/19 22/34/18
f 24/36/20 22/34/18 23/35/19
f 23/35/19 25/37/21 24/36/20
f 26/40/22 24/39/20 25/38/21
f 25/38/21 27/41/22 26/40/22
f 17/29/16 26/40/107 27/41/107
f 27/41/107 16/28/15 17/29/16
f 21/43/109 19/42/97 16/28/108
f 23/44/110 21/43/109 16/28/108
f 25/45/111 23/44/110 16/28/108
f 25/45/111 16/28/108 27/41/112
f 24/46/115 26/40/114 17/29/113
f 17/29/113 18/48/64 20/47/116
f 17/29/113 20/47/116 22/49/117
f 24/46/115 17/29/113 22/49/117
f 30/52/3 29/51/24 28/50/23
f 28/50/23 31/53/3 30/52/3
f 32/54/25 30/52/26 31/53/25
f 31/53/25 33/55/26 32/54/25
f 34/58/18 32/57/106 33/56/106
f 33/56/106 35/59/19 34/58/18
f 36/60/20 34/58/18 35/59/19
f 35/59/19 37/61/21 36/60/20
f 38/62/22 36/60/20 37/61/21
f 37/61/21 39/63/22 38/62/22
f 29/51/24 38/62/118 39/63/118
f 39/63/118 28/50/23 29/51/24
f 33/65/120 31/64/97 28/50/119
f 35/66/121 33/65/120 28/50/119
f 37/67/122 35/66/121 28/50/119
f 37/67/122 28/50/119 39/63/123
f 36/68/126 38/62/125 29/51/124
f 29/51/124 30/70/64 32/69/127
f 29/51/124 32/69/127 34/71/128
f 36/68/126 29/51/124 34/71/128
f 42/74/9 41/73/28 40/72/27
f 40/72/27 43/75/29 42/74/9
f 45/77/31 44/76/30 41/73/129
f 41/73/129 42/74/129 45/77/31
f 47/79/33 46/78/32 44/76/30
f 44/76/30 45/77/31 47/79/33
f 49/82/3 48/81/34 46/80/3
f 46/80/3 47/83/3 49/82/3
f 43/75/131 40/85/130 50/84/35
f 50/84/35 51/87/36 48/86/132
f 43/75/131 50/84/35 48/86/132
f 49/82/133 43/75/131 48/86/132
f 47/83/136 45/88/135 42/74/134
f 49/82/137 47/83/136 42/74/134
f 49/82/137 42/74/134 43/75/137
f 54/91/39 53/90/38 52/89/37
f 50/92/138 54/91/39 52/89/37
f 51/93/139 50/92/138 52/89/37
f 40/72/27 41/73/28 54/91/39
f 54/91/39 50/92/138 40/72/27
f 41/73/28 44/76/30 53/94/38
f 53/94/38 54/95/39 41/73/28
f 44/76/30 46/78/32 52/96/37
f 52/96/37 53/97/38 44/76/30
f 46/80/32 48/81/34 51/98/139
f 51/98/139 52/99/37 46/80/32
f 57/102/9 56/101/41 55/100/40
f 55/100/40 58/103/29 57/102/9
f 59/104/42 57/102/42 58/103/42
f 58/103/42 60/105/42 59/104/42
f 61/108/43 59/107/140 60/106/140
f 60/106/140 62/109/44 61/108/43
f 63/110/45 61/108/43 62/109/44
f 62/109/44 64/111/46 63/110/45
f 65/112/47 63/110/45 64/111/46
f 64/111/46 66/113/47 65/112/47
f 56/101/41 65/112/141 66/113/141
f 66/113/141 55/100/40 56/101/41
f 60/115/97 58/114/97 55/100/97
f 62/116/97 60/115/97 55/100/97
f 64/117/97 62/116/97 55/100/97
f 64/117/97 55/100/97 66/113/142
f 63/118/64 65/112/64 56/101/64
f 56/101/64 57/120/64 59/119/64
f 56/101/64 59/119/64 61/121/64
f 63/118/64 56/101/64 61/121/64
f 69/124/9 68/123/49 67/122/48
f 67/122/48 70/125/29 69/124/9
f 71/126/50 69/124/50 70/125/50
f 70/125/50 72/127/50 71/126/50
f 73/128/43 71/126/140 72/127/140
f 72/127/140 74/129/44 73/128/43
f 75/132/45 73/131/43 74/130/44
f 74/130/44 76/133/46 75/132/45
f 77/134/47 75/132/45 76/133/46
f 76/133/46 78/135/47 77/134/47
f 68/123/49 77/134/143 78/135/143
f 78/135/143 67/122/48 68/123/49
f 72/137/97 70/136/97 67/122/97
f 74/138/97 72/137/97 67/122/97
f 76/139/97 74/138/97 67/122/97
f 76/139/97 67/122/97 78/135/97
f 75/140/64 77/134/64 68/123/64
f 68/123/64 69/142/64 71/141/64
f 68/123/64 71/141/64 73/143/64
f 75/140/64 68/123/64 73/143/64
f 81/146/51 80/145/52 79/144/51
f 79/144/51 82/147/53 81/146/51
f 79/144/9 84/149/9 83/148/9
f 83/148/9 82/147/9 79/144/9
f 81/152/144 86/151/55 85/150/54
f 85/150/54 87/153/56 81/152/144
f 89/156/57 87/155/145 88/154/57
f 88/154/57 90/157/58 89/156/57
f 80/159/59 91/158/59 84/149/59
f 84/149/59 79/144/59 80/159/59
f 91/162/146 93/161/61 92/160/60
f 84/149/147 91/162/146 92/160/60
f 84/149/147 92/160/60 94/163/62
f 84/149/147 94/163/62 95/164/63
f 95/164/63 96/166/64 86/165/148
f 84/149/147 95/164/63 86/165/148
f 83/148/149 84/149/147 86/165/148
f 85/150/54 97/167/65 88/154/150
f 88/154/150 87/153/56 85/150/54
f 98/170/66 89/169/151 90/168/67
f 90/168/67 99/171/67 98/170/66
f 88/154/3 97/167/3 100/172/3
f 88/154/3 100/172/3 101/173/3
f 90/157/3 88/154/3 101/173/3
f 90/157/3 101/173/3 102/174/3
f 90/157/3 102/174/3 103/175/3
f 90/157/3 103/175/3 99/176/3
f 98/177/152 99/176/153 103/175/152
f 103/175/152 104/178/68 98/177/152
f 105/179/69 100/172/154 97/167/69
f 97/167/69 85/180/154 105/179/69
f 108/183/59 107/182/59 106/181/59
f 108/183/59 106/181/59 109/184/59
f 110/185/59 108/183/59 109/184/59
f 111/186/70 110/185/155 109/184/70
f 109/184/70 112/187/71 111/186/70
f 115/190/74 114/189/73 113/188/72
f 113/188/72 116/191/3 115/190/74
f 118/193/76 117/192/75 112/187/156
f 112/187/156 119/194/77 118/193/76
f 118/196/76 119/195/77 114/189/73
f 114/189/73 115/190/74 118/196/76
f 122/199/64 121/198/64 120/197/78
f 120/197/78 123/200/79 122/199/64
f 126/203/81 125/202/80 124/201/80
f 124/201/80 127/204/81 126/203/81
f 125/207/157 129/206/83 128/205/82
f 128/205/82 124/208/158 125/207/157
f 129/206/83 131/210/85 130/209/84
f 130/209/84 128/205/82 129/206/83
f 131/210/85 133/212/87 132/211/86
f 132/211/86 130/209/84 131/210/85
f 133/215/80 135/214/89 134/213/88
f 134/213/88 132/216/80 133/215/80
f 137/218/91 136/217/90 134/213/88
f 134/213/88 135/214/89 137/218/91
f 140/221/64 139/220/93 138/219/92
f 138/219/92 141/222/94 140/221/64
f 139/220/93 123/200/79 120/197/78
f 120/197/78 138/219/92 139/220/93
f 93/223/59 122/199/59 123/200/159
f 123/200/159 92/224/160 93/223/59
f 104/226/59 103/225/59 125/202/59
f 125/202/59 126/203/59 104/226/59
f 103/228/59 102/227/59 129/206/59
f 129/206/59 125/207/59 103/228/59
f 102/227/97 101/229/97 131/210/97
f 131/210/97 129/206/97 102/227/97
f 101/229/161 100/230/161 133/212/161
f 133/212/161 131/210/161 101/229/161
f 100/172/161 105/179/161 135/214/161
f 135/214/161 133/215/161 100/172/161
f 105/179/161 96/231/161 137/218/161
f 137/218/161 135/214/161 105/179/161
f 95/233/9 94/232/163 139/220/162
f 139/220/162 140/221/9 95/233/9
f 94/232/163 92/224/160 123/200/159
f 123/200/159 139/220/162 94/232/163
f 142/235/95 117/192/75 121/234/161
f 121/234/161 127/236/161 142/235/95
f 118/196/76 115/190/74 138/237/164
f 138/237/164 120/238/165 118/196/76
f 115/190/74 116/191/3 141/239/3
f 141/239/3 138/237/164 115/190/74
f 106/181/59 136/241/59 141/240/59
f 141/240/59 116/242/59 106/181/59
f 107/182/59 108/183/59 132/211/59
f 132/211/59 134/243/59 107/182/59
f 108/183/59 110/185/59 130/209/59
f 130/209/59 132/211/59 108/183/59
f 110/185/155 111/186/70 128/205/64
f 128/205/64 130/209/166 110/185/155
f 111/186/167 143/244/96 124/208/161
f 124/208/161 128/205/168 111/186/167
f 143/244/96 142/235/95 127/236/161
f 127/236/161 124/208/161 143/244/96
f 146/247/97 145/246/97 144/245/97
f 144/245/97 147/248/97 146/247/97
f 82/147/170 83/148/169 86/151/55
f 86/151/55 81/152/144 82/147/170
f 89/169/151 98/170/66 91/158/59
f 91/158/59 80/159/59 89/169/151
f 150/251/61 149/250/61 148/249/61
f 148/249/61 151/252/61 150/251/61
f 154/255/64 153/254/64 152/253/64
f 152/253/64 155/256/64 154/255/64
f 116/242/59 113/188/59 109/184/59
f 109/184/59 106/181/59 116/242/59
f 114/259/64 119/258/166 112/257/71
f 113/188/64 114/189/64 112/187/71
f 109/184/70 113/188/64 112/187/71
f 143/244/96 111/186/167 112/187/156
f 142/235/95 143/244/96 112/187/156
f 117/192/75 142/235/95 112/187/156
f 126/203/81 127/204/81 121/198/64
f 121/198/64 122/199/64 126/203/81
f 137/260/91 140/221/64 141/222/94
f 141/222/94 136/261/90 137/260/91
f 104/226/59 126/203/59 122/199/59
f 122/199/59 93/223/59 104/226/59
f 95/233/161 140/221/161 137/260/161
f 137/260/161 96/262/161 95/233/161
f 118/193/76 120/263/165 121/234/161
f 121/234/161 117/192/75 118/193/76
f 107/182/59 134/243/59 136/241/59
f 136/241/59 106/181/59 107/182/59
f 87/265/9 89/264/9 145/246/9
f 145/246/9 146/247/9 87/265/9
f 89/169/161 80/159/168 144/266/161
f 144/266/161 145/267/168 89/169/161
f 80/269/3 81/268/171 147/248/3
f 147/248/3 144/245/3 80/269/3
f 81/270/172 87/265/173 146/247/172
f 146/247/172 147/271/173 81/270/172
f 91/273/161 98/272/161 150/251/161
f 150/251/161 151/252/161 91/273/161
f 98/275/9 104/274/9 149/250/9
f 149/250/9 150/251/9 98/275/9
f 104/226/59 93/223/59 148/249/59
f 148/249/59 149/250/59 104/226/59
f 93/277/3 91/276/3 151/252/3
f 151/252/3 148/249/3 93/277/3
f 96/231/161 105/179/161 154/255/161
f 154/255/161 155/256/161 96/231/161
f 105/179/9 85/180/9 153/254/9
f 153/254/9 154/255/9 105/179/9
f 85/150/174 86/151/175 152/278/174
f 152/278/174 153/279/175 85/150/174
f 86/282/3 96/281/3 155/280/3
f 155/280/3 152/283/3 86/282/3
# 282 elements

