# Created by Metasequoia

mtllib 1.mtl

v -15.376558 -3.715984 11.173079
v -15.376558 3.725764 11.173079
v -15.221197 3.725764 11.173079
v -15.221197 -3.716033 11.173079
v -15.376558 3.725764 5.411498
v -15.376558 -3.715984 5.411498
v -15.221197 -3.715984 5.411498
v -15.221197 3.725764 5.411498
# 8 vertices

vt 0.78855 0.17636
vt 0.78855 0.18417
vt 0.83738 0.18417
vt 0.83738 0.17636
vt 0.88621 0.18417
vt 0.88621 0.17636
vt 0.78855 0.16659
vt 0.83738 0.16659
vt 0.89402 0.17636
vt 0.89402 0.16659
vt 0.84519 0.16659
vt 0.84519 0.17636
vt 0.78074 0.16659
vt 0.78074 0.17636
# 14 texture vertices

vn 0.00000 0.00000 1.00000
vn 0.00000 0.00000 -1.00000
vn -0.00016 -1.00000 -0.00000
vn 0.00000 1.00000 0.00000
vn 1.00000 0.00000 0.00000
vn -1.00000 0.00000 0.00000
# 6 normal vertices

g scope1
usemtl ModelMaterial
f 4/4/1 3/3/1 2/2/1 1/1/1
f 8/6/2 7/5/2 6/3/2 5/4/2
f 7/8/3 4/4/3 1/1/3 6/7/3
f 3/12/4 8/11/4 5/10/4 2/9/4
f 3/12/5 4/4/5 7/8/5 8/11/5
f 1/1/6 2/14/6 5/13/6 6/7/6
# 6 elements

