# Created by Metasequoia

mtllib 1.mtl

v -46.116867 -2.380407 37.527691
v -46.116867 2.228865 37.527691
v -31.266861 2.228865 31.224243
v -31.266861 -2.380407 31.224243
v -47.467636 2.228865 34.345566
v -47.467636 -2.380407 34.345566
v -32.617630 -2.380407 28.042103
v -32.617630 2.228865 28.042103
v -53.074081 -6.989672 36.835873
v -53.074081 6.838133 36.835873
v -31.558380 6.838133 28.576801
v -31.558380 -6.989672 28.576801
v -54.932388 10.871244 31.994873
v -54.932388 -11.022791 31.994865
v -33.416733 -11.022791 23.735783
v -33.416733 10.871244 23.735790
v -57.294357 -11.022791 25.543598
v -57.294357 10.871252 25.543598
v -35.778671 10.871252 17.284512
v -35.778671 -11.022791 17.284504
v -61.217453 6.838137 15.323650
v -61.217453 -6.989672 15.323650
v -39.701859 -6.989672 7.064564
v -39.701859 6.838137 7.064564
v -54.989700 -11.022791 31.996582
v -54.989700 10.871244 31.996582
v -33.474075 10.871244 23.737507
v -33.474075 -11.022791 23.737507
v -57.467468 10.871252 25.541882
v -57.467468 -11.022791 25.541882
v -35.951828 -11.022791 17.282803
v -35.951828 10.871252 17.282803
# 32 vertices

vt 0.75977 0.92773
vt 0.75977 0.93555
vt 0.78711 0.93555
vt 0.78711 0.92773
vt 0.81445 0.93555
vt 0.81445 0.92773
vt 0.75977 0.92188
vt 0.78711 0.92188
vt 0.82227 0.92773
vt 0.82227 0.92188
vt 0.79492 0.92188
vt 0.79492 0.92773
vt 0.75195 0.92188
vt 0.75195 0.92773
vt 0.44531 0.58594
vt 0.44531 0.62305
vt 0.48438 0.62305
vt 0.48438 0.58594
vt 0.52344 0.62305
vt 0.52344 0.58594
vt 0.44531 0.57422
vt 0.48438 0.57422
vt 0.56055 0.58594
vt 0.56055 0.57422
vt 0.52148 0.57422
vt 0.52148 0.58594
vt 0.40820 0.57422
vt 0.40820 0.58594
vt 0.60547 0.58203
vt 0.60547 0.62305
vt 0.64453 0.62305
vt 0.64453 0.58203
vt 0.68359 0.62305
vt 0.68359 0.58203
vt 0.60547 0.56055
vt 0.64453 0.56055
vt 0.72461 0.58203
vt 0.72461 0.56055
vt 0.68555 0.56055
vt 0.68555 0.58203
vt 0.56445 0.56055
vt 0.56445 0.58203
vt 0.77344 0.58594
vt 0.77344 0.62305
vt 0.81250 0.62305
vt 0.81250 0.58594
vt 0.85156 0.62305
vt 0.85156 0.58594
vt 0.77344 0.57422
vt 0.81250 0.57422
vt 0.88867 0.58594
vt 0.88867 0.57422
vt 0.84961 0.57422
vt 0.84961 0.58594
vt 0.73633 0.57422
vt 0.73633 0.58594
# 56 texture vertices

vn 0.39073 0.00000 0.92050
vn -0.39073 0.00000 -0.92050
vn 0.32193 -0.43935 0.83865
vn 0.32193 0.43935 0.83865
vn -0.35837 0.00000 -0.93358
vn 0.35837 -0.00000 0.93358
vn -0.35837 0.00000 -0.93358
vn 0.35837 0.00000 0.93358
vn -0.35837 0.00000 -0.93358
vn 0.00000 -1.00000 0.00000
vn 0.00000 1.00000 0.00000
vn 0.92050 0.00000 -0.39074
vn -0.92050 0.00000 0.39074
vn 0.22002 -0.78935 0.57316
vn 0.22002 0.78935 0.57316
vn 0.93358 0.00000 -0.35838
vn -0.93358 -0.00000 0.35837
vn -0.12389 -0.93834 -0.32274
vn -0.12389 0.93834 -0.32274
vn 0.93358 0.00000 -0.35838
vn -0.93358 0.00000 0.35837
vn 0.00000 1.00000 0.00000
vn 0.93358 0.00000 -0.35837
vn -0.93358 0.00000 0.35837
# 24 normal vertices

g ammo
usemtl ModelMaterial
f 4/4/1 3/3/1 2/2/1 1/1/1
f 8/6/2 7/5/2 6/3/2 5/4/2
f 7/8/10 4/4/10 1/1/10 6/7/10
f 3/12/11 8/11/11 5/10/11 2/9/11
f 3/12/12 4/4/12 7/8/12 8/11/12
f 1/1/13 2/14/13 5/13/13 6/7/13
f 12/18/3 11/17/4 10/16/4 9/15/3
f 16/20/5 15/19/5 14/17/5 13/18/5
f 15/22/14 12/18/3 9/15/3 14/21/14
f 11/26/4 16/25/15 13/24/15 10/23/4
f 11/26/16 12/18/16 15/22/16 16/25/16
f 9/15/17 10/28/17 13/27/17 14/21/17
f 20/32/6 19/31/6 18/30/6 17/29/6
f 24/34/7 23/33/7 22/31/7 21/32/7
f 23/36/18 20/32/18 17/29/18 22/35/18
f 19/40/19 24/39/19 21/38/19 18/37/19
f 19/40/20 20/32/20 23/36/20 24/39/20
f 17/29/21 18/42/21 21/41/21 22/35/21
f 28/46/8 27/45/8 26/44/8 25/43/8
f 32/48/9 31/47/9 30/45/9 29/46/9
f 31/50/10 28/46/10 25/43/10 30/49/10
f 27/54/22 32/53/22 29/52/22 26/51/22
f 27/54/23 28/46/23 31/50/23 32/53/23
f 25/43/24 26/56/24 29/55/24 30/49/24
# 24 elements

