# Created by Metasequoia

mtllib SCAR11_Slide.mtl

v 62.918770 11.159049 57.455383
v 62.918770 11.159049 58.067680
v 63.106270 7.231449 58.117180
v 63.106270 7.231449 57.406181
v 63.024666 13.847948 57.517479
v 63.024666 13.847948 58.005581
v 63.436569 15.765549 57.561882
v 63.436569 15.765549 57.961479
v 64.142464 17.091850 57.592480
v 64.142464 17.091850 57.930882
v 65.061668 17.861050 57.610184
v 65.061668 17.861050 57.912884
v 65.841064 18.140648 57.616783
v 65.841064 18.140648 57.906578
v 64.692070 7.231449 58.752583
v 64.290367 10.654149 58.647282
v 64.290367 10.654149 56.876080
v 64.692070 7.231449 56.770782
v 64.151764 12.465248 58.530579
v 64.151772 12.465248 56.992481
v 64.290367 14.276050 58.414181
v 64.290367 14.276050 57.109180
v 64.692070 15.909849 58.308880
v 64.692070 15.909849 57.214481
v 65.317566 17.206450 58.225479
v 65.317566 17.206450 57.297882
v 66.106270 18.038948 58.171780
v 66.106270 18.038948 57.351582
v 65.587868 15.657249 59.514881
v 65.100670 15.656949 57.906578
v 64.688164 14.100549 57.906578
v 65.248863 14.100549 59.654682
v 65.587868 15.657249 56.298286
v 65.248863 14.100549 56.158485
v 66.022270 16.804150 59.120979
v 65.658669 16.813450 57.906578
v 66.022270 16.804150 56.692184
v 66.593468 17.589249 58.501183
v 66.377472 17.583248 57.906578
v 66.593468 17.589249 57.311680
v 64.290367 14.276050 57.906578
v 64.692070 15.909849 57.906578
v 65.210464 15.899050 59.744381
v 64.851067 14.276050 59.895580
v 64.851067 14.276050 55.917278
v 65.210472 15.899050 56.068779
v 65.317863 17.206450 57.906578
v 65.708168 17.185749 59.312984
v 65.708168 17.185749 56.499886
v 66.106270 18.044949 57.906578
v 66.321968 18.044949 58.667679
v 66.321968 18.044949 57.145180
# 52 vertices

vt 0.72164 0.98402
vt 0.72164 0.97334
vt 0.72170 0.97868
vt 0.71755 0.97868
vt 0.71755 0.97184
vt 0.71755 0.98551
vt 0.75603 0.97040
vt 0.75511 0.97607
vt 0.75762 0.97602
vt 0.80608 0.96430
vt 0.81782 0.97463
vt 0.82235 0.96231
vt 0.72870 0.96777
vt 0.72527 0.96604
vt 0.72870 0.98958
vt 0.72527 0.99131
vt 0.73900 0.96423
vt 0.73682 0.96217
vt 0.73900 0.99312
vt 0.73682 0.99518
vt 0.75298 0.96298
vt 0.75140 0.96081
vt 0.75298 0.97868
vt 0.75140 0.97868
vt 0.75298 0.99438
vt 0.75140 0.99654
vt 0.72508 0.97868
vt 0.73673 0.97868
vt 0.72861 0.97868
vt 0.73900 0.97868
vt 0.76350 0.98527
vt 0.75762 0.97874
vt 0.75511 0.97868
vt 0.75603 0.98435
vt 0.77515 0.98668
vt 0.76453 0.97890
vt 0.76453 0.97586
vt 0.77644 0.97558
vt 0.77515 0.96807
vt 0.76350 0.96949
vt 0.78982 0.98847
vt 0.77644 0.97917
vt 0.79367 0.97518
vt 0.78982 0.96628
vt 0.80608 0.99046
vt 0.79367 0.97957
vt 0.82235 0.99244
vt 0.81782 0.98013
vt 0.85309 0.99423
vt 0.85309 0.98057
vt 0.85309 0.97418
vt 0.85309 0.96052
# 52 texture vertices

vn -0.37343 0.02686 -0.92727
vn -0.38204 0.01121 0.92408
vn -0.38170 -0.01109 0.92422
vn -0.38162 -0.01112 -0.92425
vn -0.33278 0.08653 -0.93903
vn -0.35800 0.06159 0.93169
vn -0.28763 0.14491 -0.94671
vn -0.30674 0.12019 0.94417
vn -0.26969 0.25317 -0.92907
vn -0.26954 0.20500 0.94092
vn -0.43234 0.79826 -0.41935
vn -0.29265 0.36330 0.88451
vn -0.09284 0.97340 -0.20947
vn -0.37567 0.79882 0.46986
vn -0.38058 0.00964 -0.92470
vn -0.36912 0.04583 -0.92825
vn -0.32258 0.46265 0.82577
vn -0.07313 0.80736 -0.58551
vn 0.53427 0.01661 0.84515
vn 0.93936 -0.34294 0.00000
vn -0.37525 -0.92692 0.00001
vn 0.50579 -0.03221 0.86205
vn 0.53447 0.01652 -0.84502
vn 0.50606 -0.03220 -0.86190
vn 0.60126 0.09457 0.79344
vn 0.82206 -0.56941 -0.00001
vn 0.60137 0.09437 -0.79338
vn 0.39832 -0.90846 -0.12663
vn 0.52316 -0.85223 -0.00002
vn 0.39834 -0.90846 0.12661
vn -0.94073 0.33915 0.00001
vn -0.82426 0.56622 0.00002
vn -0.52138 0.85332 0.00002
vn 0.49405 0.86943 0.00000
vn 0.83453 0.35363 -0.42251
vn 0.83447 0.35375 0.42252
vn 0.63960 0.12323 -0.75877
vn 0.63953 0.12346 0.75879
vn -0.37288 -0.92112 -0.11180
vn -0.37291 -0.92111 0.11182
vn -0.80229 0.55112 -0.22935
vn -0.71431 0.66907 -0.20518
vn -0.71429 0.66907 0.20524
vn -0.80227 0.55113 0.22939
vn -0.90892 0.32768 -0.25784
vn -0.90892 0.32768 0.25786
vn -0.93623 0.23115 -0.26467
vn -0.97085 0.23968 0.00001
vn -0.93623 0.23112 0.26469
vn 0.79578 -0.55119 0.25086
vn 0.79576 -0.55121 -0.25088
vn 0.90246 -0.32946 0.27752
vn 0.90246 -0.32948 -0.27752
vn 0.92759 -0.23650 0.28920
vn 0.96900 -0.24706 0.00000
vn 0.92759 -0.23650 -0.28920
vn 0.35805 0.93370 0.00000
vn 0.82311 -0.56789 0.00000
vn 0.72594 -0.68775 0.00000
vn 0.94098 -0.33846 0.00000
vn 0.98743 -0.15807 0.00000
vn 1.00000 -0.00001 0.00000
vn 0.99534 0.09645 0.00000
vn 0.99318 0.11656 0.00000
vn -0.49741 0.86752 0.00000
vn -0.77660 0.63000 0.00000
vn -0.93926 0.34322 0.00000
vn -0.99214 0.12515 0.00000
vn -0.99999 -0.00417 0.00000
vn -0.99886 -0.04768 0.00000
# 70 normal vertices

g GEOM0-LOD1
usemtl Material_0
f 39/3/29 40/2/30 38/1/28
f 51/6/34 52/5/34 50/4/33
f 11/9/11 13/8/13 28/7/18
f 17/12/15 1/11/1 20/10/16
f 38/1/36 40/2/35 52/5/34 51/6/34
f 49/14/27 52/5/37 40/2/35 37/13/27
f 51/6/38 48/16/25 35/15/25 38/1/36
f 46/18/23 49/14/27 37/13/27 33/17/23
f 48/16/25 43/20/19 29/19/19 35/15/25
f 45/22/24 46/18/23 33/17/23 34/21/24
f 41/24/21 45/22/39 34/21/39 31/23/21
f 43/20/19 44/26/22 32/25/22 29/19/19
f 44/26/40 41/24/21 31/23/21 32/25/40
f 47/27/32 50/4/33 52/5/42 49/14/41
f 48/16/44 51/6/43 50/4/33 47/27/32
f 42/28/31 47/27/32 49/14/41 46/18/45
f 43/20/46 48/16/44 47/27/32 42/28/31
f 41/24/48 42/28/31 46/18/45 45/22/47
f 44/26/49 43/20/46 42/28/31 41/24/48
f 36/29/26 37/13/50 40/2/30 39/3/29
f 35/15/51 36/29/26 39/3/29 38/1/28
f 30/30/20 33/17/52 37/13/50 36/29/26
f 29/19/53 30/30/20 36/29/26 35/15/51
f 31/23/55 34/21/54 33/17/52 30/30/20
f 32/25/56 31/23/55 30/30/20 29/19/53
f 27/34/17 14/33/14 12/32/12 25/31/12
f 28/7/18 13/8/13 14/33/57 27/34/57
f 25/31/12 12/32/12 10/36/10 23/35/10
f 26/40/9 24/39/7 7/38/7 9/37/9
f 9/37/9 11/9/11 28/7/18 26/40/9
f 23/35/10 10/36/10 8/42/8 21/41/8
f 24/39/7 22/44/5 5/43/5 7/38/7
f 21/41/8 8/42/8 6/46/6 19/45/6
f 22/44/5 20/10/16 1/11/1 5/43/5
f 19/45/6 6/46/6 2/48/2 16/47/2
f 16/47/2 2/48/2 3/50/3 15/49/3
f 18/52/4 4/51/4 1/11/1 17/12/15
f 26/40/58 28/7/59 27/34/59 25/31/58
f 24/39/60 26/40/58 25/31/58 23/35/60
f 22/44/61 24/39/60 23/35/60 21/41/61
f 20/10/62 22/44/61 21/41/61 19/45/62
f 17/12/63 20/10/62 19/45/62 16/47/63
f 18/52/64 17/12/63 16/47/63 15/49/64
f 11/9/11 12/32/65 14/33/14 13/8/13
f 9/37/66 10/36/66 12/32/65 11/9/11
f 7/38/67 8/42/67 10/36/66 9/37/66
f 5/43/68 6/46/68 8/42/67 7/38/67
f 1/11/69 2/48/69 6/46/68 5/43/68
f 4/51/70 3/50/70 2/48/69 1/11/69
# 49 elements

